<svg xmlns="http://www.w3.org/2000/svg" xmlns:xlink="http://www.w3.org/1999/xlink" viewBox="0 0 279.77 338.5"><defs><style>.cls-1{fill:none;}.cls-2{clip-path:url(#clip-path);}.cls-3{fill:#7592a0;}.cls-4{fill:#f7f0e3;}.cls-5{clip-path:url(#clip-path-2);}.cls-6{clip-path:url(#clip-path-3);}.cls-7{fill:#a95738;}.cls-8{fill:#6e2113;}.cls-9{fill:#b88d44;}</style><clipPath id="clip-path" transform="translate(0 0)"><rect class="cls-1" x="72.83" y="64.94" width="172.66" height="267.05" transform="translate(-58.28 66.41) rotate(-20)"/></clipPath><clipPath id="clip-path-2" transform="translate(0 0)"><rect class="cls-1" x="91.55" y="133.11" width="135.25" height="130.64"/></clipPath><clipPath id="clip-path-3" transform="translate(0 0)"><rect class="cls-1" width="132.16" height="50.31"/></clipPath></defs><g id="Layer_2" data-name="Layer 2"><g id="Layer_1-2" data-name="Layer 1"><g id="Group_252" data-name="Group 252"><g class="cls-2"><g id="Group_15" data-name="Group 15"><path id="Path_66" data-name="Path 66" class="cls-3" d="M32.41,102.51,43.2,132.16,57.5,127s6.68,2.8,3.6,9.89-12.85,11.4-6.38,26.95,67.61,174.65,67.61,174.65,90.59,4.34,157.44-61L210.22,86.3l-16.94-6.52,13.34-3.37-10.55-29Z" transform="translate(0 0)"/></g></g></g><g id="Group_253" data-name="Group 253"><rect id="Rectangle_12" data-name="Rectangle 12" class="cls-4" x="100.4" y="203.18" width="3.69" height="10.87" transform="translate(-21.38 11.92) rotate(-6.04)"/><g id="Group_3" data-name="Group 3"><g class="cls-5"><g id="Group_2" data-name="Group 2"><path id="Path_1" data-name="Path 1" class="cls-4" d="M114.53,193.6l-23-8,1.81-5.19a7,7,0,0,1,2.38-3.32,5.35,5.35,0,0,1,3.54-1,8.29,8.29,0,0,1,2.56.53,5.72,5.72,0,0,1,3.27,2.52,3.67,3.67,0,0,1,.48,1.52,4.17,4.17,0,0,1,2.42-1.35,7.28,7.28,0,0,1,2.55,0,10.14,10.14,0,0,1,1.64.43,8.16,8.16,0,0,1,3.41,2.12,5.62,5.62,0,0,1,1.16,5.38Zm-12.29-8.48.51-1.45a2.24,2.24,0,0,0-.82-2.71,4.75,4.75,0,0,0-1.38-.71,3.21,3.21,0,0,0-2.4-.06,2.31,2.31,0,0,0-1.27,1.43l-.5,1.45Zm10.17,3.55.51-1.45a2.6,2.6,0,0,0-1-3.07,4.14,4.14,0,0,0-1.35-.74,4.63,4.63,0,0,0-3.06-.25,2.52,2.52,0,0,0-1.49,1.66l-.5,1.45Z" transform="translate(0 0)"/><path id="Path_2" data-name="Path 2" class="cls-4" d="M120.82,178.33,101.93,163l6.59-8.11,2.86,2.33-4.27,5.26,5.15,4.19,3.12-3.84,2.86,2.32L115.12,169l5.15,4.19,4.27-5.26,2.87,2.33Z" transform="translate(0 0)"/><path id="Path_3" data-name="Path 3" class="cls-4" d="M126,141.49l2,3.1,3.52,17.94,5.68-3.66,2,3.06-9,5.81-2-3.09-3.51-17.94L119,150.4l-2-3.1Z" transform="translate(0 0)"/><path id="Path_4" data-name="Path 4" class="cls-4" d="M142.19,135.11a5.83,5.83,0,0,1,7.05,4.25l3.19,12.89a5.82,5.82,0,0,1-4.24,7.05h0a5.56,5.56,0,0,1-4.41-.67,5.63,5.63,0,0,1-2.63-3.59L138,142.16a5.82,5.82,0,0,1,4.24-7m3.32,5.1a2.09,2.09,0,0,0-2.52-1.54h0a2,2,0,0,0-1.3,1,2,2,0,0,0-.25,1.59l3.2,12.92a2,2,0,0,0,1,1.3,2.11,2.11,0,0,0,3.13-2.29v0Z" transform="translate(0 0)"/><path id="Path_5" data-name="Path 5" class="cls-4" d="M158,157.3l2.79-24.19,5.45.63a7,7,0,0,1,3.77,1.59,5.33,5.33,0,0,1,1.78,3.23,8.46,8.46,0,0,1,.05,2.61,5.68,5.68,0,0,1-1.74,3.74,3.63,3.63,0,0,1-1.38.8,4.28,4.28,0,0,1,1.85,2.07,7.09,7.09,0,0,1,.55,2.49A10.61,10.61,0,0,1,171,152a8.21,8.21,0,0,1-1.32,3.8,5.29,5.29,0,0,1-2.14,1.78,5.24,5.24,0,0,1-2.86.53Zm4.35-3.16,1.53.18a2.6,2.6,0,0,0,2.78-1.62,4.21,4.21,0,0,0,.42-1.47,4.55,4.55,0,0,0-.43-3,2.46,2.46,0,0,0-1.94-1.08l-1.53-.18Zm1.24-10.7,1.52.17a2.25,2.25,0,0,0,2.47-1.39,4.6,4.6,0,0,0,.38-1.5,3.17,3.17,0,0,0-.47-2.36,2.32,2.32,0,0,0-1.67-.92l-1.52-.17Z" transform="translate(0 0)"/><path id="Path_6" data-name="Path 6" class="cls-4" d="M180.39,156.86,177,161.41l-3.39-1.76L188.49,140l4.48,2.32-7.56,23.47L182,164l1.81-5.36Zm7.76-10.81-5.61,7.9L185,155.2Z" transform="translate(0 0)"/><path id="Path_7" data-name="Path 7" class="cls-4" d="M195.29,175.83l-6.78-7.35L206.39,152l2.49,2.69-15.2,14,4.3,4.65Z" transform="translate(0 0)"/><rect id="Rectangle_13" data-name="Rectangle 13" class="cls-4" x="215.78" y="168.32" width="4" height="3.67" transform="translate(-55.08 126.25) rotate(-28.86)"/><rect id="Rectangle_14" data-name="Rectangle 14" class="cls-4" x="197.12" y="174.79" width="17.87" height="3.67" transform="translate(-59.67 121.44) rotate(-28.87)"/><path id="Path_8" data-name="Path 8" class="cls-4" d="M209.89,196.91a6.85,6.85,0,0,1-4.53-.3,4.83,4.83,0,0,1-2.26-2.07,7,7,0,0,1-.72-1.92,5.72,5.72,0,0,1,.23-3.72,6,6,0,0,1,1.89-2.37,9.67,9.67,0,0,1,3.17-1.56l1,3.34a5.33,5.33,0,0,0-2.75,1.8,1.89,1.89,0,0,0-.32,1.63,2.26,2.26,0,0,0,1.59,1.6,2.9,2.9,0,0,0,1.65,0,4.48,4.48,0,0,0,2.62-2l2.28-3.87a13.57,13.57,0,0,1,2.5-3.23,7.28,7.28,0,0,1,3.14-1.57,6,6,0,0,1,5.41,1,5.51,5.51,0,0,1,1.77,3.1,6.12,6.12,0,0,1-.09,3.47,5.07,5.07,0,0,1-1.45,2.14,7.1,7.1,0,0,1-2.56,1.42l-1.42-3.28a4.17,4.17,0,0,0,2.07-1.35,1.77,1.77,0,0,0,.26-1.56,1.66,1.66,0,0,0-1.21-1.29,3.48,3.48,0,0,0-1.84,0,5.27,5.27,0,0,0-3,2.17,10.78,10.78,0,0,0-1.15,1.94c-.5,1-.86,1.65-1.07,2a12.69,12.69,0,0,1-2.14,2.65,8.45,8.45,0,0,1-1,.8,6.59,6.59,0,0,1-2.14,1.06" transform="translate(0 0)"/><rect id="Rectangle_15" data-name="Rectangle 15" class="cls-4" x="210.18" y="206.76" width="10.87" height="3.69" transform="translate(-14.48 401.11) rotate(-83.97)"/><path id="Path_9" data-name="Path 9" class="cls-4" d="M110.09,233a1.64,1.64,0,0,0-.56.55,1.44,1.44,0,0,0-.19.64,1.79,1.79,0,0,0,.11.69,2.49,2.49,0,0,0,.35.69,2.17,2.17,0,0,0,.51.58,1.41,1.41,0,0,0,.51.28.93.93,0,0,0,.47,0,1.18,1.18,0,0,0,.4-.17.94.94,0,0,0,.44-.54,1.18,1.18,0,0,0,0-.53c-.09-.33-.19-.65-.3-1s-.29-.8-.46-1.33a2.66,2.66,0,0,1-.18-.88,1.91,1.91,0,0,1,.1-.71,1.46,1.46,0,0,1,.31-.54,2.15,2.15,0,0,1,.45-.4,2,2,0,0,1,1-.36,2.06,2.06,0,0,1,1,.14,2.63,2.63,0,0,1,.86.53,4,4,0,0,1,.7.78,4.63,4.63,0,0,1,.51,1,2.92,2.92,0,0,1,.13,1.06,2.29,2.29,0,0,1-1,1.77l-.76-1.14a1.31,1.31,0,0,0,.6-1,2,2,0,0,0-.39-1.14,2,2,0,0,0-.32-.38,1.24,1.24,0,0,0-.39-.29,1,1,0,0,0-.45-.11,1,1,0,0,0-.88.73,1.65,1.65,0,0,0,.08.76l.11.33c.07.2.14.42.23.66s.16.48.24.71.14.4.17.5a2.32,2.32,0,0,1,.1.74,2,2,0,0,1-.45,1.21,2,2,0,0,1-.46.42,2.13,2.13,0,0,1-1.08.4,2.21,2.21,0,0,1-1-.16,2.91,2.91,0,0,1-.91-.59,4.81,4.81,0,0,1-1.31-2,2.76,2.76,0,0,1-.15-1.14,2.35,2.35,0,0,1,.33-1.06,2.93,2.93,0,0,1,.89-.93Z" transform="translate(0 0)"/><path id="Path_10" data-name="Path 10" class="cls-4" d="M116,236.17l.77.89-.58.5,0,0a1.47,1.47,0,0,1,1,.09,2.31,2.31,0,0,1,.82.63,2.72,2.72,0,0,1,.59,1,2.33,2.33,0,0,1,.05,1,2.88,2.88,0,0,1-.4,1,4.25,4.25,0,0,1-1.71,1.5,2.92,2.92,0,0,1-1,.28,2.2,2.2,0,0,1-1.89-.81,2.69,2.69,0,0,1-.31-.44,2.5,2.5,0,0,1-.23-.5,2.54,2.54,0,0,1-.09-.54,1.39,1.39,0,0,1,.07-.53h0L111,242.17l-.82-.94Zm.7,5.14a2.67,2.67,0,0,0,.5-.56,2,2,0,0,0,.29-.65,1.47,1.47,0,0,0,0-.66,1.32,1.32,0,0,0-.32-.62,1.34,1.34,0,0,0-1.19-.54,2.38,2.38,0,0,0-1.36.65,3,3,0,0,0-.53.59,2,2,0,0,0-.27.65,1.53,1.53,0,0,0,0,.64,1.49,1.49,0,0,0,.32.61,1.31,1.31,0,0,0,.61.43,1.35,1.35,0,0,0,.66.07,1.69,1.69,0,0,0,.66-.2,3.22,3.22,0,0,0,.6-.42" transform="translate(0 0)"/><path id="Path_11" data-name="Path 11" class="cls-4" d="M118.33,247.09a3,3,0,0,1-.74-1,2.75,2.75,0,0,1-.25-1.06,2.64,2.64,0,0,1,.23-1.07,3.6,3.6,0,0,1,.67-1,3.46,3.46,0,0,1,.94-.75,2.93,2.93,0,0,1,1-.32,2.8,2.8,0,0,1,1.08.15,3.2,3.2,0,0,1,1,.65,3,3,0,0,1,.75,1,2.58,2.58,0,0,1,.25,1.06,2.64,2.64,0,0,1-.23,1.07,3.84,3.84,0,0,1-1.61,1.77,2.57,2.57,0,0,1-1,.32,2.44,2.44,0,0,1-1.07-.15,2.94,2.94,0,0,1-1-.65m.67-.72a1.42,1.42,0,0,0,.65.35,1.56,1.56,0,0,0,.68,0,2,2,0,0,0,.64-.27,2.89,2.89,0,0,0,.56-.48,3.51,3.51,0,0,0,.42-.59,2.29,2.29,0,0,0,.22-.67,1.74,1.74,0,0,0-.07-.68,1.6,1.6,0,0,0-1.07-1,1.52,1.52,0,0,0-.67,0,2,2,0,0,0-.65.27,2.8,2.8,0,0,0-1,1.08,1.72,1.72,0,0,0-.22.66,1.56,1.56,0,0,0,.06.68,1.46,1.46,0,0,0,.42.62" transform="translate(0 0)"/><path id="Path_12" data-name="Path 12" class="cls-4" d="M124.69,244.94l.75.56,1-1.35,1,.76-1,1.35.89.68-.56.74-.89-.68L124,249.4a2.75,2.75,0,0,0-.19.28.62.62,0,0,0-.08.24.33.33,0,0,0,0,.22.76.76,0,0,0,.23.24l.22.16a1,1,0,0,0,.23.12l-.58.77-.35-.21c-.11-.06-.22-.14-.34-.22a3,3,0,0,1-.57-.56,1,1,0,0,1-.21-.5,1,1,0,0,1,.09-.5,3.65,3.65,0,0,1,.32-.54l2-2.66-.74-.56Z" transform="translate(0 0)"/><path id="Path_13" data-name="Path 13" class="cls-4" d="M128,247.41l1,.64-.6.92h0a1.29,1.29,0,0,1,.42-.26,2.62,2.62,0,0,1,.54-.12,1.89,1.89,0,0,1,.58,0,1.67,1.67,0,0,1,.52.21l.25.18.13.11-.66,1c-.07-.07-.14-.12-.21-.18a1.46,1.46,0,0,0-.21-.16,1.49,1.49,0,0,0-.57-.23,1.41,1.41,0,0,0-.61.05,2,2,0,0,0-.61.32,2.77,2.77,0,0,0-.55.63L126,252.82l-1-.69Z" transform="translate(0 0)"/><path id="Path_14" data-name="Path 14" class="cls-4" d="M130.36,252.61a2.17,2.17,0,0,0-.22.6,1.52,1.52,0,0,0,0,.6,1.36,1.36,0,0,0,.24.55,1.51,1.51,0,0,0,.53.44,1.47,1.47,0,0,0,.89.21,1.34,1.34,0,0,0,.77-.38l1,.56a2.33,2.33,0,0,1-.69.56,2.5,2.5,0,0,1-.8.26,2.64,2.64,0,0,1-.84,0,3.45,3.45,0,0,1-.83-.31,3,3,0,0,1-.94-.76A2.24,2.24,0,0,1,129,254a2.46,2.46,0,0,1,0-1.08,3.81,3.81,0,0,1,.42-1.14,3.2,3.2,0,0,1,.71-.92,2.78,2.78,0,0,1,.93-.57,2.53,2.53,0,0,1,2.18.16,2.48,2.48,0,0,1,.92.81,2.61,2.61,0,0,1,.42,1.07,2.88,2.88,0,0,1-.05,1.17,3.34,3.34,0,0,1-.51,1.12Zm2.95.66a2.23,2.23,0,0,0,.16-.56,1.76,1.76,0,0,0,0-.56,1.4,1.4,0,0,0-.67-.88,1.51,1.51,0,0,0-.58-.18,1.33,1.33,0,0,0-.56.06,1.49,1.49,0,0,0-.49.28,1.62,1.62,0,0,0-.4.46Z" transform="translate(0 0)"/><path id="Path_15" data-name="Path 15" class="cls-4" d="M137.11,250.18l1.15.46-1.07,2.68h0a1.61,1.61,0,0,1,.43-.23,2,2,0,0,1,.48-.11,2.77,2.77,0,0,1,.5,0,2.62,2.62,0,0,1,.48.13,2.71,2.71,0,0,1,1,.65,2.21,2.21,0,0,1,.53.91,2.75,2.75,0,0,1,.1,1.07,4.05,4.05,0,0,1-.28,1.14,4.16,4.16,0,0,1-.54,1,2.78,2.78,0,0,1-.77.72,2.19,2.19,0,0,1-2,.15,4.74,4.74,0,0,1-.51-.24,2,2,0,0,1-.46-.35,1.62,1.62,0,0,1-.34-.44,1.34,1.34,0,0,1-.16-.55h0l-.29.72-1.09-.44Zm2.19,6.24a3,3,0,0,0,.19-.73,2.36,2.36,0,0,0,0-.7,1.52,1.52,0,0,0-.29-.6,1.46,1.46,0,0,0-.57-.41,1.36,1.36,0,0,0-1.3.07,2.31,2.31,0,0,0-.91,1.2,3,3,0,0,0-.2.78,1.67,1.67,0,0,0,.06.7,1.45,1.45,0,0,0,1.61,1.06,1.43,1.43,0,0,0,.62-.24,1.86,1.86,0,0,0,.49-.48,3.36,3.36,0,0,0,.34-.65" transform="translate(0 0)"/><path id="Path_16" data-name="Path 16" class="cls-4" d="M145.75,261.27l-1.19-.32.2-.76h0a1.74,1.74,0,0,1-.83.48,1.84,1.84,0,0,1-1,0,2.11,2.11,0,0,1-1.42-.95,2.48,2.48,0,0,1-.05-1.74l.93-3.47,1.21.33-.9,3.34a1.57,1.57,0,0,0,0,1.09,1,1,0,0,0,.7.5,1.48,1.48,0,0,0,.66.06,1.28,1.28,0,0,0,.5-.2,1.39,1.39,0,0,0,.35-.41,2.92,2.92,0,0,0,.23-.58l.84-3.16,1.21.32Z" transform="translate(0 0)"/><path id="Path_17" data-name="Path 17" class="cls-4" d="M148.47,256l1.22.23-1.1,6a2,2,0,0,1-.6,1.21,1.5,1.5,0,0,1-1.31.23,1.67,1.67,0,0,1-.3-.07l-.24-.07.18-1,.22.07.19.05c.22,0,.37,0,.45-.13a1.77,1.77,0,0,0,.2-.6Zm.38-2.11,1.23.22-.21,1.16-1.23-.22Z" transform="translate(0 0)"/><rect id="Rectangle_16" data-name="Rectangle 16" class="cls-4" x="150.56" y="257.96" width="7.81" height="1.25" transform="translate(-115.38 392.41) rotate(-85.53)"/><path id="Path_18" data-name="Path 18" class="cls-4" d="M157.51,260.14a2.65,2.65,0,0,0,.08.63,1.88,1.88,0,0,0,.27.55,1.54,1.54,0,0,0,.47.37,1.56,1.56,0,0,0,.67.15,1.54,1.54,0,0,0,.89-.22,1.44,1.44,0,0,0,.51-.7l1.18,0a2.34,2.34,0,0,1-.94,1.41,2.57,2.57,0,0,1-.77.36,2.91,2.91,0,0,1-.88.11,3,3,0,0,1-1.18-.24A2.4,2.4,0,0,1,157,262a2.68,2.68,0,0,1-.52-.95,3.78,3.78,0,0,1-.16-1.2,3.39,3.39,0,0,1,.21-1.14,3.14,3.14,0,0,1,.56-.95,2.72,2.72,0,0,1,3.2-.56,2.73,2.73,0,0,1,.87.75,3,3,0,0,1,.49,1.07,3.18,3.18,0,0,1,.06,1.23Zm2.92-.77a2.13,2.13,0,0,0-.11-.57,1.44,1.44,0,0,0-.28-.48,1.41,1.41,0,0,0-.43-.34,1.28,1.28,0,0,0-.57-.13,1.52,1.52,0,0,0-.6.1,1.44,1.44,0,0,0-.46.31,1.63,1.63,0,0,0-.32.47,1.74,1.74,0,0,0-.13.59Z" transform="translate(0 0)"/><path id="Path_19" data-name="Path 19" class="cls-4" d="M162.49,257l1.17-.13.09.82,0,0a2,2,0,0,1,.66-.81,1.83,1.83,0,0,1,1-.38,2.09,2.09,0,0,1,1.5.32,1.85,1.85,0,0,1,.7,1.37L168,262l-1.24.14-.39-3.53a1.5,1.5,0,0,0-.39-.93,1,1,0,0,0-.84-.21,1.22,1.22,0,0,0-.56.17,1.31,1.31,0,0,0-.38.36,1.44,1.44,0,0,0-.22.51,1.63,1.63,0,0,0,0,.58l.36,3.32-1.23.13Z" transform="translate(0 0)"/><path id="Path_20" data-name="Path 20" class="cls-4" d="M171.57,255.61l1.13-.33.21.73h0a1.61,1.61,0,0,1,.51-.88,2.34,2.34,0,0,1,.92-.49,2.78,2.78,0,0,1,1.18-.1,2.33,2.33,0,0,1,1,.39,2.85,2.85,0,0,1,.73.78,4,4,0,0,1,.49,1.08,4.12,4.12,0,0,1,.16,1.1,2.87,2.87,0,0,1-.17,1,2.17,2.17,0,0,1-1.51,1.38,3.41,3.41,0,0,1-.54.1,2,2,0,0,1-.55,0,2.33,2.33,0,0,1-.52-.13,1.7,1.7,0,0,1-.46-.29h0l.79,2.71-1.2.34Zm5,1.51a2.83,2.83,0,0,0-.3-.69,2.12,2.12,0,0,0-.46-.53,1.65,1.65,0,0,0-.59-.3,1.38,1.38,0,0,0-.7,0,1.37,1.37,0,0,0-1,.86,2.4,2.4,0,0,0,0,1.5,2.66,2.66,0,0,0,.32.73,1.71,1.71,0,0,0,.48.52,1.43,1.43,0,0,0,.59.26,1.55,1.55,0,0,0,1.33-.41,1.4,1.4,0,0,0,.35-.57,1.74,1.74,0,0,0,.08-.68,2.85,2.85,0,0,0-.12-.72" transform="translate(0 0)"/><path id="Path_21" data-name="Path 21" class="cls-4" d="M182.48,258a3.13,3.13,0,0,1-1.2.27,2.55,2.55,0,0,1-1.06-.22,2.59,2.59,0,0,1-.89-.65,3.79,3.79,0,0,1-.93-2.2,2.62,2.62,0,0,1,.14-1.08,2.55,2.55,0,0,1,.59-.92,3.31,3.31,0,0,1,2.22-.94,2.62,2.62,0,0,1,1.07.21,3,3,0,0,1,.88.65,3.73,3.73,0,0,1,.64,1,4.1,4.1,0,0,1,.3,1.18,2.88,2.88,0,0,1-.15,1.09,2.76,2.76,0,0,1-.58.92,3.24,3.24,0,0,1-1,.68m-.38-.91a1.38,1.38,0,0,0,.59-.45,1.56,1.56,0,0,0,.29-.61,2.12,2.12,0,0,0,0-.71,2.86,2.86,0,0,0-.56-1.33,2.15,2.15,0,0,0-.52-.48,1.8,1.8,0,0,0-.64-.22,1.42,1.42,0,0,0-.73.13,1.38,1.38,0,0,0-.6.44,1.54,1.54,0,0,0-.28.61,1.83,1.83,0,0,0,0,.7,2.81,2.81,0,0,0,.2.7,2.73,2.73,0,0,0,.37.64,1.91,1.91,0,0,0,.51.47,1.54,1.54,0,0,0,.65.23,1.52,1.52,0,0,0,.73-.12" transform="translate(0 0)"/><path id="Path_22" data-name="Path 22" class="cls-4" d="M183.17,251.37l.82-.45-.8-1.49,1.1-.59.8,1.49,1-.53.44.82-1,.53,1.43,2.66a2.29,2.29,0,0,0,.18.29.42.42,0,0,0,.18.17.37.37,0,0,0,.23,0,1.15,1.15,0,0,0,.31-.11,1.71,1.71,0,0,1,.23-.13l.21-.16.46.85a4,4,0,0,0-.34.23l-.35.21a2.78,2.78,0,0,1-.74.29,1,1,0,0,1-.55,0,.84.84,0,0,1-.41-.29,3,3,0,0,1-.36-.51l-1.58-2.94-.83.45Z" transform="translate(0 0)"/><path id="Path_23" data-name="Path 23" class="cls-4" d="M186.8,249.37l1-.62.58.92h0a1.35,1.35,0,0,1-.06-.49,1.92,1.92,0,0,1,.11-.54,1.67,1.67,0,0,1,.27-.51,1.38,1.38,0,0,1,.41-.39,1.74,1.74,0,0,1,.26-.15l.16-.07.64,1-.25.11c-.08,0-.16.08-.24.12a1.47,1.47,0,0,0-.43.43,1.33,1.33,0,0,0-.22.57,1.78,1.78,0,0,0,.05.69,2.52,2.52,0,0,0,.34.77l1.43,2.27-1.05.67Z" transform="translate(0 0)"/><path id="Path_24" data-name="Path 24" class="cls-4" d="M192.49,249.4a2.45,2.45,0,0,0,.46.45,1.59,1.59,0,0,0,.54.26,1.35,1.35,0,0,0,.6,0,1.56,1.56,0,0,0,.62-.3,1.53,1.53,0,0,0,.56-.72,1.41,1.41,0,0,0,0-.86l.95-.71a2.35,2.35,0,0,1,.12,1.69,2.31,2.31,0,0,1-.38.75,2.9,2.9,0,0,1-.63.63,2.85,2.85,0,0,1-1.07.54,2.37,2.37,0,0,1-1.06,0,2.56,2.56,0,0,1-1-.42,3.9,3.9,0,0,1-.87-.85,3.39,3.39,0,0,1-.54-1,2.87,2.87,0,0,1-.13-1.09,2.65,2.65,0,0,1,2.17-2.41,2.62,2.62,0,0,1,1.15,0,3,3,0,0,1,1,.54,3.28,3.28,0,0,1,.81.93Zm1.83-2.41a2.22,2.22,0,0,0-.44-.37,1.46,1.46,0,0,0-.52-.21,1.23,1.23,0,0,0-.54,0,1.32,1.32,0,0,0-.54.24,1.71,1.71,0,0,0-.4.45,1.33,1.33,0,0,0-.18.54,1.77,1.77,0,0,0,0,.56,1.5,1.5,0,0,0,.26.54Z" transform="translate(0 0)"/><path id="Path_25" data-name="Path 25" class="cls-4" d="M193.09,242.25l.91-.86,2,2.09v0a1.6,1.6,0,0,1,0-.49,2.05,2.05,0,0,1,.1-.48,2.35,2.35,0,0,1,.22-.45,1.91,1.91,0,0,1,.31-.38,2.73,2.73,0,0,1,1-.63,2.29,2.29,0,0,1,1-.11,2.61,2.61,0,0,1,1,.36,3.66,3.66,0,0,1,.93.73,3.82,3.82,0,0,1,.65.9,2.74,2.74,0,0,1,.33,1,2.09,2.09,0,0,1-.1,1,2.16,2.16,0,0,1-.61.93c-.14.13-.29.25-.44.37a2.42,2.42,0,0,1-.5.27,1.75,1.75,0,0,1-.54.12,1.28,1.28,0,0,1-.58-.08h0l.53.56-.85.82Zm6.6.6a3,3,0,0,0-.59-.47,2.16,2.16,0,0,0-.65-.26,1.52,1.52,0,0,0-.67,0,1.5,1.5,0,0,0-1.09,1.56,2.4,2.4,0,0,0,.72,1.33,3,3,0,0,0,.62.5,1.87,1.87,0,0,0,.66.24,1.73,1.73,0,0,0,.64,0,1.59,1.59,0,0,0,1-1,1.69,1.69,0,0,0,0-.67,1.77,1.77,0,0,0-.24-.64,3.62,3.62,0,0,0-.44-.59" transform="translate(0 0)"/><path id="Path_26" data-name="Path 26" class="cls-4" d="M199.25,239.24l.76-.91.64.53h0a2.09,2.09,0,0,1-.09-1.05,2,2,0,0,1,.44-.95,2.14,2.14,0,0,1,1.31-.82,1.86,1.86,0,0,1,1.45.51l3,2.48-.8,1-2.73-2.27a1.48,1.48,0,0,0-.93-.4,1,1,0,0,0-.75.44,1.28,1.28,0,0,0-.28.51,1.18,1.18,0,0,0,0,.53,1.49,1.49,0,0,0,.19.51,1.67,1.67,0,0,0,.39.45l2.56,2.13-.79,1Z" transform="translate(0 0)"/><path id="Path_27" data-name="Path 27" class="cls-4" d="M202.8,230.69l.81-1.23.45,2.15-.49.76Zm3.51,4.67a2.18,2.18,0,0,0,.58.27,1.54,1.54,0,0,0,.6.06,1.43,1.43,0,0,0,.57-.19,1.72,1.72,0,0,0,.48-.49,1.31,1.31,0,0,0,0-1.67l.64-1a2.2,2.2,0,0,1,.5.74,2.28,2.28,0,0,1,.19.81,2.62,2.62,0,0,1-.1.84,3.34,3.34,0,0,1-.38.81,3,3,0,0,1-.84.86,2.33,2.33,0,0,1-1,.39,2.46,2.46,0,0,1-1.08-.07,3.73,3.73,0,0,1-1.11-.51,3.51,3.51,0,0,1-.85-.78,3.14,3.14,0,0,1-.5-1,2.72,2.72,0,0,1,1.25-3,2.65,2.65,0,0,1,1.1-.33,3,3,0,0,1,1.16.16,3.17,3.17,0,0,1,1.07.61Zm.91-2.88a1.78,1.78,0,0,0-.54-.21,1.7,1.7,0,0,0-.55,0,1.55,1.55,0,0,0-.52.19,1.27,1.27,0,0,0-.42.41,1.62,1.62,0,0,0-.23.56,1.32,1.32,0,0,0,0,.56,1.72,1.72,0,0,0,.23.52,1.9,1.9,0,0,0,.42.43Z" transform="translate(0 0)"/><path id="Path_28" data-name="Path 28" class="cls-4" d="M138.61,236.09h7.64l5.27-4.77H141V195.6l1.28-.57a2.7,2.7,0,0,0,1.53-2.43v-5.17a2.75,2.75,0,0,0-2.81-2.57v-4.5h36.09v4.49c-2.12,0-3.18,1.18-3.18,2.64v5a3,3,0,0,0,1.42,2.18l1.76,1v10l4.78-5.28v-6.06a2.92,2.92,0,0,0-1.42-2.17l-1.76-1v-1c2.12,0,3.18-1.18,3.18-2.64v-9.76c0-1.46-1.2-2.14-2.65-2.14H138.61c-1.45,0-2.88.68-2.88,2.14v9.76a2.88,2.88,0,0,0,2.85,2.64V191l-1.29.61a2.71,2.71,0,0,0-1.56,2.37V233.4a2.9,2.9,0,0,0,2.88,2.69" transform="translate(0 0)"/><path id="Path_29" data-name="Path 29" class="cls-4" d="M155.26,231.32,150,236.09h10.25l5.28-4.77Z" transform="translate(0 0)"/><path id="Path_30" data-name="Path 30" class="cls-4" d="M177.12,209.41v10.25l4.78-5.28V204.13Z" transform="translate(0 0)"/></g></g></g></g><g id="Group_12" data-name="Group 12"><g class="cls-6"><g id="Group_11" data-name="Group 11"><path id="Path_59" data-name="Path 59" class="cls-7" d="M132.16,37a8.28,8.28,0,1,1-8.28-8.28A8.27,8.27,0,0,1,132.16,37h0" transform="translate(0 0)"/><path id="Path_60" data-name="Path 60" class="cls-7" d="M97.56,25.89a8.28,8.28,0,1,1-8.28-8.28,8.29,8.29,0,0,1,8.28,8.28" transform="translate(0 0)"/><path id="Path_61" data-name="Path 61" class="cls-7" d="M132.16,8.28A8.28,8.28,0,1,1,123.88,0a8.28,8.28,0,0,1,8.28,8.28h0" transform="translate(0 0)"/><path id="Path_62" data-name="Path 62" class="cls-8" d="M51.17,42a8.28,8.28,0,1,1-8.29-8.28A8.28,8.28,0,0,1,51.17,42" transform="translate(0 0)"/><path id="Path_63" data-name="Path 63" class="cls-7" d="M16.56,30.92a8.28,8.28,0,1,1-8.28-8.28h0a8.28,8.28,0,0,1,8.28,8.28" transform="translate(0 0)"/><path id="Path_64" data-name="Path 64" class="cls-9" d="M51.17,13.31A8.28,8.28,0,1,1,42.88,5a8.28,8.28,0,0,1,8.29,8.28" transform="translate(0 0)"/></g></g></g></g></g></svg>