<svg xmlns="http://www.w3.org/2000/svg" viewBox="0 0 186.43 186.43"><defs><style>.cls-1{fill:#f7f3e8;}.cls-2{opacity:0.95;}.cls-3{fill:#adc3cd;}.cls-4{fill:#0a1633;}.cls-5{fill:#b76d4a;}.cls-6{fill:#88a1ae;}.cls-7{fill:#81301a;}</style></defs><g id="Layer_2" data-name="Layer 2"><g id="Layer_1-2" data-name="Layer 1"><circle class="cls-1" cx="93.21" cy="93.21" r="93.21"/><g class="cls-2"><path class="cls-3" d="M39,45.16,37.29,55.9l4.35.68a2.77,2.77,0,0,1-.56,3.58c-1.82,1.67-4.9,1.43-5.58,7.19s-8.91,63.89-8.91,63.89S48.64,146.92,75,137.61l10.85-69.2-3.27-4.67,3.83,1.09,1.65-10.5Z"/></g><path class="cls-1" d="M63.92,71a8.91,8.91,0,0,0,2.35,1.51,23.25,23.25,0,0,0,2.62,1.13,30.66,30.66,0,0,0,6,1.52A1,1,0,0,0,76,73.76a4.42,4.42,0,0,0-2.18-1.63,20.12,20.12,0,0,0-2.49-1,25,25,0,0,0-2.81-.81,6.65,6.65,0,0,1-2.16-.63l-.8,1.8a11.2,11.2,0,0,1,5,1.4c.73.41,1.43.87,2.18,1.23a16.39,16.39,0,0,1,2.24,1.06L76,73.41a23.19,23.19,0,0,0-2.91-1.33c-.81-.3-2-.9-2.84-.25l1-.1a16,16,0,0,0-1.46-.67A1,1,0,0,0,69,72.93l.69.34.85-1.87-1.36-.5c-.74-.27-1.84.45-1.38,1.31a2.5,2.5,0,0,0,1.44,1.23,1,1,0,0,0,1.07-1.72,6.46,6.46,0,0,0-1.68-1A1,1,0,0,0,67.22,72,3.77,3.77,0,0,0,69,73.81a1,1,0,1,0,.85-1.87,27.23,27.23,0,0,0-3.62-1.82c-.89-.37-1.93.71-1.25,1.54a9.52,9.52,0,0,0,4.81,2.68,33.85,33.85,0,0,0,6.34,1,1,1,0,0,0,.81-1.81c-1.25-1.29-3.25-1.79-4.91-2.29C70,70.58,67.89,70,65.82,69.39a1,1,0,0,0-1.17.86,1.06,1.06,0,0,0,.86,1.17c1.89.55,3.79,1.08,5.68,1.65,1.48.45,3.33.86,4.45,2l.81-1.81a37.67,37.67,0,0,1-5.8-.82,7.7,7.7,0,0,1-4-2L65.39,72A25.42,25.42,0,0,1,69,73.81l.85-1.87a1.58,1.58,0,0,1-.72-.65L67.75,72.6a4.4,4.4,0,0,1,1.23.7l1.07-1.72c-.11,0-.22-.11-.33-.15s-.19-.24,0,0L68.3,72.77l1.36.5a1,1,0,0,0,.85-1.87l-.69-.34L69,72.93a14.85,14.85,0,0,1,1.46.67,1,1,0,0,0,1-.11c-.44.06-.53.1-.26.12.12,0,.17,0,.13,0,.14,0,.31.1.46.15.4.14.79.29,1.18.45a22,22,0,0,1,2.19,1c1,.55,2-1.07,1.07-1.73a16.57,16.57,0,0,0-2.53-1.26c-.81-.38-1.56-.87-2.35-1.31a12.53,12.53,0,0,0-5.52-1.55,1.06,1.06,0,0,0-1.09.59A1,1,0,0,0,65,71.23c1.39,1,3.22,1,4.79,1.52a22.35,22.35,0,0,1,2.4.91,7,7,0,0,1,2.08,1.16L74,74.4l.06.11,1.11-1.39a28.28,28.28,0,0,1-5.42-1.35,24.47,24.47,0,0,1-2.47-1.06,7.51,7.51,0,0,1-2.06-1.31,1,1,0,0,0-1.44.14A1.05,1.05,0,0,0,63.92,71Z"/><path class="cls-1" d="M41.24,69.38a9.35,9.35,0,0,0,2.7.8,24.29,24.29,0,0,0,2.83.34,31.5,31.5,0,0,0,6.14-.22,1,1,0,0,0,.71-1.63,4,4,0,0,0-2.4-.94,21.69,21.69,0,0,0-2.66-.32,25.51,25.51,0,0,0-2.9,0,7.14,7.14,0,0,1-2.44,0l-.3,1.95a11.08,11.08,0,0,1,5-.12c.86.19,1.69.45,2.56.6a18.26,18.26,0,0,1,2.55.39l.58-2a24.43,24.43,0,0,0-3.17-.45c-.84-.06-2.23-.3-2.8.54l.95-.37c-.52-.1-1-.17-1.58-.22a1,1,0,0,0-.32,2l.76.13.31-2-1.44-.1a1,1,0,0,0-.81,1.81,2.45,2.45,0,0,0,1.55.61c1.1.08,1.71-1.47.58-2a6.49,6.49,0,0,0-1.89-.48,1,1,0,0,0-1,1.62,3.76,3.76,0,0,0,2.2,1.22,1,1,0,1,0,.32-2,26.57,26.57,0,0,0-4-.73c-.92-.1-1.71,1.21-.8,1.81A9.46,9.46,0,0,0,48,70.94a34,34,0,0,0,6.18-.85,1,1,0,0,0,.3-2c-1.61-.91-3.74-.81-5.53-.83-2.1,0-4.2,0-6.29,0a1,1,0,0,0-.91,1.13,1.06,1.06,0,0,0,1.14.91c2,0,3.93,0,5.89,0,1.56,0,3.46-.13,4.86.66l.31-2a38.17,38.17,0,0,1-5.61.84c-1.45.07-3.34.07-4.6-.77L43,69.93a25.45,25.45,0,0,1,4,.73l.32-2a1.72,1.72,0,0,1-.86-.4l-1,1.62a4.56,4.56,0,0,1,1.37.32l.58-2a.75.75,0,0,1-.57-.17L46,69.86l1.45.09a1,1,0,0,0,.31-2L47,67.8l-.32,2c.53.05,1.06.13,1.59.23a1,1,0,0,0,.95-.36c-.16.24-.34.14,0,.14l.41,0c.42,0,.84.05,1.26.1a21.41,21.41,0,0,1,2.4.38c1.11.23,1.69-1.58.58-2a17.34,17.34,0,0,0-2.79-.5c-1-.14-1.89-.44-2.84-.64a12.35,12.35,0,0,0-5.51.11,1.07,1.07,0,0,0-.9.86,1,1,0,0,0,.59,1.09c1.64.52,3.44.08,5.13.11a23.18,23.18,0,0,1,2.5.2c.41.06.83.13,1.24.21l.51.12c.2,0,.45.23.21-.06l.71-1.62a28.23,28.23,0,0,1-5.59.23,22.06,22.06,0,0,1-2.67-.31,7.6,7.6,0,0,1-2.33-.67,1,1,0,0,0-1.36.51,1,1,0,0,0,.51,1.36Z"/><path class="cls-4" d="M68.58,70.93a6,6,0,0,0,.47,2.25.77.77,0,0,0,.8.49.81.81,0,0,0,.67-.65,1.89,1.89,0,0,0-.14-1.32.8.8,0,0,0-.8-.48.79.79,0,0,0-.68.65,3.51,3.51,0,0,0,.17,1.4,2.7,2.7,0,0,0,.29.62,1.22,1.22,0,0,0,.4.35,1,1,0,0,0,.72,0,.73.73,0,0,0,.48-.59,2.53,2.53,0,0,0-.26-1.46.92.92,0,0,0-.31-.37.77.77,0,0,0-.49-.12.77.77,0,0,0-.67.65,3.58,3.58,0,0,0,.6,2.23.78.78,0,0,0,1.08.17,1.39,1.39,0,0,0,.42-1.43A6.94,6.94,0,0,0,71,72.06a.78.78,0,0,0-.7-.48.77.77,0,0,0-.72.45,2,2,0,0,0-.06,1A1.93,1.93,0,0,0,70,74a.77.77,0,0,0,.77.12.84.84,0,0,0,.48-.6,2.25,2.25,0,0,0-.34-1.85.78.78,0,0,0-1.38.33,2.53,2.53,0,0,0,.76,2.16.73.73,0,0,0,.76.12.76.76,0,0,0,.48-.59,3.24,3.24,0,0,0-.26-2,.76.76,0,0,0-1.47.16,2.64,2.64,0,0,0,.57,2.13.79.79,0,0,0,1.08.17A.78.78,0,0,0,71.63,73a1.58,1.58,0,0,1-.12-.15l-.06-.08c0-.07,0-.06,0,0a1.42,1.42,0,0,0-.08-.18,1.34,1.34,0,0,1-.07-.18c0-.08,0-.06,0,0a.29.29,0,0,1,0-.09,1.23,1.23,0,0,1,0-.19s0-.06,0-.1v.07l0-.19-1.48.16a2.54,2.54,0,0,1,.16.38.24.24,0,0,0,0,.08s0,0,0-.07,0,.17,0,.2a2.3,2.3,0,0,1,0,.36v0a.41.41,0,0,0,0,.11,1.77,1.77,0,0,1,0,.2l1.25-.48c.16.17,0,0,0,0s-.08-.14-.1-.15.06.12,0,.07a.09.09,0,0,1,0-.07.87.87,0,0,1-.07-.17l0-.09c0,.12,0,.14,0,.06l0-.14a.55.55,0,0,0,0-.18c0,.12,0,.15,0,.06a.28.28,0,0,1,0-.09l-1.38.33c.1.15,0,0,0,0s0,.1.06.13,0,.13.05.13,0-.13,0,0a.17.17,0,0,1,0,.07s0,.09,0,.14,0-.09,0,0,0,.2-.06.3L71,72.76s.1.11,0,0-.06-.12,0,0,0,0,0,0v0c0,.11,0,0,0,0s0-.08,0-.11,0,.18,0,.07.06-.2,0,0l-1.42,0,.15.42.06.21c0,.09,0,0,0,0a.7.7,0,0,1,0,.14c0,.14,0,.27.07.41h0c0-.14,0,0,0,0s.06-.14,0-.07,0,0,0,0a.45.45,0,0,1,.11-.13l1.08.17s-.12-.15-.11-.17.06.11,0,0l0-.09a2.46,2.46,0,0,1-.14-.38c0-.08,0-.06,0,.05a.36.36,0,0,1,0-.1.64.64,0,0,1,0-.2,1.23,1.23,0,0,1,0-.2v-.1q0,.18,0,.06l-1.48.16a2,2,0,0,1,.1.21l0,.12c0,.14,0-.1,0,0a1.81,1.81,0,0,1,0,.23s0,.07,0,.11v-.08s0,.05,0,.08l.48-.6h0l.4,0a.54.54,0,0,1,.32.18c.06.11.07.12,0,0a.61.61,0,0,1-.07-.14l-.06-.17,0-.08c0-.08,0-.06,0,.05a.9.9,0,0,1,0-.36.92.92,0,0,1,0-.16c0-.09,0-.07,0,0a.41.41,0,0,0,0-.11L69,72.27s0,.12.08.18,0,0,0,0l0,.12a.34.34,0,0,0,0,.1c0,.09,0-.15,0-.06s0,.15,0,.22l1.48-.16a4.68,4.68,0,0,1-.18-.48c0-.07,0-.18-.06-.23l0,.08a.19.19,0,0,1,0-.07l0-.14a5,5,0,0,1-.1-1,.78.78,0,0,0-.85-.68.79.79,0,0,0-.68.85Z"/><path class="cls-4" d="M47.5,66.65a6.38,6.38,0,0,0-1.06,2.27.74.74,0,0,0,.35.76.77.77,0,0,0,.86,0,2.08,2.08,0,0,0,.78-1.3.79.79,0,0,0-.45-.82.8.8,0,0,0-.91.21,3.29,3.29,0,0,0-.64,1.14,2.19,2.19,0,0,0-.14.81.9.9,0,0,0,.55.81.82.82,0,0,0,.92-.21A2.59,2.59,0,0,0,48.38,69,.77.77,0,0,0,47,68.35a3.46,3.46,0,0,0-.79,2,.78.78,0,0,0,.85.88c.55,0,.89-.49,1.12-.93A6.55,6.55,0,0,0,48.68,69a.76.76,0,0,0-.35-.77.79.79,0,0,0-.86,0,1.79,1.79,0,0,0-.72,1.66.77.77,0,0,0,1.22.53,2.23,2.23,0,0,0,.91-1.64.79.79,0,0,0-.44-.82.8.8,0,0,0-.91.21,2.49,2.49,0,0,0-.65,2,.79.79,0,0,0,.45.61.76.76,0,0,0,.77-.08,3.46,3.46,0,0,0,1.1-1.92.78.78,0,0,0-.44-.82.83.83,0,0,0-.92.21,2.69,2.69,0,0,0-.75,2.09.77.77,0,0,0,.85.68.79.79,0,0,0,.67-.85V70c0,.11,0,.13,0,0a.88.88,0,0,1,0-.16,1.16,1.16,0,0,1,0-.18c0-.06,0,0,0,.06l0-.1.07-.15,0-.09c-.06.09-.06.1,0,0a3.22,3.22,0,0,1,.24-.28l-1.35-.61c0,.07,0,.13,0,.2s0,0,0-.06a.41.41,0,0,1,0,.08,2.41,2.41,0,0,1-.15.33c-.08.17.1-.12,0,0l-.1.14-.11.13s-.21.21-.06.07l1.22.53c0-.06,0-.12,0-.19v0l0-.19v0c0-.09,0-.07,0,0,.07-.06,0-.24.14-.3l0,0,0,0,.15-.16-1.36-.61a1.45,1.45,0,0,1,0,.29c0,.1.06-.15,0,0a1,1,0,0,0-.07.15c-.06.13.07-.08,0,0a1,1,0,0,1-.08.11s-.1.09-.11.12l.07-.06-.09.06,1.22.54s0-.08,0-.1,0,.14,0,.08v0a.3.3,0,0,0,0-.1c0-.08-.08.17,0,0a.36.36,0,0,0,0-.09s-.09.12,0,0,.12-.12,0,0l0,0-1.21-.74c0,.09,0,.08,0,0l0,.12a1.22,1.22,0,0,1-.07.17,3.38,3.38,0,0,1-.18.44,1.74,1.74,0,0,1-.1.19l-.06.11c0,.06,0,.06,0,0s0-.06,0,0,0,0,0,0c-.07,0,0,0,.06,0s.15,0,.06,0l.85.89a2.7,2.7,0,0,1,.05-.41s.06-.25,0-.13,0-.1,0-.12a2.53,2.53,0,0,1,.18-.37c.07-.14-.09.11,0,0l.14-.19-1.36-.6s0,.21,0,.22.06-.14,0,0,0,.09,0,.13l-.06.11c0,.09.08-.11,0,0s-.11.14-.17.2l.92-.21c.25.52.36.66.34.43,0,.14,0,.17,0,.1a1.13,1.13,0,0,0,0-.18c0-.2,0,.1,0,0l.06-.16a1.59,1.59,0,0,1,.16-.32c-.11.15,0,0,0,0l.15-.19-1.35-.6s0,.07,0,.11c0-.11,0-.12,0,0s0,.13-.08.15.07-.1,0,0l-.05.07-.07.08c.07-.07.08-.08,0,0l1.22.74s.06-.3,0-.1a1.55,1.55,0,0,1,.08-.23c.06-.16.12-.31.19-.46a3.75,3.75,0,0,1,.24-.44c0-.07,0-.07,0,0a.61.61,0,0,1,.07-.1l.14-.21a.77.77,0,0,0-1.19-1Z"/><path class="cls-1" d="M56.61,86.94l-.44-.08a4.09,4.09,0,0,1-3.4-3.61,1,1,0,0,1,2-.12,2.06,2.06,0,0,0,1.79,1.72,2.71,2.71,0,0,0,2.1-.18,1.56,1.56,0,0,0,.61-.9,1,1,0,0,1,2,.32,3.61,3.61,0,0,1-1.48,2.27A4.39,4.39,0,0,1,56.61,86.94Z"/><path class="cls-5" d="M58,69.65a13.3,13.3,0,0,0-.16,4.83,1,1,0,0,0,2,.31,7.37,7.37,0,0,0,.53-4.32,1,1,0,0,0-2-.31A12.53,12.53,0,0,0,57,75.06a1,1,0,0,0,.72,1.13,1,1,0,0,0,1.23-.55,13.24,13.24,0,0,0,.72-5.15,1,1,0,0,0-1-.9,1,1,0,0,0-1,.86,24,24,0,0,0-.69,3.37,9.67,9.67,0,0,0,0,3.22,1,1,0,0,0,1.13.91c1.26-.26,1.44-1.5,1.63-2.59a15.87,15.87,0,0,0,.16-3.51,1,1,0,0,0-2-.31,13.11,13.11,0,0,0-.67,6.68,1,1,0,0,0,2,.31,8,8,0,0,0,.66-4.8c-.16-.91-1.58-1.32-2-.3a12.38,12.38,0,0,0-.73,5.12,1,1,0,0,0,2,.3A7,7,0,0,0,59.73,75a1,1,0,0,0-1.95-.31,9.72,9.72,0,0,0-1,4.59,1,1,0,0,0,.86.9,1.06,1.06,0,0,0,1.09-.59,5.15,5.15,0,0,0,.66-3.26,1,1,0,0,0-2-.31,5.92,5.92,0,0,0-.68,3.55,1,1,0,0,0,1.81.54,4,4,0,0,0,.31-4.52,1,1,0,0,0-1.63,0,4.78,4.78,0,0,0-.7,4.31c.29.92,1.49.74,1.89,0a5.66,5.66,0,0,0,.36-4.69,1,1,0,0,0-1.75-.27,5.14,5.14,0,0,0-1,4.71c.25.9,1.54.78,1.89.05a12.42,12.42,0,0,0,1.25-6.11,1,1,0,0,0-2-.31,8.48,8.48,0,0,0-.79,4.52,1,1,0,0,0,2,.3,17,17,0,0,0,1-6.91,1,1,0,0,0-2-.31,18.25,18.25,0,0,0-1.1,3.9c-.19,1.11,1.57,1.7,1.94.58a14.71,14.71,0,0,0,.78-4.88c0-1-1.58-1.19-2-.3a6.88,6.88,0,0,0-.54,3,1,1,0,0,0,1.82.53,5.55,5.55,0,0,0,1.11-3,1,1,0,0,0-.73-1.13,1,1,0,0,0-1.22.55,35.74,35.74,0,0,0-1.33,5.7c-.22,1.54-.73,3.82.67,5a1.55,1.55,0,0,0,2.36-.45,6.38,6.38,0,0,0,.49-2.56,20.07,20.07,0,0,0-.34-5.58,1.07,1.07,0,0,0-1.14-.91,1,1,0,0,0-.9,1.14,18.81,18.81,0,0,1,.4,4.16,17,17,0,0,1-.16,2c0,.23-.13.55-.13.73s.7.08.7-.16c0,0-.11-.24-.12-.29a4.75,4.75,0,0,1,0-1.55c.08-.73.19-1.46.31-2.18a32,32,0,0,1,1-4.19l-2-.58a3.56,3.56,0,0,1-.67,2.05l1.81.54A4.31,4.31,0,0,1,59.12,71l-2-.31a11.74,11.74,0,0,1-.61,3.81l2,.58a16.39,16.39,0,0,1,1-3.37l-2-.31a14.72,14.72,0,0,1-.87,5.84l1.95.3a6.43,6.43,0,0,1,.61-3.43l-1.95-.31a10.24,10.24,0,0,1-1.08,5l1.89,0a3,3,0,0,1,.63-2.67l-1.75-.28A3.62,3.62,0,0,1,56.61,79l1.89,0a2.59,2.59,0,0,1,.38-2.27l-1.62,0a1.85,1.85,0,0,1-.23,2l1.81.53a4,4,0,0,1,.51-2.47l-2-.31a3.32,3.32,0,0,1-.49,2.19l2,.3a7.67,7.67,0,0,1,.78-3.52l-2-.3A4.88,4.88,0,0,1,57.24,78l1.95.3a9.94,9.94,0,0,1,.57-4L57.81,74a6.09,6.09,0,0,1-.5,3.71l1.95.31a11,11,0,0,1,.5-5.61l-1.95-.3a12.63,12.63,0,0,1-.06,2.3,10.63,10.63,0,0,1-.18,1.13,3.73,3.73,0,0,0-.12.56c0,.21-.05,0,0,0l.49-.19-.11,0,1.13.9a8.38,8.38,0,0,1,0-2.87,24.94,24.94,0,0,1,.66-3.18l-2,0a10.59,10.59,0,0,1-.55,4.07l1.95.59A10.75,10.75,0,0,1,60.23,71l-2-.31a5.37,5.37,0,0,1-.35,3.24l1.95.31A11.69,11.69,0,0,1,60,70c.28-1.29-1.74-1.6-2-.31Z"/><path class="cls-6" d="M76.24,56.54,77.8,67.47l6.34-.9a2.24,2.24,0,0,1,.52,3.65c-2,2.25-6.35,3.13-5.2,8.91s10.81,64.64,10.81,64.64,36.6,7.19,70.21-11.23l-10-70.45-6.29-3.31,5.77-.33-1.52-10.69Z"/><path class="cls-1" d="M123.42,71.47a10.42,10.42,0,0,0,3.51,1.94,25.58,25.58,0,0,0,4,1.11,25.2,25.2,0,0,0,8.4.12,1,1,0,0,0,.79-1.42c-.59-1.14-2.1-1.59-3.24-2a20.82,20.82,0,0,0-3.73-1,21.19,21.19,0,0,0-3.9-.25c-.95,0-2.23.28-3.1-.24L126,71.54a9.23,9.23,0,0,1,6.88.54,30.23,30.23,0,0,0,3.25,1.43,14.74,14.74,0,0,1,3.33,1.08l1-1.77a23.84,23.84,0,0,0-4.38-1.34c-1.12-.23-3.3-.77-3.77.78l1.33-.56a15.8,15.8,0,0,0-2.43-.73c-1.13-.25-1.61,1.59-.52,2l1,.36.52-2-2-.35c-.71-.13-1.47.75-1.07,1.42a3.16,3.16,0,0,0,2.3,1.59,1,1,0,0,0,.74-1.84,7.1,7.1,0,0,0-2.75-1.25,1,1,0,0,0-1.07,1.42,5.39,5.39,0,0,0,2.75,2.49c1.23.51,1.94-1.32.77-1.9a27.14,27.14,0,0,0-5.74-2.07c-.87-.22-1.5,1-.93,1.65,4,4.46,10.71,3.16,15.8,1.82a1,1,0,0,0,.47-1.84c-1.79-1.73-4.48-2.07-6.85-2.3-3-.29-6-.45-9-.65-1.32-.09-1.58,1.94-.27,2,2.87.2,5.75.35,8.62.61,2.15.2,4.63.37,6.27,2l.47-1.83a26.27,26.27,0,0,1-8.15,1.26,8.34,8.34,0,0,1-5.76-2.32l-.93,1.65a25.11,25.11,0,0,1,5.23,1.94l.77-1.9a3.17,3.17,0,0,1-1.64-1.4l-1.07,1.42a4.83,4.83,0,0,1,1.78.86l.75-1.84a1,1,0,0,1-.68-.36L130,73l2,.36a1,1,0,0,0,.52-2l-1-.36-.52,2a11.82,11.82,0,0,1,1.92.59,1,1,0,0,0,1.34-.56l-.15.15c-.2.07-.23.1-.11.07a1.11,1.11,0,0,0,.19,0,5.78,5.78,0,0,1,.68.09c.58.1,1.15.21,1.73.35a19.58,19.58,0,0,1,3.14,1c1,.43,2-1.15,1-1.77a15.52,15.52,0,0,0-3.7-1.31,34.79,34.79,0,0,1-3.65-1.6,11.2,11.2,0,0,0-8.15-.38,1,1,0,0,0-.21,1.76,6.08,6.08,0,0,0,3.46.67,25,25,0,0,1,3.46.07,19.24,19.24,0,0,1,3.44.69c.56.17,1.1.36,1.64.58l.86.38.37.19c.1,0,.19.23.09,0l.8-1.43a23.5,23.5,0,0,1-7.67-.09,21.65,21.65,0,0,1-3.53-1,9.3,9.3,0,0,1-3.22-1.73,1,1,0,0,0-1.43.2,1,1,0,0,0,.2,1.43Z"/><path class="cls-4" d="M129.13,70.31a5.26,5.26,0,0,0,1.28,3.89,1,1,0,0,0,1.75-.25,2.78,2.78,0,0,0,.12-1.46l0-.25a.62.62,0,0,1,0-.13c0-.2,0,.1,0,.11s.07-.38,0-.15,0,0,0,0-.17.25,0,.07l-1.76-.21c.39.83.81,1.64,1.28,2.43a1.11,1.11,0,0,0,.55.54,1,1,0,0,0,.67,0,1,1,0,0,0,.54-.36,1.19,1.19,0,0,0,.19-.76,5.64,5.64,0,0,0-.39-1.94,5,5,0,0,0-1-1.65,1.65,1.65,0,0,0-1.41-.59,1.6,1.6,0,0,0-1.19,1,3,3,0,0,0,.34,2.38,4.8,4.8,0,0,0,.49,1.05,1.49,1.49,0,0,0,1.14.69,1.11,1.11,0,0,0,.77-.22,1,1,0,0,0,.38-.67,1.06,1.06,0,0,0-.21-.77,1.09,1.09,0,0,0-.68-.38c-.21,0,.07,0,.16.08s.1.06,0,0l.08.08c-.06-.09-.06-.16,0,.06l-.07-.14c-.13-.26-.22-.55-.33-.82s-.13-.31-.19-.47l0-.1c0-.08,0-.05,0,.09a1.42,1.42,0,0,1,0-.2c0,.15,0,.18,0,.06s0-.07,0,.09c.05-.17-.14.18,0,0a.35.35,0,0,1-.17.15c-.08,0-.09,0,0,0a.62.62,0,0,1-.53,0h0c-.08,0-.09,0,0,0-.12-.12-.14-.14-.07-.06l.12.14.24.34c.14.22-.08-.15,0,0l.09.17a3.39,3.39,0,0,1,.18.39l.08.21s0,.16.06.19c0-.16-.05-.18,0-.07V73a1.89,1.89,0,0,1,0,.23,5.16,5.16,0,0,1,.1.88l2-.55c-.47-.79-.89-1.6-1.28-2.43a1,1,0,0,0-1.76-.21,2.14,2.14,0,0,0-.36,1.61c0,.19.05.38.06.56s0,.21,0,0,0,0,0,0a.35.35,0,0,1,0,.14s.09-.26,0-.08l1.75-.24a3.92,3.92,0,0,1-.25-.32,1.09,1.09,0,0,1-.13-.17c0-.07-.11-.24,0,0-.11-.24-.24-.46-.33-.71l-.06-.18c0-.08,0,0,0,.11l0-.12c0-.12,0-.24-.07-.37s0-.25,0-.38,0,.23,0,0,0-.17,0-.26a1,1,0,0,0-2-.26Z"/><path class="cls-1" d="M92.52,78.86a10.85,10.85,0,0,0,4.16.54,23.77,23.77,0,0,0,4-.43,25.28,25.28,0,0,0,7.8-2.92,1,1,0,0,0,.21-1.76c-.89-.77-2.5-.59-3.58-.57a19.71,19.71,0,0,0-3.75.45,21.29,21.29,0,0,0-3.64,1.13c-1,.42-2.16,1.16-3.32,1l.5,1.82A9.09,9.09,0,0,1,101.36,76c1.26.06,2.51.2,3.78.15a17.39,17.39,0,0,1,3.67-.19l.26-2a23.85,23.85,0,0,0-4.77.36c-1.27.24-3.27.54-3.13,2.26l1.15-1.16a16.73,16.73,0,0,0-2.55.18,1,1,0,0,0,.29,2l1.1,0-.29-2-2,.39a1,1,0,0,0-.47,1.83,3.06,3.06,0,0,0,2.5.56,1.06,1.06,0,0,0,.87-.89,1,1,0,0,0-.63-1.08,7.33,7.33,0,0,0-3-.21A1,1,0,0,0,97.69,78a5.1,5.1,0,0,0,3.23,1.21,1.06,1.06,0,0,0,1.15-.89,1,1,0,0,0-.89-1.15,27.76,27.76,0,0,0-6.11.15,1,1,0,0,0-.24,2,10.4,10.4,0,0,0,7.83.13A28,28,0,0,0,110.2,75a1,1,0,0,0-.25-1.76c-2.48-1-5.22-.27-7.68.44-2.83.82-5.62,1.76-8.43,2.65a1,1,0,0,0,.82,1.88c2.62-.83,5.23-1.7,7.86-2.48,2.06-.61,4.55-1.46,6.66-.59l-.25-1.75a27.7,27.7,0,0,1-6.77,4,8.39,8.39,0,0,1-6.56,0l-.24,2a24.62,24.62,0,0,1,5.56-.14l.26-2a3.34,3.34,0,0,1-2.26-.81l-.47,1.84a4.8,4.8,0,0,1,2,.08l.24-2a1.07,1.07,0,0,1-1-.17l-.47,1.84,2-.39a1,1,0,0,0-.29-2l-1.1,0,.29,2a13.38,13.38,0,0,1,2-.18,1,1,0,0,0,1.15-1.16l-.17.48.1-.08s.09,0,.12,0,.45-.11.66-.16c.55-.12,1.1-.22,1.66-.3a20.58,20.58,0,0,1,3.24-.2,1,1,0,0,0,.26-2,17.77,17.77,0,0,0-4.12.19c-1.3.06-2.59-.15-3.89-.17a11,11,0,0,0-7.39,2.55,1,1,0,0,0,.5,1.82,6.23,6.23,0,0,0,3.46-.72A21.63,21.63,0,0,1,101,76.37a20.19,20.19,0,0,1,3.45-.57c.57,0,1.13-.06,1.69,0,.38,0,1.11-.08,1.41.18l.2-1.76a23.18,23.18,0,0,1-7.09,2.73,22.7,22.7,0,0,1-3.68.45A9.14,9.14,0,0,1,93.29,77a1,1,0,0,0-.77,1.9Z"/><path class="cls-4" d="M99.93,73.62a5.22,5.22,0,0,0-.74,4,1.09,1.09,0,0,0,.63.81,1,1,0,0,0,1-.15,2.58,2.58,0,0,0,.8-1.2c.06-.16.14-.31.2-.47-.08.22-.1.16,0,.07s.13-.14,0,0,0,0,0,0-.23.12-.07,0l-1.42-1.07c-.06,1-.06,2,0,3a1,1,0,0,0,.88.87,1.07,1.07,0,0,0,1.08-.63,5.74,5.74,0,0,0,.63-2.44c0-1-.11-2.5-1.4-2.67a1.69,1.69,0,0,0-1.55.75A3.2,3.2,0,0,0,99.52,76a8.42,8.42,0,0,0-.12,1.42,1.83,1.83,0,0,0,.16.65,1.61,1.61,0,0,0,.74.72,1,1,0,0,0,.8,0,1,1,0,0,0,.53-1.34,1.2,1.2,0,0,0-.55-.54c.27.24.36.3.27.19s0,0,.07.11,0,.17,0,.05,0,.24,0,0a.76.76,0,0,1,0-.15c0-.32.07-.63.11-1l.06-.45c0-.19-.06.12,0,0a.3.3,0,0,1,0-.1c0-.08,0-.09,0,0s0,.07,0,0l-.09.1c.15-.14-.19.09,0,0a.61.61,0,0,1-.77-.28c.09.17,0-.23,0,0l0,.16c0,.14,0,.27,0,.4s0,.17,0,.22v0c0,.15,0,.3,0,.44s0,.26-.07.4a.47.47,0,0,1,0,.17c0-.13,0-.15,0,0l0,.07a5.73,5.73,0,0,1-.33.81l2,.25c0-.22,0-.45,0-.67v-.47c0-.45,0-.89,0-1.34a1,1,0,0,0-1.42-1.07,2.13,2.13,0,0,0-1.09,1.23c-.08.18-.13.35-.21.52l-.06.12c0,.11.14-.21,0-.08a.76.76,0,0,0-.08.11c0-.06.19-.17,0,0l1.65.65a4,4,0,0,1-.12-.77v0a.91.91,0,0,1,0-.17,3,3,0,0,1,0-.42,1.42,1.42,0,0,1,0-.2s0-.24,0-.07,0,0,0-.08l.06-.19c0-.13.11-.26.17-.39a.61.61,0,0,1,.09-.18l-.06.1a1,1,0,0,1,.08-.11,1.06,1.06,0,0,0-.21-1.44,1,1,0,0,0-1.43.2Z"/><path class="cls-7" d="M116.65,74.79s-2.58,2.33-3,3.55-1.42,2.61-1.59,4.47-.4,5.31,1.2,6,2.76.63,3.93-.26a7.36,7.36,0,0,0,2.64-5.44,34,34,0,0,0-1.13-5.79Z"/><path class="cls-7" d="M98.65,126.2s-2.58,2.33-3,3.55-1.42,2.61-1.59,4.47-.4,5.31,1.2,6,2.76.64,3.93-.26a7.34,7.34,0,0,0,2.64-5.44,34,34,0,0,0-1.13-5.79Z"/><path class="cls-7" d="M104,132.3s1,3.33,1.89,4.23,1.73,2.42,3.33,3.38,4.6,2.68,5.9,1.53,1.77-2.21,1.48-3.66a7.31,7.31,0,0,0-3.75-4.74,33.37,33.37,0,0,0-5.7-1.51Z"/><path class="cls-7" d="M112.94,128.31s1,3.33,1.89,4.22,1.73,2.42,3.33,3.39,4.6,2.67,5.9,1.52,1.77-2.2,1.48-3.65a7.31,7.31,0,0,0-3.75-4.74,32.78,32.78,0,0,0-5.7-1.52Z"/><path class="cls-7" d="M131.61,126.84s-3,1.77-3.62,2.89-1.92,2.27-2.45,4.06-1.45,5.12,0,6.09a3.57,3.57,0,0,0,3.91.53,7.39,7.39,0,0,0,3.66-4.81,33,33,0,0,0,0-5.9Z"/><path class="cls-7" d="M98.9,120.07s1,3.33,1.9,4.23,1.72,2.42,3.32,3.38,4.61,2.68,5.9,1.53,1.77-2.21,1.48-3.66a7.33,7.33,0,0,0-3.74-4.74,33.63,33.63,0,0,0-5.71-1.51Z"/><path class="cls-7" d="M93.55,131.16s2-2.87,2.06-4.15.77-2.87.5-4.72-.86-5.25-2.57-5.52-2.83,0-3.76,1.18a7.38,7.38,0,0,0-1.29,5.9A33.42,33.42,0,0,0,91,129.21Z"/><path class="cls-1" d="M119.75,97.44l-.88.1a8.11,8.11,0,0,1-6.29-1.83,6.5,6.5,0,0,1-1.72-2.33,1,1,0,0,1,1.91-.74c.07.15,1.38,3.25,5.92,2.85,2.45-.21,4.19-.94,5.17-2.17a4,4,0,0,0,.85-2.73,1,1,0,1,1,2-.29,6.08,6.08,0,0,1-1.28,4.3A8.52,8.52,0,0,1,119.75,97.44Z"/></g></g></svg>