<svg xmlns="http://www.w3.org/2000/svg" viewBox="0 0 186.43 186.43"><defs><style>.cls-1{fill:#f7f3e8;}.cls-2{fill:#adc3cd;}.cls-3{fill:#859087;}.cls-4{fill:#81301a;}</style></defs><g id="Layer_2" data-name="Layer 2"><g id="Layer_1-2" data-name="Layer 1"><circle class="cls-1" cx="93.21" cy="93.21" r="93.21"/><ellipse class="cls-2" cx="94.75" cy="92.98" rx="77" ry="73.9"/><path class="cls-3" d="M65.18,24.73c1-.27,16.17,3.22,11.37,16s6.72,15.69,6.72,15.69L44.2,72.79,53.81,83S26.9,98.42,28.18,108.67s8.33,21.45,8.33,21.45,12.49,9.61,16.66,8,4.48,4.81,4.48,6.09,4.8,8,5.76,9S91,149.66,91,149.66s7.36,10.25,8,11.53,3.2,5.69,3.2,5.69-42.36,5.73-69.54-30.24-10-71.94-4.49-82.15C28.14,54.49,46.55,29.64,65.18,24.73Z"/><path class="cls-3" d="M141.17,34l-9.86,7.07,4.93,8h6.28c2.25,3.85,2.25,9.93,2.25,9.93l-5.13,3.85L138,67.35l6.73,2.24h7.36v4.49l-10.41,8.64,2.08,5.77h3.53l4.8-1.28,9-6.73v3.84l-8,11.65c-3.52,5.65-3.2,7.89-3.2,7.89l4.8,1.92h10.89l3.53-3.2,2,.1S178.58,60.26,141.17,34Z"/><path class="cls-3" d="M135.87,85.89l2.24-5.83-2.24-6.29-3.82-2.63-1.79-1.24V67l-3.15,1.12v3.37l2,2v2.91l-2,7.41S133.62,91.73,135.87,85.89Z"/><path class="cls-3" d="M169.33,111.46s-31.63-7.39-32.14-5.68-4.58,7.59-4.58,7.59.9,5.87,2.49,5.87,7.71,3.07,7.71,3.07l-.26,6.64-7.45,3.32-.86,3.83,2.69,2.81,1.18,6.38-11,4.09s-1.67-2.3-2.18-1.53a43.19,43.19,0,0,0-1.79,5.35v2.56a37.47,37.47,0,0,0-4.24,7.41S156.77,154.24,169.33,111.46Z"/><rect class="cls-4" x="31.51" y="45.97" width="3.78" height="8.9" transform="translate(-23.88 31.01) rotate(-37.76)"/><rect class="cls-4" x="42.1" y="57.98" width="3.78" height="7.26" transform="translate(-31.47 67.64) rotate(-59.03)"/><rect class="cls-4" x="55.21" y="68.39" width="3.78" height="6.86" transform="translate(-34.38 78.86) rotate(-55.91)"/><rect class="cls-4" x="69.32" y="76.51" width="3.78" height="10.02" transform="translate(-33.16 110.21) rotate(-64.23)"/><rect class="cls-4" x="85.97" y="82.36" width="3.78" height="9.52" transform="translate(-14.77 156.23) rotate(-78.71)"/><rect class="cls-4" x="100.92" y="87.33" width="8.71" height="3.78"/><rect class="cls-4" x="118.9" y="87.33" width="8.21" height="3.78"/><rect class="cls-4" x="138.1" y="86.96" width="9.24" height="3.78" transform="translate(-6.59 11.59) rotate(-4.54)"/><rect class="cls-4" x="150.12" y="78.73" width="8.19" height="3.78" transform="translate(-8.12 143.31) rotate(-48.72)"/><rect class="cls-4" x="158.26" y="65.76" width="9.68" height="3.78" transform="translate(22.12 173.97) rotate(-59.55)"/></g></g></svg>