<svg xmlns="http://www.w3.org/2000/svg" xmlns:xlink="http://www.w3.org/1999/xlink" viewBox="0 0 516.22 537.91"><defs><style>.cls-1{fill:none;}.cls-2{clip-path:url(#clip-path);}.cls-3{fill:#8c9bb9;}.cls-4{fill:#f7f0e3;}</style><clipPath id="clip-path" transform="translate(0.01 0)"><rect class="cls-1" width="516.22" height="537.91"/></clipPath></defs><g id="Layer_2" data-name="Layer 2"><g id="Layer_1-2" data-name="Layer 1"><g class="cls-2"><g id="Group_19" data-name="Group 19"><path id="Path_68" data-name="Path 68" class="cls-3" d="M511.52,314.15S300.21-71.19,47.45,11.68c0,0-128.44,107.73,37.29,219.61,0,0,122.43-41.44,171,41.43s3,124.3,36.15,174,149.17,128.87,194.74,70.64,24.87-203.24,24.87-203.24" transform="translate(0.01 0)"/><path id="Path_69" data-name="Path 69" class="cls-3" d="M355.73,434.74c-20.88,20.88-93.93-18.35-163.18-87.59S84.1,204.85,105,184s93.92,18.33,163.18,87.58,108.44,142.3,87.58,163.17" transform="translate(0.01 0)"/><path id="Path_70" data-name="Path 70" class="cls-4" d="M212.18,269.51c24.45,24.47,40.35,48.24,35.49,53.1s-28.64-11-53.1-35.48S154.21,238.89,159.08,234s28.64,11,53.1,35.49" transform="translate(0.01 0)"/></g></g></g></g></svg>