<svg xmlns="http://www.w3.org/2000/svg" viewBox="0 0 186.43 186.43"><defs><style>.cls-1{fill:#f7f3e8;}.cls-2{fill:#81301a;}.cls-3{fill:#0a1633;}.cls-4{fill:#c09f59;}.cls-5{fill:#b76d4a;}</style></defs><g id="Layer_2" data-name="Layer 2"><g id="Layer_1-2" data-name="Layer 1"><circle class="cls-1" cx="93.21" cy="93.21" r="93.21"/><path class="cls-2" d="M100.36,170.07S11.77,52.33,44.29,36.64s47.1,50.45,47.1,50.45,19.06-77.37,41.48-60.55S100.36,170.07,100.36,170.07Z"/><path class="cls-1" d="M70.44,89.1a25.18,25.18,0,0,1,12.11,2.09A25.38,25.38,0,0,1,71,95.55,25.23,25.23,0,0,1,58.9,93.46,25.45,25.45,0,0,1,70.44,89.1Z"/><path class="cls-3" d="M69.26,89.29a5.64,5.64,0,0,0-1.38,4.14,1.09,1.09,0,0,0,.52.89,1,1,0,0,0,1,0,2.75,2.75,0,0,0,1-1.15c.09-.15.21-.31.28-.46-.08.19-.12.14,0,.05s.15-.13,0,0,0,0,0,0-.24.09-.06,0L69.39,91.5c-.21,1.06-.36,2.14-.47,3.21a1,1,0,0,0,.75,1,1.08,1.08,0,0,0,1.17-.47,6.1,6.1,0,0,0,1-2.5c.17-1.06.28-2.63-1-3a1.73,1.73,0,0,0-1.71.54,3.5,3.5,0,0,0-.65,1.49,9.6,9.6,0,0,0-.34,1.48,1.67,1.67,0,0,0,.72,1.55,1,1,0,0,0,.79.1,1.09,1.09,0,0,0,.62-.47A1.07,1.07,0,0,0,69.9,93c.23.28.31.35.23.23s0,0,.05.11,0,.15,0,0-.06.23,0,0a.75.75,0,0,1,0-.16c.08-.34.17-.67.26-1,0-.16.09-.31.13-.47s-.06.1,0,0a.31.31,0,0,1,0-.1c0-.08.06-.09,0,0s-.05.06,0,0l-.1.08c.17-.13-.19.05,0,0a.56.56,0,0,1-.69-.36c.07.19,0-.22,0,0,0,.06,0,.12,0,.18s0,.29,0,.43a1.94,1.94,0,0,1,0,.24c.08-.23,0,0,0,0a4,4,0,0,1-.11.47,3.24,3.24,0,0,1-.13.41.73.73,0,0,1-.07.19c.13-.22,0,0,0,0a6.07,6.07,0,0,1-.48.82l1.92.52c0-.23,0-.47.08-.71l0-.18c0,.12,0,.13,0,0l.06-.36c.07-.48.15-1,.25-1.42a1.09,1.09,0,0,0-.27-1,1.07,1.07,0,0,0-1-.27,2.24,2.24,0,0,0-1.3,1.12c-.11.17-.2.36-.31.53l-.07.11c-.07.1.16-.18,0-.06s-.1.08-.11.11.2-.14,0,0l1.55.9a4.84,4.84,0,0,1,0-.85s0-.08,0-.12c0,.14,0,.17,0,.09s0-.12,0-.18a3,3,0,0,1,.11-.43,1.42,1.42,0,0,1,.07-.22l0-.08c-.06.14,0-.06,0-.09s.07-.13.1-.2.15-.26.23-.38a1.56,1.56,0,0,1,.14-.19l-.07.09.09-.11a1,1,0,1,0-1.46-1.47Z"/><path class="cls-1" d="M110.61,88.92a25.28,25.28,0,0,1,11,5.49,25.49,25.49,0,0,1-12.31.86,25.2,25.2,0,0,1-11-5.48A25.53,25.53,0,0,1,110.61,88.92Z"/><path class="cls-3" d="M107.14,89.58a5.62,5.62,0,0,0,.76,4.3,1.06,1.06,0,0,0,1.79,0,2.92,2.92,0,0,0,.34-1.51,2.62,2.62,0,0,1,0-.28V92c0-.19,0,.05,0,.09a.4.4,0,0,1,0-.15s.07-.19,0,0,0,0,0,0-.18.19,0,.05l-1.73-.45c.29,1,.63,1.88,1,2.8a1.06,1.06,0,0,0,1.13.74,1,1,0,0,0,.59-.29,1.21,1.21,0,0,0,.31-.73,6.51,6.51,0,0,0-.12-2.11,5.47,5.47,0,0,0-.8-1.91,1.68,1.68,0,0,0-1.35-.8,1.64,1.64,0,0,0-1.36.79,3.27,3.27,0,0,0,0,2.55,5.37,5.37,0,0,0,.36,1.18,1.56,1.56,0,0,0,1.07.87,1.11,1.11,0,0,0,.8-.1,1,1,0,0,0-.25-1.89c-.22,0,.05,0,.13.1s.09.07,0,0c.1.15.13.18.07.09s0-.16,0,0a1,1,0,0,0-.06-.16c-.09-.3-.15-.62-.23-.93l-.12-.54,0-.11c0-.08,0,0,0,.08s0-.21,0-.22,0,.16,0,0,0-.08,0,.07c.07-.17-.16.15,0,0a.4.4,0,0,1-.19.11c-.09,0-.09,0,0,0a.6.6,0,0,1-.52-.06c.08,0,.07,0,0,0s-.08-.06,0,0c-.09-.13-.11-.15,0-.06l.1.17a3,3,0,0,1,.21.4c.11.25,0-.15,0,0s0,.13.07.2.09.29.13.44.13.4.09.45c0-.15,0-.17,0-.06v.07c0,.08,0,.17,0,.25a6.17,6.17,0,0,1,0,1l2-.27c-.38-.92-.71-1.85-1-2.8a1.05,1.05,0,0,0-1.73-.46,2.25,2.25,0,0,0-.61,1.62c0,.21,0,.41,0,.61,0,0,0,.22,0,0s0,0,0,0,0,.1,0,.15.11-.22,0-.07h1.79c-.08-.12-.16-.24-.23-.37l-.11-.21c0-.07-.06-.25,0,0-.07-.27-.19-.53-.24-.81l0-.2c0-.08,0,0,0,.1,0,0,0-.09,0-.13s0-.27,0-.41,0-.27,0-.41,0,.21,0,0,0-.18,0-.27a1,1,0,1,0-2-.54Z"/><path class="cls-4" d="M87.54,125.47a7,7,0,0,0,4.4,6.5c4.67,2.06,7.72.51,9.12-.57s3.62-4.46,2.64-7.54l-5,.34s.32,2.23-.89,3.1a3.38,3.38,0,0,1-3.24.16c-.51-.22-1-.37-2.09-2.33Z"/><path class="cls-5" d="M95.19,105.07v-.27H91.06v.38a2.07,2.07,0,1,0,4.13,0v-.48a2.07,2.07,0,0,0-4.06-.55,4.82,4.82,0,0,0-.16,1.6,2.07,2.07,0,0,0,3.11,1.79,2.41,2.41,0,0,0,.48-3.81,2.13,2.13,0,0,0-2-.53,2.07,2.07,0,0,0-1.45,1.44,12.54,12.54,0,0,0-.26,2.36,2.07,2.07,0,0,0,1.8,2,2,2,0,0,0,2.26-1.48,5.29,5.29,0,0,0,.18-1.77,2.07,2.07,0,1,0-4.13,0v1.87a2.07,2.07,0,0,0,4.06.55,4.49,4.49,0,0,0,.17-1.67,2.26,2.26,0,0,0-.61-1.46,2.06,2.06,0,0,0-3.52,1.46,20.3,20.3,0,0,0,.27,3.81,1.92,1.92,0,0,0,.74,1.07,2,2,0,0,0,1.26.45,2.58,2.58,0,0,0,1-.29,2,2,0,0,0,.95-1.23,11.15,11.15,0,0,0,0-3.6,2,2,0,0,0-2.26-1.48,2.09,2.09,0,0,0-1.8,2c-.07.94-.16,1.88-.29,2.82h4.13a10.65,10.65,0,0,0-.17-2.39,2,2,0,0,0-.94-1.24,2.1,2.1,0,0,0-3.11,1.79c0,.24-.05.47-.08.71l.08-.55c-.06.43-.14.86-.24,1.28l4,1.1a11.41,11.41,0,0,0,.15-2.67,2.1,2.1,0,0,0-1.79-2,2,2,0,0,0-2.27,1.48,20.27,20.27,0,0,0-.34,2.91,2.08,2.08,0,0,0,1.8,2,2,2,0,0,0,2.26-1.48,17.45,17.45,0,0,0,.39-4.07,2.08,2.08,0,0,0-1.8-2,2.05,2.05,0,0,0-2.26,1.48,26.54,26.54,0,0,0-.67,4,5.84,5.84,0,0,0,0,2,2.33,2.33,0,0,0,3.38,1.45,4.44,4.44,0,0,0,1.89-3.69,24.58,24.58,0,0,0,0-3.64,2.07,2.07,0,0,0-4.06-.55l-.1.34a2.08,2.08,0,0,0,1.45,2.54,2.11,2.11,0,0,0,2.54-1.44l.1-.34-4.06-.55a21,21,0,0,1,0,4l.08-.55c0,.14,0,.28-.08.42s-.18.51,0,.14-.06.05-.08.11c.23-.28.27-.34.13-.19s-.07.13.57-.31h1.1c.93,1.38,1.33,1.75,1.18,1.12l.08.55a9.83,9.83,0,0,1,.18-2.29l-.08.55a23.49,23.49,0,0,1,.49-2.5L90.67,107a14.84,14.84,0,0,1-.11,2.4l.07-.55c0,.38-.11.75-.19,1.12l4.06.55c0-.52.06-1,.12-1.53l-.07.55c0-.28.08-.56.13-.83l-4.05-.55a9.37,9.37,0,0,1-.06,2l.08-.55,0,.14a2.2,2.2,0,0,0,.21,1.59,2.06,2.06,0,0,0,3.77-.49,17,17,0,0,0,.39-2.54l-4.06.55a2.36,2.36,0,0,1,0,.28l-.07-.55a9,9,0,0,1,0,1.56,2.06,2.06,0,0,0,3.53,1.46,2.36,2.36,0,0,0,.6-1.46q.19-1.41.3-2.82l-4.06.55c0,.09,0,.18,0,.27l-.07-.55a8,8,0,0,1,0,2l.07-.55a2.36,2.36,0,0,1,0,.28h4l-.06-.42.07.55a18,18,0,0,1-.14-2.84H91.06a3.22,3.22,0,0,1,0,.76l.07-.55c0,.12-.05.24-.08.37l4.06.54v-1.87H91a4.5,4.5,0,0,1,0,.82l.07-.55c0,.14-.05.27-.08.4L95,107a10.65,10.65,0,0,1,.06-1.12l-.07.55q0-.34.12-.69l-3.45.91-.42-.72-.07-.55a.38.38,0,0,1,0,.15l.07-.55.77-1,3.11,1.78a2.91,2.91,0,0,1,0-.66l-.07.55a2.7,2.7,0,0,1,.08-.39l-4.06-.55v.48h4.13v-.38a2.07,2.07,0,0,0-4.13,0v.27a2.07,2.07,0,0,0,4.13,0Z"/></g></g></svg>