<svg xmlns="http://www.w3.org/2000/svg" viewBox="0 0 186.43 186.43"><defs><style>.cls-1{fill:#f7f3e8;}.cls-2{fill:#dddddc;}.cls-3{fill:#81301a;}.cls-4{fill:#0a1633;}.cls-5{fill:#c09f59;}.cls-6{fill:#b76d4a;}</style></defs><g id="Layer_2" data-name="Layer 2"><g id="Layer_1-2" data-name="Layer 1"><circle class="cls-1" cx="93.21" cy="93.21" r="93.21"/><rect class="cls-2" x="50.18" y="74.04" width="87.02" height="87.02"/><polygon class="cls-3" points="50.18 74.04 90.72 31.15 137.2 74.04 50.18 74.04"/><path class="cls-3" d="M99.72,152.29S57.55,96.23,73,88.76s22.42,24,22.42,24S104.52,76,115.2,84,99.72,152.29,99.72,152.29Z"/><path class="cls-1" d="M75,58.65a27.24,27.24,0,0,1,13.1,2.26,27.43,27.43,0,0,1-12.47,4.72,27.3,27.3,0,0,1-13.11-2.26A27.63,27.63,0,0,1,75,58.65Z"/><path class="cls-4" d="M73.76,58.86a6,6,0,0,0-1.49,4.47,1.16,1.16,0,0,0,.55,1,1.14,1.14,0,0,0,1.13,0,3.06,3.06,0,0,0,1.1-1.24c.09-.17.22-.33.3-.51-.09.21-.13.16,0,.06s.17-.14,0,0,0,0,0,0-.26.08-.07,0L73.9,61.25c-.23,1.15-.4,2.31-.52,3.48a1.12,1.12,0,0,0,.82,1.07,1.18,1.18,0,0,0,1.27-.51,6.48,6.48,0,0,0,1.11-2.7c.19-1.14.3-2.84-1.12-3.23a1.88,1.88,0,0,0-1.84.59,3.83,3.83,0,0,0-.71,1.61,11,11,0,0,0-.37,1.61,1.81,1.81,0,0,0,.78,1.67,1.12,1.12,0,0,0,.86.11,1.11,1.11,0,0,0,.27-2c.25.29.33.37.25.24s0,0,0,.12,0,.16,0,0-.06.24,0,0a.85.85,0,0,0,0-.17c.09-.36.19-.73.29-1.09,0-.17.1-.34.14-.51s-.07.11,0,0l.06-.11c.06-.09.06-.09,0,0s-.05.07,0,0l-.12.09c.19-.14-.2.06,0,0a.62.62,0,0,1-.75-.39c.08.2,0-.23,0,0,0,.06,0,.13,0,.2s0,.31,0,.46a1.15,1.15,0,0,1,0,.26c.09-.25,0,0,0,0a5,5,0,0,1-.11.5c0,.15-.09.3-.14.45a.84.84,0,0,1-.08.2c.14-.23,0,0,0,0a5.6,5.6,0,0,1-.52.89l2.08.57c0-.26,0-.52.09-.78a1.23,1.23,0,0,1,0-.19c0,.13,0,.14,0,0l.06-.39c.07-.52.16-1,.27-1.54a1.18,1.18,0,0,0-.29-1.09,1.12,1.12,0,0,0-1.09-.28,2.41,2.41,0,0,0-1.42,1.2c-.11.19-.21.39-.32.57l-.09.13c-.07.11.18-.2.05-.07a1.36,1.36,0,0,0-.12.12c0-.08.22-.16,0-.05l1.68,1a4.71,4.71,0,0,1,0-.92.49.49,0,0,1,0-.12c0,.15,0,.19,0,.1l0-.2a4.05,4.05,0,0,1,.12-.47l.08-.23s.09-.25,0-.09,0-.06,0-.09l.11-.22c.08-.14.17-.28.26-.42a1.21,1.21,0,0,1,.14-.2l-.07.1.1-.12a1.15,1.15,0,0,0,0-1.59,1.14,1.14,0,0,0-1.58,0Z"/><path class="cls-1" d="M110.31,58.76a27.18,27.18,0,0,1,11.9,5.93,27.64,27.64,0,0,1-13.3.94A27.3,27.3,0,0,1,97,59.7,27.55,27.55,0,0,1,110.31,58.76Z"/><path class="cls-4" d="M106.55,59.46a6,6,0,0,0,.83,4.65,1.13,1.13,0,0,0,1.93,0,3.13,3.13,0,0,0,.37-1.63c0-.1,0-.2,0-.3V62c0-.21,0,.05,0,.1a.47.47,0,0,1,0-.17s.07-.2,0,0,0,0,0,0-.19.21,0,.06l-1.87-.49c.32,1,.68,2,1.09,3a1.14,1.14,0,0,0,1.23.8,1.08,1.08,0,0,0,.64-.31,1.27,1.27,0,0,0,.32-.79A6.54,6.54,0,0,0,111,62a5.62,5.62,0,0,0-.86-2.07,1.84,1.84,0,0,0-1.46-.86,1.75,1.75,0,0,0-1.46.86,3.5,3.5,0,0,0,0,2.75,5.74,5.74,0,0,0,.39,1.28,1.7,1.7,0,0,0,1.16,1,1.22,1.22,0,0,0,.86-.12,1.18,1.18,0,0,0,.52-.66,1.14,1.14,0,0,0-.79-1.38c-.23,0,0,0,.14.1s.1.08,0,0l.07.1c-.06-.12,0-.18,0,0a1.15,1.15,0,0,0-.06-.17c-.1-.33-.17-.68-.25-1s-.09-.39-.13-.58l0-.12c0-.09,0-.06,0,.09a.69.69,0,0,1,0-.25q0,.24,0,.06c0-.12,0-.09,0,.08.09-.18-.16.16,0,0a.34.34,0,0,1-.2.13c-.09,0-.1,0,0,0a.66.66,0,0,1-.56-.07c.08.05.07,0,0,0h0q-.16-.21-.06-.06a1.74,1.74,0,0,1,.11.18c.08.14.16.29.23.44s-.06-.17,0,0,0,.14.07.21a4.34,4.34,0,0,1,.14.48c0,.07.14.43.1.49,0-.17,0-.19,0-.07v.08c0,.09,0,.18,0,.27a6,6,0,0,1,0,1l2.19-.3a32.07,32.07,0,0,1-1.08-3,1.13,1.13,0,0,0-1.87-.49,2.4,2.4,0,0,0-.66,1.75c0,.22,0,.44,0,.66,0,0,0,.24,0,0s0,0,0,0,0,.11,0,.16.12-.24,0-.06h1.93c-.09-.13-.17-.27-.25-.41a2.26,2.26,0,0,1-.11-.22c0-.09-.07-.28,0,0-.07-.3-.2-.58-.25-.88a1.7,1.7,0,0,1,0-.22c0-.09,0,0,0,.11,0,0,0-.09,0-.14s0-.3,0-.45,0-.29,0-.44,0,.23,0,0l.06-.3a1.12,1.12,0,0,0-2.16-.59Z"/><path class="cls-5" d="M84.18,81.64a7.57,7.57,0,0,0,4.77,7c5,2.23,8.35.56,9.85-.61s3.93-4.83,2.87-8.16l-5.39.37s.35,2.41-1,3.35a3.7,3.7,0,0,1-3.51.18c-.55-.25-1.11-.41-2.26-2.52Z"/><path class="cls-6" d="M93.63,64.24V64H89.16v.41a2.24,2.24,0,0,0,4.47,0v-.52a2.24,2.24,0,0,0-4.39-.6A5.11,5.11,0,0,0,89.07,65a2.24,2.24,0,0,0,3.36,1.93A2.61,2.61,0,0,0,93,62.8a2.28,2.28,0,0,0-2.17-.57,2.2,2.2,0,0,0-1.56,1.56,12.77,12.77,0,0,0-.28,2.55,2.24,2.24,0,0,0,4.39.59A6.21,6.21,0,0,0,93.52,65a2.24,2.24,0,0,0-4.47,0v2a2.24,2.24,0,0,0,4.39.6,4.85,4.85,0,0,0,.19-1.81A2.48,2.48,0,0,0,93,64.25a2.23,2.23,0,0,0-3.81,1.58,21.12,21.12,0,0,0,.3,4.12,2,2,0,0,0,.8,1.16,2.12,2.12,0,0,0,1.35.48,2.62,2.62,0,0,0,1.13-.31,2.25,2.25,0,0,0,1-1.33,11.87,11.87,0,0,0,0-3.9,2.2,2.2,0,0,0-1-1.34,2.33,2.33,0,0,0-1.42-.26,2.26,2.26,0,0,0-1.94,2.19c-.08,1-.18,2-.32,3.06h4.47a11.8,11.8,0,0,0-.18-2.59,2.2,2.2,0,0,0-1-1.34,2.33,2.33,0,0,0-1.42-.26A2.26,2.26,0,0,0,89,67.7c0,.26,0,.52-.08.78l.08-.59a12.72,12.72,0,0,1-.26,1.37L93,70.45a12.12,12.12,0,0,0,.16-2.88,2.26,2.26,0,0,0-1.94-2.2A2.22,2.22,0,0,0,88.77,67a22.17,22.17,0,0,0-.36,3.15,2.24,2.24,0,0,0,4.39.59,18.55,18.55,0,0,0,.41-4.4,2.24,2.24,0,0,0-4.39-.59A29.55,29.55,0,0,0,88.1,70a6.08,6.08,0,0,0,0,2.17,2.53,2.53,0,0,0,3.66,1.57,4.84,4.84,0,0,0,2-4,27.26,27.26,0,0,0,0-3.94,2.24,2.24,0,0,0-4.39-.6l-.11.37a2.24,2.24,0,1,0,4.31,1.19l.11-.37-4.39-.59a22.67,22.67,0,0,1,0,4.28l.08-.59c0,.15,0,.3-.08.44s-.2.56,0,.16-.07,0-.09.12c.25-.31.3-.37.14-.2s-.07.14.62-.34h1.19c1,1.49,1.43,1.89,1.28,1.21l.08.59A11.38,11.38,0,0,1,92.68,69l-.08.59c.13-.91.31-1.81.53-2.71l-4.39-.59a16.12,16.12,0,0,1-.12,2.6l.08-.59q-.09.6-.21,1.2l4.39.6c0-.56.06-1.11.13-1.66l-.07.6c0-.3.08-.6.14-.9l-4.39-.59a9.6,9.6,0,0,1-.06,2.14l.08-.6,0,.15A2.45,2.45,0,0,0,88.92,71,2.23,2.23,0,0,0,93,70.45a16.91,16.91,0,0,0,.42-2.75L89,68.3c0,.1,0,.2,0,.3L89,68a8.66,8.66,0,0,1,0,1.69,2.25,2.25,0,0,0,2.24,2.23,2.22,2.22,0,0,0,1.58-.65,2.63,2.63,0,0,0,.65-1.58c.14-1,.24-2,.32-3.06l-4.39.6c0,.1,0,.2,0,.3l-.08-.6a9.31,9.31,0,0,1,0,2.11l.08-.59c0,.1,0,.2,0,.3h4.31c0-.15,0-.31-.07-.46l.08.6a17.55,17.55,0,0,1-.15-3.07H89.16a3.66,3.66,0,0,1,0,.81l.08-.59c0,.14-.06.27-.1.4l4.39.59V65H89.05a4.42,4.42,0,0,1,0,.89l.08-.59-.09.43,4.39.6a9.71,9.71,0,0,1,.07-1.21l-.08.59c0-.25.08-.5.13-.75l-3.74,1-.44-.79-.08-.59a.43.43,0,0,1,0,.16l.08-.59.83-1.09L93.54,65a3.46,3.46,0,0,1,0-.72l-.08.59a3.15,3.15,0,0,1,.09-.42l-4.39-.59v.52h4.47V64a2.24,2.24,0,1,0-4.47,0v.28a2.24,2.24,0,1,0,4.47,0Z"/></g></g></svg>