<svg xmlns="http://www.w3.org/2000/svg" xmlns:xlink="http://www.w3.org/1999/xlink" viewBox="0 0 107.24 107.24"><defs><style>.cls-1{fill:none;}.cls-2{clip-path:url(#clip-path);}.cls-3{fill:#f7f3e8;}.cls-4{fill:#859087;}</style><clipPath id="clip-path" transform="translate(0)"><rect class="cls-1" width="107.24" height="107.24"/></clipPath></defs><g id="Layer_2" data-name="Layer 2"><g id="Layer_1-2" data-name="Layer 1"><g id="Group_115" data-name="Group 115"><g class="cls-2"><g id="Group_40" data-name="Group 40"><path id="Path_82" data-name="Path 82" class="cls-3" d="M107.24,53.62A53.62,53.62,0,1,1,53.62,0h0a53.62,53.62,0,0,1,53.62,53.62" transform="translate(0)"/><path id="Path_83" data-name="Path 83" class="cls-4" d="M53.59,39.19A14.65,14.65,0,1,0,68.26,53.81,14.64,14.64,0,0,0,53.59,39.19Zm0,24.21a9.54,9.54,0,1,1,9.54-9.54h0a9.54,9.54,0,0,1-9.54,9.54Zm18.7-24.81a3.78,3.78,0,1,1-3.77-3.79,3.79,3.79,0,0,1,3.77,3.79ZM82,42.06c-.21-4.59-1.26-8.65-4.62-12s-7.41-4.4-12-4.63c-4.73-.26-18.89-.26-23.62,0-4.57.22-8.63,1.27-12,4.62s-4.39,7.4-4.62,12c-.27,4.73-.27,18.89,0,23.62s1.27,8.64,4.63,12,7.4,4.39,12,4.62,18.88.27,23.61,0C70,82.05,74,81,77.38,77.64s4.39-7.4,4.62-12,.27-18.87,0-23.59ZM75.89,70.73a9.7,9.7,0,0,1-5.44,5.44c-3.76,1.5-12.7,1.15-16.86,1.15s-13.12.33-16.87-1.16a9.64,9.64,0,0,1-5.44-5.44C29.78,67,30.13,58,30.13,53.85S29.8,40.74,31.28,37a9.7,9.7,0,0,1,5.44-5.44c3.76-1.5,12.7-1.15,16.87-1.15s13.11-.33,16.86,1.15A9.7,9.7,0,0,1,75.89,37c1.5,3.77,1.16,12.71,1.16,16.87S77.39,67,75.89,70.72" transform="translate(0)"/></g></g></g></g></g></svg>