<svg xmlns="http://www.w3.org/2000/svg" xmlns:xlink="http://www.w3.org/1999/xlink" viewBox="0 0 321.04 310.13"><defs><style>.cls-1{fill:none;}.cls-2{fill:#091534;}.cls-3{clip-path:url(#clip-path);}</style><clipPath id="clip-path"><rect class="cls-1" width="321.04" height="310.1"/></clipPath></defs><g id="Layer_2" data-name="Layer 2"><g id="Layer_1-2" data-name="Layer 1"><rect id="Rectangle_12" data-name="Rectangle 12" class="cls-2" x="21" y="166.32" width="8.75" height="25.8" transform="translate(-18.72 3.66) rotate(-6.04)"/><g id="Group_3" data-name="Group 3"><g class="cls-3"><g id="Group_2" data-name="Group 2"><path id="Path_1" data-name="Path 1" class="cls-2" d="M54.54,143.58,0,124.53l4.3-12.31a16.6,16.6,0,0,1,5.63-7.89,12.67,12.67,0,0,1,8.41-2.43,19.89,19.89,0,0,1,6.06,1.24,13.53,13.53,0,0,1,7.77,6,8.67,8.67,0,0,1,1.13,3.61,10.18,10.18,0,0,1,5.76-3.21,17.08,17.08,0,0,1,6,0,22.59,22.59,0,0,1,3.88,1,19.26,19.26,0,0,1,8.1,5,12.33,12.33,0,0,1,3,5.88,12.51,12.51,0,0,1-.26,6.89ZM25.37,123.44l1.2-3.43a5.35,5.35,0,0,0-1.95-6.45,11.12,11.12,0,0,0-3.27-1.67,7.6,7.6,0,0,0-5.7-.15,5.56,5.56,0,0,0-3,3.4l-1.19,3.44Zm24.13,8.43,1.21-3.44a6.21,6.21,0,0,0-2.29-7.29,10,10,0,0,0-3.2-1.75,10.93,10.93,0,0,0-7.26-.58,6,6,0,0,0-3.52,3.94l-1.2,3.44Z"/><path id="Path_2" data-name="Path 2" class="cls-2" d="M69.46,107.34,24.63,70.89,40.27,51.65l6.79,5.53L36.91,69.65l12.23,9.94,7.41-9.11L63.34,76l-7.41,9.12,12.23,9.94L78.32,82.58l6.79,5.53Z"/><path id="Path_3" data-name="Path 3" class="cls-2" d="M81.71,19.89l4.74,7.36,8.38,42.57,13.47-8.69L113,68.41,91.62,82.19l-4.73-7.33L78.57,32.28,65.08,41l-4.74-7.36Z"/><path id="Path_4" data-name="Path 4" class="cls-2" d="M120.19,4.74a13.25,13.25,0,0,1,10.47,1.58,13.37,13.37,0,0,1,6.27,8.51l7.56,30.59a13.8,13.8,0,0,1-10.05,16.73h0a13.23,13.23,0,0,1-10.46-1.59,13.37,13.37,0,0,1-6.23-8.51l-7.58-30.6A13.29,13.29,0,0,1,111.72,11a13.27,13.27,0,0,1,8.47-6.25m7.88,12.09a5,5,0,0,0-6-3.65h0A4.87,4.87,0,0,0,119,15.45a4.7,4.7,0,0,0-.58,3.78L126,49.91A4.75,4.75,0,0,0,128.24,53a4.85,4.85,0,0,0,3.79.55,5,5,0,0,0,3.64-6v0Z"/><path id="Path_5" data-name="Path 5" class="cls-2" d="M157.65,57.4,164.26,0l13,1.5a16.52,16.52,0,0,1,8.94,3.76,12.61,12.61,0,0,1,4.22,7.67,20.4,20.4,0,0,1,.13,6.19A13.64,13.64,0,0,1,186.37,28a8.72,8.72,0,0,1-3.28,1.9,10.07,10.07,0,0,1,4.38,4.91,16.88,16.88,0,0,1,1.32,5.9,22.5,22.5,0,0,1-.14,4,19.35,19.35,0,0,1-3.12,9A12.45,12.45,0,0,1,180.45,58a12.62,12.62,0,0,1-6.78,1.26ZM168,49.92l3.61.42a6.17,6.17,0,0,0,6.61-3.83,10,10,0,0,0,1-3.5,11,11,0,0,0-1-7.22,6,6,0,0,0-4.62-2.58l-3.61-.42Zm2.93-25.4,3.61.42a5.35,5.35,0,0,0,5.86-3.32,11.34,11.34,0,0,0,.93-3.57,7.58,7.58,0,0,0-1.12-5.6,5.53,5.53,0,0,0-4-2.18l-3.61-.41Z"/><path id="Path_6" data-name="Path 6" class="cls-2" d="M210.87,56.35l-8,10.82L194.83,63l35.26-46.76,10.64,5.51L222.78,77.47l-8.14-4.21,4.29-12.72Zm18.42-25.63L216,49.44l5.73,3Z"/><path id="Path_7" data-name="Path 7" class="cls-2" d="M246.24,101.38,230.15,83.94,272.57,44.8l5.91,6.4L242.41,84.46l10.2,11.05Z"/><rect id="Rectangle_13" data-name="Rectangle 13" class="cls-2" x="294.87" y="83.57" width="9.5" height="8.71" transform="translate(-5.23 155.54) rotate(-28.86)"/><rect id="Rectangle_14" data-name="Rectangle 14" class="cls-2" x="250.58" y="98.91" width="42.42" height="8.71" transform="translate(-16.08 144.06) rotate(-28.87)"/><path id="Path_8" data-name="Path 8" class="cls-2" d="M280.89,151.43a16.25,16.25,0,0,1-10.76-.72,11.27,11.27,0,0,1-5.35-4.9,16.3,16.3,0,0,1-1.72-4.57,13.72,13.72,0,0,1,.54-8.83,14.29,14.29,0,0,1,4.49-5.61,22.74,22.74,0,0,1,7.53-3.71l2.46,7.94a12.64,12.64,0,0,0-6.52,4.26,4.44,4.44,0,0,0-.77,3.87,5.43,5.43,0,0,0,3.77,3.81,7,7,0,0,0,3.92,0,10.59,10.59,0,0,0,6.23-4.8q1.8-3.08,5.39-9.2a32.68,32.68,0,0,1,5.93-7.67,17.33,17.33,0,0,1,7.47-3.72A14.12,14.12,0,0,1,316.34,120a13.15,13.15,0,0,1,4.21,7.35,14.77,14.77,0,0,1-.21,8.23,12,12,0,0,1-3.46,5.08,16.62,16.62,0,0,1-6.08,3.37l-3.36-7.78a10,10,0,0,0,4.92-3.22,4.22,4.22,0,0,0,.61-3.69,4,4,0,0,0-2.86-3.07,8.07,8.07,0,0,0-4.36,0,12.73,12.73,0,0,0-7.08,5.15A28.47,28.47,0,0,0,296,136a53.37,53.37,0,0,1-2.55,4.7,29.24,29.24,0,0,1-5.06,6.29,24,24,0,0,1-2.35,1.92,16.13,16.13,0,0,1-5.09,2.51"/><rect id="Rectangle_15" data-name="Rectangle 15" class="cls-2" x="281.58" y="174.8" width="25.79" height="8.75" transform="translate(85.36 453.2) rotate(-83.97)"/><path id="Path_9" data-name="Path 9" class="cls-2" d="M44,237a4,4,0,0,0-1.31,1.31,3.3,3.3,0,0,0-.47,1.52,4.29,4.29,0,0,0,.26,1.63,7.33,7.33,0,0,0,.84,1.65,5.62,5.62,0,0,0,1.21,1.37,3.71,3.71,0,0,0,1.2.66,2.37,2.37,0,0,0,1.12.06,2.59,2.59,0,0,0,1-.4,2.21,2.21,0,0,0,1-1.27,2.73,2.73,0,0,0,0-1.27,23.23,23.23,0,0,0-.7-2.29c-.31-.85-.67-1.9-1.1-3.16a6.82,6.82,0,0,1-.42-2.1,4.51,4.51,0,0,1,.23-1.67,3.78,3.78,0,0,1,.74-1.29,5.15,5.15,0,0,1,1.07-1A4.83,4.83,0,0,1,51,230a5.22,5.22,0,0,1,2.28.34,6.8,6.8,0,0,1,2,1.25A9.41,9.41,0,0,1,57,233.43a9.73,9.73,0,0,1,1.21,2.49,6.86,6.86,0,0,1,.32,2.5,5.37,5.37,0,0,1-2.5,4.21l-1.8-2.69a3.13,3.13,0,0,0,1.42-2.42,4.77,4.77,0,0,0-.93-2.72,6.53,6.53,0,0,0-.74-.91,3.87,3.87,0,0,0-.93-.69,2.35,2.35,0,0,0-1.07-.26,2.27,2.27,0,0,0-2.1,1.75,3.94,3.94,0,0,0,.19,1.8l.26.8c.15.47.33,1,.53,1.57l.58,1.68.41,1.19a5.47,5.47,0,0,1,.23,1.75,5,5,0,0,1-.31,1.57,4.74,4.74,0,0,1-.75,1.31,5.12,5.12,0,0,1-1.09,1,5.19,5.19,0,0,1-2.57,1,5.45,5.45,0,0,1-2.43-.38,7.36,7.36,0,0,1-2.16-1.4A10.89,10.89,0,0,1,41,244.46a11.53,11.53,0,0,1-1.34-2.7,7.21,7.21,0,0,1-.36-2.69,5.91,5.91,0,0,1,.79-2.52,7.15,7.15,0,0,1,2.11-2.2Z"/><path id="Path_10" data-name="Path 10" class="cls-2" d="M58,244.61l1.83,2.12-1.37,1.19,0,0a3.67,3.67,0,0,1,2.4.22,5.84,5.84,0,0,1,2,1.49,6.46,6.46,0,0,1,1.39,2.46,5.46,5.46,0,0,1,.12,2.48,6.6,6.6,0,0,1-1,2.37,9.76,9.76,0,0,1-1.84,2.11,10,10,0,0,1-2.21,1.45,6.92,6.92,0,0,1-2.4.66,5.17,5.17,0,0,1-4.48-1.9,7.88,7.88,0,0,1-.76-1.06,5.53,5.53,0,0,1-.53-1.19,4.9,4.9,0,0,1-.22-1.26,3.58,3.58,0,0,1,.16-1.26l0,0-5.07,4.38-1.93-2.23Zm1.68,12.21a6.78,6.78,0,0,0,1.18-1.33,5,5,0,0,0,.69-1.52,3.66,3.66,0,0,0,0-1.58A3.63,3.63,0,0,0,58,249.62a5.77,5.77,0,0,0-3.24,1.55,7.35,7.35,0,0,0-1.26,1.41,4.34,4.34,0,0,0-.64,1.54,3.68,3.68,0,0,0,0,1.55,3.38,3.38,0,0,0,.78,1.44,3.2,3.2,0,0,0,1.43,1,3.64,3.64,0,0,0,1.57.17,4.25,4.25,0,0,0,1.56-.49,7.46,7.46,0,0,0,1.44-1"/><path id="Path_11" data-name="Path 11" class="cls-2" d="M63.56,270.55a7.32,7.32,0,0,1-1.76-2.33,6,6,0,0,1-.58-2.51,6.15,6.15,0,0,1,.52-2.54,8.46,8.46,0,0,1,1.59-2.42A8.23,8.23,0,0,1,65.57,259a6.34,6.34,0,0,1,2.48-.76,6.14,6.14,0,0,1,2.55.35,8.08,8.08,0,0,1,4.24,3.87,6,6,0,0,1,.07,5.06,8.44,8.44,0,0,1-1.57,2.4,8.75,8.75,0,0,1-2.26,1.8,6.39,6.39,0,0,1-2.48.76,6.2,6.2,0,0,1-2.56-.36,7.34,7.34,0,0,1-2.48-1.54m1.58-1.73a3.4,3.4,0,0,0,1.54.85,3.69,3.69,0,0,0,1.62,0,4.83,4.83,0,0,0,1.53-.66,7.17,7.17,0,0,0,1.33-1.13,6.89,6.89,0,0,0,1-1.41,4.49,4.49,0,0,0,.51-1.59,3.63,3.63,0,0,0-.15-1.6A3.77,3.77,0,0,0,70,261a4,4,0,0,0-1.61,0,4.74,4.74,0,0,0-1.53.66,6.82,6.82,0,0,0-2.32,2.54,4.79,4.79,0,0,0-.52,1.59,3.66,3.66,0,0,0,.15,1.61,3.31,3.31,0,0,0,1,1.46"/><path id="Path_12" data-name="Path 12" class="cls-2" d="M78.64,265.42l1.78,1.35,2.43-3.2,2.36,1.79-2.43,3.2,2.13,1.62-1.34,1.75-2.13-1.61L77.12,276a6,6,0,0,0-.46.66,1.5,1.5,0,0,0-.2.57.85.85,0,0,0,.13.54,2.09,2.09,0,0,0,.55.56,6.15,6.15,0,0,0,.52.37,2.65,2.65,0,0,0,.55.3l-1.38,1.82-.83-.49a9.37,9.37,0,0,1-.8-.54,6.54,6.54,0,0,1-1.36-1.32,2.43,2.43,0,0,1-.5-1.19,2.23,2.23,0,0,1,.22-1.19,7.85,7.85,0,0,1,.76-1.28l4.78-6.31-1.78-1.35Z"/><path id="Path_13" data-name="Path 13" class="cls-2" d="M86.54,271.3l2.32,1.52L87.43,275l0,0a3,3,0,0,1,1-.61,4.84,4.84,0,0,1,1.29-.3,4.5,4.5,0,0,1,1.37.08,3.54,3.54,0,0,1,1.24.51,6.27,6.27,0,0,1,.59.42l.31.25-1.57,2.39-.48-.43a6.15,6.15,0,0,0-.52-.37,3.3,3.3,0,0,0-2.8-.43,4.3,4.3,0,0,0-1.44.78,6.07,6.07,0,0,0-1.32,1.49l-3.51,5.34-2.47-1.63Z"/><path id="Path_14" data-name="Path 14" class="cls-2" d="M92.1,283.64a5.2,5.2,0,0,0-.51,1.43,3.63,3.63,0,0,0,0,1.43,3.34,3.34,0,0,0,.57,1.29,3.75,3.75,0,0,0,1.26,1,3.56,3.56,0,0,0,2.11.5,3.29,3.29,0,0,0,1.83-.91l2.47,1.33a5.4,5.4,0,0,1-1.64,1.33,5.53,5.53,0,0,1-1.89.62,6.17,6.17,0,0,1-2-.08,7.39,7.39,0,0,1-2-.74,7,7,0,0,1-2.22-1.79,5.81,5.81,0,0,1-1.12-2.25,6.24,6.24,0,0,1-.06-2.58,9,9,0,0,1,1-2.71,7.75,7.75,0,0,1,1.69-2.17A6.86,6.86,0,0,1,93.76,278a6.15,6.15,0,0,1,5.18.39,6.06,6.06,0,0,1,2.18,1.94,6.27,6.27,0,0,1,1,2.53,7,7,0,0,1-.13,2.78,7.65,7.65,0,0,1-1.21,2.66Zm7,1.57a4.81,4.81,0,0,0,.38-1.33,3.66,3.66,0,0,0-.06-1.32,3.2,3.2,0,0,0-.54-1.17,3,3,0,0,0-1.06-.91,3.5,3.5,0,0,0-1.37-.44,3.3,3.3,0,0,0-1.32.15,3.45,3.45,0,0,0-1.17.65,3.75,3.75,0,0,0-.93,1.09Z"/><path id="Path_15" data-name="Path 15" class="cls-2" d="M108.12,277.86l2.75,1.1-2.53,6.38,0,0a4.23,4.23,0,0,1,1-.54,4.56,4.56,0,0,1,1.15-.26,5.25,5.25,0,0,1,1.19,0,5.37,5.37,0,0,1,1.13.3,6.3,6.3,0,0,1,2.36,1.55,5.3,5.3,0,0,1,1.25,2.15,6.4,6.4,0,0,1,.24,2.54,9.49,9.49,0,0,1-.66,2.72,9.83,9.83,0,0,1-1.29,2.3,6.66,6.66,0,0,1-1.82,1.69,5.16,5.16,0,0,1-4.85.37,10.78,10.78,0,0,1-1.24-.58,5.4,5.4,0,0,1-1.08-.82,4.25,4.25,0,0,1-.8-1,3.28,3.28,0,0,1-.38-1.33l-.05,0-.68,1.71-2.6-1Zm5.21,14.82a7,7,0,0,0,.44-1.73,4.69,4.69,0,0,0-.09-1.67,3.62,3.62,0,0,0-.69-1.42,3.6,3.6,0,0,0-4.44-.8,5.68,5.68,0,0,0-2.16,2.85,6.92,6.92,0,0,0-.47,1.84,4.23,4.23,0,0,0,.14,1.66,3.48,3.48,0,0,0,.73,1.35,3.43,3.43,0,0,0,4.56.61,4.61,4.61,0,0,0,1.17-1.16,8.64,8.64,0,0,0,.82-1.53"/><path id="Path_16" data-name="Path 16" class="cls-2" d="M128.63,304.19l-2.8-.75.48-1.81h0a4.08,4.08,0,0,1-2,1.14,4.27,4.27,0,0,1-2.27,0,4.9,4.9,0,0,1-3.35-2.25,5.72,5.72,0,0,1-.12-4.13l2.2-8.22,2.86.77-2.13,7.95a3.59,3.59,0,0,0,0,2.58,2.47,2.47,0,0,0,1.64,1.19,3.67,3.67,0,0,0,1.58.13,2.8,2.8,0,0,0,1.17-.48,2.9,2.9,0,0,0,.84-1,5.68,5.68,0,0,0,.54-1.36l2-7.52,2.86.77Z"/><path id="Path_17" data-name="Path 17" class="cls-2" d="M135.09,291.72l2.91.53-2.62,14.32a4.74,4.74,0,0,1-1.42,2.88,3.57,3.57,0,0,1-3.1.54,5.72,5.72,0,0,1-.72-.16,4.59,4.59,0,0,1-.56-.18l.41-2.29.52.17c.16.05.31.08.45.11.52.1.89,0,1.07-.31a4.15,4.15,0,0,0,.46-1.42Zm.92-5,2.9.53-.5,2.76-2.91-.53Z"/><rect id="Rectangle_16" data-name="Rectangle 16" class="cls-2" x="140.06" y="296.35" width="18.53" height="2.96" transform="translate(-159.25 423.47) rotate(-85.53)"/><path id="Path_18" data-name="Path 18" class="cls-2" d="M156.56,301.52a5.07,5.07,0,0,0,.2,1.5,3.47,3.47,0,0,0,.64,1.29,3.07,3.07,0,0,0,1.1.89,4.19,4.19,0,0,0,3.7-.17,3.33,3.33,0,0,0,1.21-1.65l2.8,0a5.55,5.55,0,0,1-2.23,3.35,6,6,0,0,1-1.82.86,7.42,7.42,0,0,1-2.1.26,7,7,0,0,1-2.79-.57,5.76,5.76,0,0,1-2-1.48,6.22,6.22,0,0,1-1.24-2.25,9.26,9.26,0,0,1-.38-2.86,8.08,8.08,0,0,1,.5-2.71,6.92,6.92,0,0,1,1.33-2.23,6.08,6.08,0,0,1,4.77-2,6,6,0,0,1,2.84.71,6.09,6.09,0,0,1,2.06,1.78,7.13,7.13,0,0,1,1.17,2.53,7.75,7.75,0,0,1,.15,2.92Zm6.94-1.84a5.15,5.15,0,0,0-.28-1.35,3.42,3.42,0,0,0-1.69-1.94,3.05,3.05,0,0,0-1.36-.32,3.65,3.65,0,0,0-1.42.26,3.52,3.52,0,0,0-1.1.73,3.83,3.83,0,0,0-.74,1.12,3.92,3.92,0,0,0-.32,1.39Z"/><path id="Path_19" data-name="Path 19" class="cls-2" d="M168.37,294l2.79-.31.21,2,.06.05a5,5,0,0,1,1.56-1.94,4.66,4.66,0,0,1,2.32-.89,5,5,0,0,1,3.58.75,4.36,4.36,0,0,1,1.64,3.27l1,9.16-2.94.32-.92-8.38a3.64,3.64,0,0,0-.93-2.21,2.46,2.46,0,0,0-2-.49,3.19,3.19,0,0,0-1.31.41,3,3,0,0,0-.92.86,3.72,3.72,0,0,0-.52,1.19,4.39,4.39,0,0,0-.08,1.4l.87,7.86-2.94.33Z"/><path id="Path_20" data-name="Path 20" class="cls-2" d="M189.92,290.76l2.69-.77.52,1.74.05,0a3.67,3.67,0,0,1,1.2-2.09,5.89,5.89,0,0,1,2.18-1.16,6.52,6.52,0,0,1,2.81-.23,5.42,5.42,0,0,1,2.31.93,6.57,6.57,0,0,1,1.75,1.85,9.5,9.5,0,0,1,1.14,2.56,9.66,9.66,0,0,1,.4,2.61,6.78,6.78,0,0,1-.4,2.45,5.19,5.19,0,0,1-1.29,2,5.38,5.38,0,0,1-2.31,1.28,7.06,7.06,0,0,1-1.28.25,5.74,5.74,0,0,1-1.31,0,5.28,5.28,0,0,1-1.24-.33,3.54,3.54,0,0,1-1.07-.68l0,0,1.86,6.43-2.84.82Zm11.79,3.58a7,7,0,0,0-.71-1.63,5.09,5.09,0,0,0-1.1-1.26,3.78,3.78,0,0,0-1.42-.7,3.34,3.34,0,0,0-1.66.06,3.29,3.29,0,0,0-2.34,2,5.69,5.69,0,0,0,.05,3.58,6.6,6.6,0,0,0,.77,1.74,4.15,4.15,0,0,0,1.13,1.23,3.65,3.65,0,0,0,1.4.61,3.37,3.37,0,0,0,1.64-.09A3.28,3.28,0,0,0,201,299a3.59,3.59,0,0,0,.81-1.35,4.3,4.3,0,0,0,.2-1.63,7.65,7.65,0,0,0-.29-1.71"/><path id="Path_21" data-name="Path 21" class="cls-2" d="M215.83,296.54a7.34,7.34,0,0,1-2.84.63,6.13,6.13,0,0,1-2.53-.52,6.24,6.24,0,0,1-2.09-1.54,9.09,9.09,0,0,1-2.22-5.23,6.3,6.3,0,0,1,.34-2.58,6,6,0,0,1,1.39-2.18,8,8,0,0,1,5.27-2.24,6.15,6.15,0,0,1,2.54.52,6.24,6.24,0,0,1,2.09,1.54,8.64,8.64,0,0,1,1.52,2.43,8.48,8.48,0,0,1,.7,2.8,6.28,6.28,0,0,1-.34,2.58,6.11,6.11,0,0,1-1.39,2.18,7.39,7.39,0,0,1-2.43,1.62m-.91-2.16a3.4,3.4,0,0,0,1.41-1.05,3.65,3.65,0,0,0,.67-1.47,4.46,4.46,0,0,0,0-1.67,6.8,6.8,0,0,0-1.34-3.16,4.57,4.57,0,0,0-1.23-1.13,3.56,3.56,0,0,0-1.52-.51,3.73,3.73,0,0,0-3.15,1.33,3.83,3.83,0,0,0-.68,1.46,4.68,4.68,0,0,0,0,1.67,6.4,6.4,0,0,0,.46,1.66,6.63,6.63,0,0,0,.88,1.5,4.68,4.68,0,0,0,1.22,1.13,3.65,3.65,0,0,0,1.53.54,3.6,3.6,0,0,0,1.74-.29"/><path id="Path_22" data-name="Path 22" class="cls-2" d="M217.45,280.69l2-1.05-1.9-3.54,2.6-1.41,1.91,3.54,2.36-1.26,1,1.94-2.35,1.27,3.39,6.3a6,6,0,0,0,.41.69,1.47,1.47,0,0,0,.44.42.91.91,0,0,0,.54.11,2.18,2.18,0,0,0,.74-.26l.54-.31a3.25,3.25,0,0,0,.52-.37l1.08,2-.8.55a8.54,8.54,0,0,1-.82.5,6.54,6.54,0,0,1-1.76.7,2.56,2.56,0,0,1-1.29,0,2.37,2.37,0,0,1-1-.69,8.14,8.14,0,0,1-.85-1.23l-3.75-7-2,1.06Z"/><path id="Path_23" data-name="Path 23" class="cls-2" d="M226.07,276l2.35-1.47,1.38,2.19,0,0a3.11,3.11,0,0,1-.14-1.17,5.1,5.1,0,0,1,.26-1.29,4.68,4.68,0,0,1,.64-1.21,3.31,3.31,0,0,1,1-.92,6.27,6.27,0,0,1,.62-.36l.36-.17,1.53,2.42-.59.25c-.19.1-.38.2-.56.31a3.42,3.42,0,0,0-1,1,3.32,3.32,0,0,0-.52,1.36,4.27,4.27,0,0,0,.11,1.63,6.13,6.13,0,0,0,.81,1.83l3.4,5.41-2.51,1.57Z"/><path id="Path_24" data-name="Path 24" class="cls-2" d="M239.59,276a5.22,5.22,0,0,0,1.08,1.07,3.75,3.75,0,0,0,1.29.62,3.24,3.24,0,0,0,1.42,0,3.66,3.66,0,0,0,1.47-.71,3.54,3.54,0,0,0,1.34-1.71,3.31,3.31,0,0,0-.07-2l2.23-1.7a5.54,5.54,0,0,1,.3,4,5.69,5.69,0,0,1-.9,1.79,7.06,7.06,0,0,1-1.49,1.5,7,7,0,0,1-2.55,1.27,5.79,5.79,0,0,1-2.52.09,6.15,6.15,0,0,1-2.36-1,9.23,9.23,0,0,1-2.07-2,8.06,8.06,0,0,1-1.27-2.43,6.86,6.86,0,0,1-.32-2.58,6.23,6.23,0,0,1,7.89-5.59,7,7,0,0,1,2.47,1.27,7.66,7.66,0,0,1,1.92,2.21Zm4.33-5.71a4.77,4.77,0,0,0-1-.9,3.43,3.43,0,0,0-2.51-.49,3,3,0,0,0-1.26.58,3.68,3.68,0,0,0-1,1.07,3.23,3.23,0,0,0-.41,1.26,3.57,3.57,0,0,0,.1,1.34,3.9,3.9,0,0,0,.6,1.29Z"/><path id="Path_25" data-name="Path 25" class="cls-2" d="M241,259l2.14-2,4.73,5,0,0a4.14,4.14,0,0,1-.07-1.16,4.93,4.93,0,0,1,.26-1.15,4.61,4.61,0,0,1,.52-1.07,4.87,4.87,0,0,1,.73-.9,6.39,6.39,0,0,1,2.39-1.51,5.46,5.46,0,0,1,2.47-.24,6.53,6.53,0,0,1,2.42.84,9.18,9.18,0,0,1,2.19,1.74,9.91,9.91,0,0,1,1.55,2.14,6.75,6.75,0,0,1,.77,2.36,5.12,5.12,0,0,1-.23,2.36,5.19,5.19,0,0,1-1.46,2.2,10.76,10.76,0,0,1-1,.88,6,6,0,0,1-1.19.65,4.45,4.45,0,0,1-1.29.28,3.29,3.29,0,0,1-1.36-.2l0,0,1.27,1.33-2,1.93Zm15.64,1.44a6.46,6.46,0,0,0-1.39-1.11,4.76,4.76,0,0,0-1.55-.62,3.52,3.52,0,0,0-1.58,0,3.16,3.16,0,0,0-1.44.82,3.25,3.25,0,0,0-1.14,2.88,5.7,5.7,0,0,0,1.7,3.15,7,7,0,0,0,1.47,1.19,4.36,4.36,0,0,0,1.57.57,3.82,3.82,0,0,0,1.54-.1A3.71,3.71,0,0,0,258.2,265a3.66,3.66,0,0,0,.1-1.58,4.74,4.74,0,0,0-.57-1.55,7.85,7.85,0,0,0-1.05-1.38"/><path id="Path_26" data-name="Path 26" class="cls-2" d="M255.64,251.9l1.79-2.16L259,251H259a4.94,4.94,0,0,1-.22-2.47,4.71,4.71,0,0,1,1.06-2.27,5,5,0,0,1,3.09-1.94,4.37,4.37,0,0,1,3.45,1.21l7.08,5.88-1.89,2.28-6.48-5.39a3.62,3.62,0,0,0-2.2-.94,2.43,2.43,0,0,0-1.79,1,3.11,3.11,0,0,0-.66,1.21,3,3,0,0,0-.07,1.26,3.62,3.62,0,0,0,.46,1.22,4,4,0,0,0,.91,1.06l6.08,5.05L266,260.47Z"/><path id="Path_27" data-name="Path 27" class="cls-2" d="M264.05,231.61l1.93-2.93,1.07,5.12-1.18,1.81Zm8.34,11.09a5.09,5.09,0,0,0,1.38.64,3.84,3.84,0,0,0,1.43.15,3.16,3.16,0,0,0,1.33-.46,3.57,3.57,0,0,0,1.16-1.16,3.49,3.49,0,0,0,.68-2.07,3.32,3.32,0,0,0-.74-1.9l1.54-2.34a5.47,5.47,0,0,1,1.63,3.68,6,6,0,0,1-.25,2,7.42,7.42,0,0,1-.9,1.91,7.2,7.2,0,0,1-2,2.06,5.77,5.77,0,0,1-2.35.93,6.15,6.15,0,0,1-2.56-.16,8.82,8.82,0,0,1-2.62-1.22,7.82,7.82,0,0,1-2-1.87,7,7,0,0,1-1.17-2.32,6.08,6.08,0,0,1,.84-5.12,6,6,0,0,1,2.11-2,6.28,6.28,0,0,1,2.61-.78,7.21,7.21,0,0,1,2.76.37,7.88,7.88,0,0,1,2.55,1.45Zm2.17-6.84a4.91,4.91,0,0,0-1.29-.49,3.61,3.61,0,0,0-1.31-.06,3.31,3.31,0,0,0-1.22.44,2.93,2.93,0,0,0-1,1,3.54,3.54,0,0,0-.55,1.33,3.27,3.27,0,0,0,0,1.32,3.67,3.67,0,0,0,.54,1.23,3.92,3.92,0,0,0,1,1Z"/><path id="Path_28" data-name="Path 28" class="cls-2" d="M111.7,244.43h18.12l12.53-11.34H117.44V148.32l3-1.36a6.36,6.36,0,0,0,3.63-5.77V128.93a6.53,6.53,0,0,0-6.66-6.11V112.15h85.67v10.66c-5,0-7.56,2.81-7.56,6.27v12a7,7,0,0,0,3.36,5.16l4.19,2.43v23.61l11.35-12.53V145.34a7,7,0,0,0-3.37-5.15l-4.19-2.44v-2.41c5,0,7.56-2.8,7.56-6.26V105.9c0-3.46-2.84-5.09-6.31-5.09H111.7c-3.45,0-6.85,1.63-6.85,5.09v23.17a6.85,6.85,0,0,0,6.77,6.27v2l-3.05,1.45a6.49,6.49,0,0,0-3.73,5.62v93.63a6.9,6.9,0,0,0,6.86,6.38"/><path id="Path_29" data-name="Path 29" class="cls-2" d="M151.2,233.1l-12.52,11.34H163l12.53-11.34Z"/><path id="Path_30" data-name="Path 30" class="cls-2" d="M203.11,181.1v24.34l11.35-12.53V168.57Z"/></g></g></g></g></g></svg>