<svg xmlns="http://www.w3.org/2000/svg" xmlns:xlink="http://www.w3.org/1999/xlink" viewBox="0 0 526.22 691.72"><defs><style>.cls-1{fill:none;}.cls-2{clip-path:url(#clip-path);}.cls-3{fill:#b76d4a;}.cls-4{fill:#88a1ae;}.cls-5{fill:#f7f3e8;}.cls-6{fill:#0a1633;}.cls-7{fill:#81301a;}.cls-8{fill:#c09f59;}</style><clipPath id="clip-path" transform="translate(0)"><rect class="cls-1" width="526.22" height="691.72"/></clipPath></defs><g id="Layer_2" data-name="Layer 2"><g id="Layer_1-2" data-name="Layer 1"><g class="cls-2"><g id="Group_197" data-name="Group 197"><path id="Path_290" data-name="Path 290" class="cls-3" d="M218.9,148.55s-193.15-15.1-212,43.2S8,332.4,65.07,339.93l12-65.15S42.9,268.9,54.9,238s81.5-7.4,104,1c33.73,12.61,15.43,73.73,15.43,73.73L110.94,681.43,459,691.72l-75.17-493.8s23.73-13.72,51.17,3.43,5.14,72-1.71,85.72-133,70.09-133,70.09L312,408.6l124.76-56.37s96-84,89.16-140.6-142-65.15-142-65.15" transform="translate(0)"/><path id="Path_291" data-name="Path 291" class="cls-4" d="M215.19,0V18.57h14.86s5.2,2.88,0,6.19-15.6,3.71-14.86,13.61,3.71,110.18,3.71,110.18,81.72,20.63,164.92-2.07V26.82l-13.37-7,13.37.83V2.47Z" transform="translate(0)"/><path id="Path_292" data-name="Path 292" class="cls-5" d="M266.51,51.23a56.67,56.67,0,0,1,26.41,4.41,56.64,56.64,0,0,1-25.15,9.19,56.54,56.54,0,0,1-26.41-4.41,56.64,56.64,0,0,1,25.15-9.19" transform="translate(0)"/><path id="Path_293" data-name="Path 293" class="cls-5" d="M332.53,51.4a56.69,56.69,0,0,1,25.18,9.11,52.49,52.49,0,0,1-51.57-4.62,56.47,56.47,0,0,1,26.39-4.49" transform="translate(0)"/><path id="Path_294" data-name="Path 294" class="cls-3" d="M278,90.52a16.11,16.11,0,1,1-16.11-16.11A16.12,16.12,0,0,1,278,90.52h0" transform="translate(0)"/><path id="Path_295" data-name="Path 295" class="cls-3" d="M358.73,90.52a16.11,16.11,0,1,1-16.11-16.11,16.11,16.11,0,0,1,16.11,16.11h0" transform="translate(0)"/><path id="Path_296" data-name="Path 296" class="cls-5" d="M302.57,120.41c-.54,0-1.1,0-1.66-.07-9-.77-12.57-9.69-13.23-14.29a2.21,2.21,0,0,1,4.37-.64,17.64,17.64,0,0,0,1.84,5.28c1.76,3.21,4.25,5,7.4,5.25s5.58-.42,7.42-2.11c3.66-3.35,3.76-9.67,3.76-9.74a2.21,2.21,0,0,1,4.42,0c0,.34-.06,8.29-5.19,13a13,13,0,0,1-9.13,3.33" transform="translate(0)"/><path id="Path_297" data-name="Path 297" class="cls-6" d="M259.71,54.6a11.65,11.65,0,0,0,4.22,8.24,2.3,2.3,0,0,0,2.14.56,2.25,2.25,0,0,0,1.55-1.54,5.38,5.38,0,0,0-.05-2.76,15.14,15.14,0,0,1-.46-1.79c0,.2.05.4.08.59a2.57,2.57,0,0,1,0-.62c0,.2-.05.39-.08.58a2.17,2.17,0,0,1,.11-.42c-.07.18-.14.36-.22.53,0-.08.08-.16.13-.24h-3.81q2,2.85,4.19,5.5a2.22,2.22,0,0,0,2.68.34,2.32,2.32,0,0,0,1-2.49,12.81,12.81,0,0,0-1.5-4.1,12.25,12.25,0,0,0-2.7-3.34,3.78,3.78,0,0,0-3.37-1,3.48,3.48,0,0,0-2.38,2.3c-.69,1.84.47,3.58,1.38,5.1a15.8,15.8,0,0,0,1.51,2.28,3.58,3.58,0,0,0,1.09.88,3.37,3.37,0,0,0,.87.32,4,4,0,0,0,1.46,0,2.19,2.19,0,0,0,1.32-1,2.3,2.3,0,0,0,.22-1.7,2.2,2.2,0,0,0-1-1.32,2.51,2.51,0,0,0-1.7-.22h-.1l.59-.08h-.19l.58.08a1.22,1.22,0,0,1-.26-.06l.53.22a1.74,1.74,0,0,1-.33-.18l.45.34a2.37,2.37,0,0,1-.5-.5l.34.45a19,19,0,0,1-1.07-1.72,18.33,18.33,0,0,1-1-1.83l.22.53a2.75,2.75,0,0,1-.21-.69c0,.2.05.4.08.59a1.81,1.81,0,0,1,0-.52c0,.2,0,.39-.07.59a1.48,1.48,0,0,1,.1-.36c-.08.17-.15.35-.23.52a1.5,1.5,0,0,1,.19-.32l-.35.45a1.54,1.54,0,0,1,.25-.26l-.44.35a1,1,0,0,1,.23-.13l-.53.22a1.22,1.22,0,0,1,.26-.06l-.59.08h.22l-.58-.08a1.81,1.81,0,0,1,.31.09l-.53-.23a2.92,2.92,0,0,1,.48.29l-.44-.34a9.93,9.93,0,0,1,1.59,1.65l-.34-.45a11.91,11.91,0,0,1,1.45,2.49c-.07-.18-.15-.35-.22-.53a10.91,10.91,0,0,1,.71,2.43l3.69-2.14c-.58-.69-1.14-1.39-1.7-2.1.12.14.23.3.35.44-.75-1-1.47-1.94-2.15-3a2.32,2.32,0,0,0-1.91-1.09,2.26,2.26,0,0,0-1.91,1.09,4.54,4.54,0,0,0-.4,3.31c.15.69.42,1.34.52,2,0-.2-.06-.39-.08-.59a2.91,2.91,0,0,1,0,.66c0-.2,0-.39.08-.59a2.09,2.09,0,0,1-.08.36l3.69-1a9.55,9.55,0,0,1-1.64-1.66l.35.45a9.7,9.7,0,0,1-1.23-2.11c.08.17.15.35.22.52a9.51,9.51,0,0,1-.64-2.35c0,.19,0,.39.08.59a5.32,5.32,0,0,1-.06-.56,2.36,2.36,0,0,0-.65-1.56,2.21,2.21,0,0,0-3.12,0,2.24,2.24,0,0,0-.64,1.56" transform="translate(0)"/><path id="Path_298" data-name="Path 298" class="cls-6" d="M326.15,54.68a11.6,11.6,0,0,0,4.21,8.24,2.32,2.32,0,0,0,2.15.57A2.23,2.23,0,0,0,334.05,62a5.27,5.27,0,0,0-.05-2.76c-.18-.59-.34-1.19-.46-1.79,0,.19.06.39.08.59a3.32,3.32,0,0,1,0-.63c0,.2-.05.4-.07.59a2,2,0,0,1,.11-.42c-.08.17-.15.35-.22.53a1.92,1.92,0,0,1,.12-.25h-3.81q2,2.85,4.2,5.5a2.21,2.21,0,0,0,2.68.34,2.32,2.32,0,0,0,1-2.49,12.81,12.81,0,0,0-1.5-4.1,12.25,12.25,0,0,0-2.7-3.34,3.78,3.78,0,0,0-3.37-1,3.52,3.52,0,0,0-2.38,2.3c-.69,1.84.47,3.58,1.38,5.1a17.31,17.31,0,0,0,1.51,2.28,3.71,3.71,0,0,0,1.09.88,3.31,3.31,0,0,0,.88.32,3.93,3.93,0,0,0,1.45,0,2.21,2.21,0,0,0,.53-4,2.56,2.56,0,0,0-1.7-.22h-.1l.59-.08h-.19l.59.08a1.31,1.31,0,0,1-.27-.06l.53.22a1.74,1.74,0,0,1-.33-.18l.45.34a3,3,0,0,1-.5-.5l.35.45a19,19,0,0,1-1.07-1.72,19.37,19.37,0,0,1-1-1.82c.07.17.14.35.22.52a3.34,3.34,0,0,1-.21-.68c0,.19.05.39.08.58a2.25,2.25,0,0,1,0-.52c0,.2-.05.4-.07.59a1.61,1.61,0,0,1,.1-.36c-.08.18-.15.35-.22.53a2.11,2.11,0,0,1,.18-.33l-.35.45a2.13,2.13,0,0,1,.26-.26l-.45.35a1.71,1.71,0,0,1,.23-.13l-.53.22a2.44,2.44,0,0,1,.26-.06l-.58.08H331l-.58-.07a1.77,1.77,0,0,1,.31.08l-.53-.22a2.87,2.87,0,0,1,.48.28l-.45-.34a9.93,9.93,0,0,1,1.59,1.65l-.34-.44a10.81,10.81,0,0,1,1.45,2.48c-.07-.18-.15-.35-.22-.53a11,11,0,0,1,.71,2.44l3.69-2.15c-.58-.69-1.14-1.39-1.7-2.1l.35.45c-.74-1-1.46-1.95-2.15-2.95a2.27,2.27,0,0,0-1.91-1.09,2.22,2.22,0,0,0-1.9,1.09,4.44,4.44,0,0,0-.4,3.31c.14.68.41,1.34.51,2,0-.19-.05-.39-.08-.58a2.84,2.84,0,0,1,0,.65c0-.2,0-.39.08-.59a1.53,1.53,0,0,1-.08.37l3.7-1a8.84,8.84,0,0,1-1.64-1.65c.11.15.22.3.34.44A9.7,9.7,0,0,1,331,56.48l.22.53a9.59,9.59,0,0,1-.64-2.36c0,.2,0,.4.08.59,0-.18,0-.37-.06-.55a2.29,2.29,0,0,0-.65-1.56,2.21,2.21,0,0,0-1.56-.65,2.24,2.24,0,0,0-2.2,2.21" transform="translate(0)"/><path id="Path_299" data-name="Path 299" class="cls-7" d="M360.58,139.17a4.3,4.3,0,1,1-4.3-4.3,4.3,4.3,0,0,1,4.3,4.3h0" transform="translate(0)"/><path id="Path_300" data-name="Path 300" class="cls-3" d="M342.62,133.41a4.3,4.3,0,1,1-4.3-4.3,4.29,4.29,0,0,1,4.3,4.3h0" transform="translate(0)"/><path id="Path_301" data-name="Path 301" class="cls-8" d="M360.58,124.27a4.3,4.3,0,1,1-4.3-4.3,4.3,4.3,0,0,1,4.3,4.3h0" transform="translate(0)"/><path id="Path_302" data-name="Path 302" class="cls-7" d="M298.27,86a.71.71,0,0,0-.14.1h4.45l-.14-.09q1,2.49,2,5l0-.11-2,2.64.11-.06-3.4.44.11.05c1.65.56,4.26-.34,5-2a5.43,5.43,0,0,0-.07-5.31,5.06,5.06,0,0,0-6.94-1.79,5,5,0,0,0-1.81,1.83,5.33,5.33,0,0,0,0,5.31,4.37,4.37,0,0,0,3.82,2.18,4.65,4.65,0,0,0,3.81-2.18c1.5-1.94,1.51-4.49,1.11-6.79-.15-.85-.39-1.68-.62-2.52-.09-.31-.17-.61-.25-.92s-.45-1.74-.15-.65a11.74,11.74,0,0,1-.16-2.58c0-1.07-.06-2.13-.1-3.2l-.18-6a4.42,4.42,0,0,0-8.83,0c.11,3.69.09,7.42.37,11.1a31.22,31.22,0,0,0,1,5.6c.09.32.17.63.24.95s.09.42.12.63c-.08-.66-.1-.74-.06-.25,0,.32-.16,1.24.05,0-.14.46-.1.37.13-.25a2.69,2.69,0,0,1-.34.49h7.62l-.1-.2.6,2.23L301,92.74h-2.35l-2.51-3.3.6-2.22-.09.2,5-2A4.59,4.59,0,0,0,296,88.56l0,0a4.52,4.52,0,0,0,2,5l.15.09a4.29,4.29,0,0,0,4.45,0l.14-.1c1.86-1.36,3-3.88,1.59-6-1.19-1.83-4.06-3.05-6-1.58" transform="translate(0)"/><path id="Path_303" data-name="Path 303" class="cls-7" d="M296.29,85.21c.22.82-.1-.88-.06-.35s.17-1.06,0-.28a16,16,0,0,0-.28,2.19,5.68,5.68,0,0,0,2.65,5,5.19,5.19,0,0,0,6.26-1,7.64,7.64,0,0,0,1.78-5.18A51.33,51.33,0,0,0,305,71.12l-8.51,2.35a36.66,36.66,0,0,1,1,4.14,6.39,6.39,0,0,1,.16,1c0-1.19,0,.05,0,.33.07.73.13,1.46.16,2.19s0,1.36,0,2c0,.37,0,.73,0,1.09a3.71,3.71,0,0,1,0,.47c-.05.5,0,.41,0-.26a4.27,4.27,0,0,1-.19.86c-.13.36-.13.36,0,0s.15-.37,0,0c.47-.55.55-.67.25-.35l.54-.45a3,3,0,0,1,3.77.57,1.75,1.75,0,0,1,.8,1.13c-.09-.37-.1-.36,0,0s0,.39,0,0c0-.21,0-.42,0-.63,0-.68.08-1.36.12-2,.11-1.54.24-3.07.38-4.59s.3-3,.48-4.57c.08-.7.17-1.4.26-2.1,0-.35.09-.7.13-1-.16,1.2.06-.34.08-.57a4.79,4.79,0,0,0-.44-3.4,4.46,4.46,0,0,0-2.64-2c-2.08-.48-5.08.63-5.43,3.08-.46,3.24-.87,6.49-1.18,9.75q-.22,2.19-.39,4.41a24,24,0,0,0-.15,4.32c.27,2.42,1.3,4.63,3.66,5.63a5.82,5.82,0,0,0,6.34-1.33c2.47-2.45,2.58-6.37,2.47-9.63A40.68,40.68,0,0,0,305,71.13a4.42,4.42,0,1,0-8.53,2.29l0,0c.3,1.19.56,2.39.77,3.6.06.34.12.67.17,1,0,.14.15,1.1.06.43s0,.29.05.43c0,.34.07.68.1,1q.18,1.89.21,3.78c0,.56,0,1.12,0,1.68,0,.36-.22,1.16.05,0l-.06.28c.68-1.81,2.37-2.38,5.09-1.69.52.53,1.05,1,1.58,1.58a3.39,3.39,0,0,1,.3,1.4,3.85,3.85,0,0,1,0-.48c-.11.75-.12.89-.05.41l.06-.39a8.31,8.31,0,0,0,0-3.68,4.42,4.42,0,1,0-8.53,2.3l0,0" transform="translate(0)"/><path id="Path_304" data-name="Path 304" class="cls-7" d="M373.35,129.12a4.3,4.3,0,1,1-4.3-4.3,4.31,4.31,0,0,1,4.3,4.3h0" transform="translate(0)"/><path id="Path_305" data-name="Path 305" class="cls-3" d="M297.11,354.25a38.59,38.59,0,0,0-26.9-3.46,34.38,34.38,0,0,0-12.28,5.38,9.76,9.76,0,0,0-4.18,5.53,8.31,8.31,0,0,0,1.3,6.37c3.35,4.92,9.27,5.33,14.71,5.22,2.84-.06,2.85-4.47,0-4.42-3.52.08-8,.33-10.55-2.6a4,4,0,0,1-1.12-3.7c.46-1.51,1.91-2.52,3.18-3.32A33.92,33.92,0,0,1,283,354.38a32.34,32.34,0,0,1,11.88,3.69c2.5,1.35,4.73-2.47,2.23-3.81" transform="translate(0)"/><path id="Path_306" data-name="Path 306" class="cls-4" d="M131.69,392.11v23.78h13.8s4.83,3.7,0,7.93-14.49,4.75-13.8,17.44,3.45,141.08,3.45,141.08,75.86,26.42,153.1-2.64V426.46l-12.41-9,12.41,1.06V395.29Z" transform="translate(0)"/><path id="Path_307" data-name="Path 307" class="cls-5" d="M227.75,438.26a22.21,22.21,0,0,0,6.9,5.18,51.75,51.75,0,0,0,8.26,3.6,54.12,54.12,0,0,0,17.85,2.81,2.22,2.22,0,0,0,2.2-2.24,2,2,0,0,0-.07-.55c-.92-2.61-4-4-6.3-5.23a45.43,45.43,0,0,0-7.67-3.18,47.3,47.3,0,0,0-8.24-1.71c-2-.25-4.85-.09-6.54-1.44-.32,1.23-.65,2.46-1,3.69,5.2-1,10.11.43,14.49,3.24a65.81,65.81,0,0,0,6.51,4c2.21,1.09,4.84,1.72,6.76,3.32l2.68-3.47a51.11,51.11,0,0,0-8.93-4.18c-2.33-.83-6.82-2.65-8.29.52l3-.79a33.42,33.42,0,0,0-5-2.3c-2.34-.87-3.91,2.9-1.7,4l2.11,1.08,1.7-4-4.09-1.35c-1.47-.49-3.37,1.15-2.71,2.71a6.84,6.84,0,0,0,4.42,4.07c2.14.68,3.65-2.17,2.14-3.69a15.52,15.52,0,0,0-5.48-3.5,2.21,2.21,0,0,0-2.71,2.71,11.45,11.45,0,0,0,5.1,6.13c2.47,1.46,4.53-2.22,2.22-3.81a58.69,58.69,0,0,0-11.61-6.16c-1.78-.73-3.51,1.72-2.49,3.24,7.2,10.74,21.88,10,33.15,8.67a2.24,2.24,0,0,0,2.15-2.33,2.2,2.2,0,0,0-.6-1.44c-3.29-4.24-8.93-5.78-13.9-7-6.3-1.53-12.67-2.78-19-4.12-2.77-.59-3.95,3.66-1.17,4.26,6.06,1.28,12.14,2.49,18.17,3.91,4.54,1.07,9.78,2.18,12.79,6.06.53-1.26,1.05-2.51,1.57-3.77-5.84.69-11.94,1.41-17.76.22-4.39-.89-9-2.86-11.58-6.7l-2.5,3.24a54.44,54.44,0,0,1,10.56,5.72l2.23-3.81a6.8,6.8,0,0,1-3.07-3.49l-2.72,2.71a10.35,10.35,0,0,1,3.54,2.37l2.14-3.69a2.15,2.15,0,0,1-1.33-1l-2.72,2.72,4.09,1.35c2.36.78,3.94-2.88,1.7-4l-2.1-1.09-1.7,4a26.86,26.86,0,0,1,3.91,1.85,2.23,2.23,0,0,0,3-.8l-.37.29c-.43.09-.51.13-.24.11a1.86,1.86,0,0,0,.41,0,11.38,11.38,0,0,1,1.41.41c1.21.37,2.4.79,3.58,1.25a44.74,44.74,0,0,1,6.39,3.18c2.09,1.24,4.64-1.83,2.67-3.47-2.24-1.86-4.9-2.67-7.49-3.91a79.25,79.25,0,0,1-7.31-4.51A24,24,0,0,0,232,434.92a2.22,2.22,0,0,0-1.53,2.74,2.35,2.35,0,0,0,.56.95c2.12,1.7,4.54,2.19,7.18,2.48a52,52,0,0,1,7.34,1.19,40.35,40.35,0,0,1,7.14,2.51c1.13.54,2.23,1.12,3.31,1.74.58.35,1.16.71,1.73,1.08l.73.5c.2.14.33.56.18.12.7-.94,1.41-1.87,2.12-2.79a50.47,50.47,0,0,1-16.31-2.54,45.29,45.29,0,0,1-7.24-3.09,19.69,19.69,0,0,1-6.33-4.67,2.24,2.24,0,0,0-3.13,0,2.27,2.27,0,0,0,0,3.12" transform="translate(0)"/><path id="Path_308" data-name="Path 308" class="cls-6" d="M240.28,437.51a11.35,11.35,0,0,0,1.53,8.68,2.24,2.24,0,0,0,3.08.73,2.45,2.45,0,0,0,.74-.73,5.91,5.91,0,0,0,.7-3.08c0-.18,0-.37,0-.55s0-.18,0-.27c0-.43,0,.21,0,.22s.25-.78.05-.31,0,0,0,0-.44.49-.09.15l-3.69-1q.87,2.83,2,5.57a2.36,2.36,0,0,0,1,1.32,2.21,2.21,0,0,0,1.4.26,2,2,0,0,0,1.27-.6,2.57,2.57,0,0,0,.65-1.56,12.65,12.65,0,0,0-.25-4.25,11,11,0,0,0-1.59-3.84,3.55,3.55,0,0,0-2.83-1.66,3.38,3.38,0,0,0-2.82,1.66c-1,1.6-.41,3.49,0,5.18a11.53,11.53,0,0,0,.74,2.38,3.21,3.21,0,0,0,2.22,1.8,2.4,2.4,0,0,0,1.7-.22,2.2,2.2,0,0,0,.79-3,2.1,2.1,0,0,0-1.32-1c-.46-.07.14.09.31.21s.19.16.07.05c.24.32.29.39.17.2s-.1-.36,0,.14c0-.11-.08-.21-.11-.32-.19-.61-.3-1.24-.45-1.85-.09-.36-.18-.71-.26-1.07,0-.07,0-.15,0-.23s0-.1,0,.21a2.23,2.23,0,0,1,0-.45c-.06.34-.06.39,0,.14s0-.15-.08.19c.16-.35-.35.34,0,.06a.81.81,0,0,1-.42.26c-.2.08-.21.09-.05,0a1.39,1.39,0,0,1-1.14-.14c.15.09.14.07,0-.05s-.17-.13,0,0q-.33-.44-.12-.15c.06.11.13.21.2.33a7.68,7.68,0,0,1,.41.81c.23.51-.12-.37,0,.05.05.14.1.27.14.4a8.89,8.89,0,0,1,.26.88c0,.16.07.32.1.48s0,.34.07.42c0-.35,0-.41,0-.17V444c0,.16,0,.32,0,.5a11.13,11.13,0,0,1-.07,1.91l4.33-.59q-1.12-2.73-2-5.57a2.23,2.23,0,0,0-2.77-1.51,2.38,2.38,0,0,0-.92.54,4.66,4.66,0,0,0-1.25,3.33c0,.4,0,.81,0,1.21,0,.1-.06.44,0,0s0-.08,0,0a1.06,1.06,0,0,1-.1.3c.08-.06.27-.54,0-.16h3.81a5.62,5.62,0,0,1-.45-.74,4.11,4.11,0,0,1-.21-.42c-.08-.15-.17-.54,0,0-.16-.54-.36-1.06-.47-1.62,0-.13-.05-.26-.07-.4s0-.09,0,.25a2.13,2.13,0,0,1,0-.27,7.32,7.32,0,0,1,0-.81c0-.27,0-.54.05-.81,0-.47-.09.47,0,0,0-.17.06-.35.1-.53a2.21,2.21,0,1,0-4.26-1.17h0" transform="translate(0)"/><path id="Path_309" data-name="Path 309" class="cls-5" d="M159.63,444.62a23.28,23.28,0,0,0,8.72,2.42,50.05,50.05,0,0,0,8.74.32,54.38,54.38,0,0,0,17.51-3.87,2.24,2.24,0,0,0,1.48-2.8,2.27,2.27,0,0,0-.51-.89c-1.65-1.91-5.13-2-7.46-2.3a43.22,43.22,0,0,0-8.12-.17,46,46,0,0,0-8.1,1.3c-2.34.59-5,1.83-7.39,1.09.17,1.34.35,2.69.53,4a19.49,19.49,0,0,1,14.31-2.55c2.68.51,5.31,1.2,8,1.46s5.33-.11,7.87.72l1.18-4.26a51.26,51.26,0,0,0-10.27-.67c-2.79.12-7.15.15-7.37,3.86l2.79-2.13a34.57,34.57,0,0,0-5.48-.38,2.21,2.21,0,0,0,0,4.42l2.36.24V440l-4.3.24a2.24,2.24,0,0,0-1.56,3.77,6.62,6.62,0,0,0,5.16,1.95,2.28,2.28,0,0,0,2.13-1.63,2.21,2.21,0,0,0-1-2.49,15.78,15.78,0,0,0-6.38-1.38,2.24,2.24,0,0,0-1.57,3.77,11,11,0,0,0,6.54,3.55,2.27,2.27,0,0,0,2.71-1.54,2.23,2.23,0,0,0-1.54-2.72A60,60,0,0,0,165.55,442c-2.31,0-2.84,2.92-1.11,4.11,4.82,3.33,11.06,3.66,16.66,2.65,6.2-1.11,11.92-4.11,17.41-7.06a2.23,2.23,0,0,0,.75-3.06,2.15,2.15,0,0,0-.75-.75c-5-3-11-2.17-16.51-1.4-6.28.89-12.52,2-18.77,3.08a2.22,2.22,0,0,0-1.54,2.72,2.26,2.26,0,0,0,2.71,1.54c5.83-1,11.65-2,17.5-2.9,4.58-.69,10.16-1.72,14.38.77V437.9c-5,2.68-10.06,5.32-15.64,6.48-4.69,1-9.93.72-14-2.07l-1.11,4.12a54.25,54.25,0,0,1,11.9,1.38l1.17-4.25a7.29,7.29,0,0,1-4.58-2.41c-.53,1.26-1.05,2.51-1.56,3.77a10.37,10.37,0,0,1,4.15.77l1.11-4.11a2.37,2.37,0,0,1-2-.65l-1.56,3.77,4.3-.24a2.21,2.21,0,0,0,0-4.42l-2.36-.24v4.42a26.83,26.83,0,0,1,4.3.22,2.26,2.26,0,0,0,2.73-1.64,2.63,2.63,0,0,0,.07-.49l-.51,1,.23-.13.28,0a11.84,11.84,0,0,1,1.46-.15c1.2-.08,2.41-.13,3.61-.12a42.73,42.73,0,0,1,7,.55c2.77.44,3.93-3.36,1.18-4.26s-5.89-.59-8.85-.85c-2.78-.25-5.48-1.1-8.23-1.54a23.82,23.82,0,0,0-16.54,3.21,2.25,2.25,0,0,0-.71,3.08,2.18,2.18,0,0,0,1.24,1c2.53.78,5.12.2,7.59-.5a48.51,48.51,0,0,1,7.44-1.58,42.21,42.21,0,0,1,7.54-.17,31.17,31.17,0,0,1,3.61.42c.8.13,2.4.15,2.94.8.33-1.23.65-2.46,1-3.69a50.91,50.91,0,0,1-15.94,3.68,49.6,49.6,0,0,1-8-.16,19.71,19.71,0,0,1-7.64-1.95c-2.48-1.4-4.71,2.42-2.23,3.81" transform="translate(0)"/><path id="Path_310" data-name="Path 310" class="cls-6" d="M177,435.72a11.21,11.21,0,0,0-2.79,8.32,2.29,2.29,0,0,0,1.1,1.9,2.2,2.2,0,0,0,2.22,0,5.85,5.85,0,0,0,2.08-2.33c.17-.31.39-.61.55-.93-.23.45-.26.31-.09.13s.32-.26,0,0-.05,0,0,0c.3-.19-.53.19-.16.08l-2.71-2.71c-.43,2.13-.74,4.28-1,6.44a2.21,2.21,0,0,0,1.62,2.12,2.28,2.28,0,0,0,2.49-1,12,12,0,0,0,2.07-5c.35-2.19.54-5.38-2.16-6.12a3.58,3.58,0,0,0-3.54,1.13,7.11,7.11,0,0,0-1.35,3,18.89,18.89,0,0,0-.67,3,3.67,3.67,0,0,0,.14,1.44,3.42,3.42,0,0,0,1.36,1.77,2.21,2.21,0,0,0,3-.8,2.19,2.19,0,0,0,.22-1.7,2.6,2.6,0,0,0-1-1.32c.5.6.68.77.52.5s0-.06.11.27c.15.52,0,.35,0,.1,0-.41-.12.5,0,.07,0-.1,0-.21.07-.32.16-.67.35-1.34.52-2,.09-.31.19-.62.27-.94s-.16.26,0,0a1.28,1.28,0,0,1,.11-.2c.1-.17.1-.17,0,0s-.11.14,0,0l-.23.18c.36-.25-.43.13,0,0a1.29,1.29,0,0,1-1.56-.82c.14.38,0-.5,0-.06,0,.13,0,.25,0,.37a8.33,8.33,0,0,1,0,.86,1.25,1.25,0,0,1,0,.47c0-.3,0-.37,0-.2a1.57,1.57,0,0,0,0,.23c-.06.31-.12.61-.2.92s-.16.55-.26.82a1.66,1.66,0,0,1-.14.37c.12-.29.13-.31,0-.09l-.06.14a11.07,11.07,0,0,1-1,1.63l4.11,1.12c.05-.48.1-1,.16-1.43,0-.11,0-.23.05-.35,0,.29-.05.31,0,.05s.07-.47.1-.71c.14-1,.31-1.89.5-2.83a2.28,2.28,0,0,0-.57-2.14,2.22,2.22,0,0,0-2.15-.57,4.54,4.54,0,0,0-2.69,2.28c-.2.35-.39.72-.6,1.06l-.16.22c-.13.22.37-.4.12-.16a2.39,2.39,0,0,0-.23.22c.08-.13.46-.31.11-.11l3.32,1.91a8.68,8.68,0,0,1,0-1.69,1.79,1.79,0,0,1,0-.23c-.05.32-.06.39,0,.22s0-.24.07-.36c.06-.29.13-.58.22-.87s.09-.28.14-.42.16-.49,0-.15,0-.08.07-.15.14-.27.2-.4a8.81,8.81,0,0,1,.47-.77,1.14,1.14,0,0,1,.26-.36l-.16.21a2.11,2.11,0,0,1,.19-.23,2.21,2.21,0,0,0-3.12-3.13" transform="translate(0)"/><path id="Path_311" data-name="Path 311" class="cls-7" d="M212.31,443.28s-6.19,4.17-7.42,6.66-3.83,5.13-4.76,9-2.46,11.2.75,13.1,5.69,2.19,8.47.64,6.81-6.06,7.26-10.8-.64-12.69-.64-12.69Z" transform="translate(0)"/><path id="Path_312" data-name="Path 312" class="cls-7" d="M158.34,547.43s-6.2,4.18-7.43,6.66-3.82,5.13-4.75,9-2.46,11.2.75,13.1,5.69,2.18,8.47.63,6.81-6,7.26-10.8-.64-12.68-.64-12.68Z" transform="translate(0)"/><path id="Path_313" data-name="Path 313" class="cls-7" d="M167.81,562s1.06,7.39,2.76,9.58,3,5.69,6.06,8.23,9,7.1,12.12,5,4.44-4.17,4.26-7.34-2.47-8.78-6.54-11.25-11.7-5-11.7-5Z" transform="translate(0)"/><path id="Path_314" data-name="Path 314" class="cls-7" d="M188.17,556.25s1.05,7.39,2.75,9.58,3,5.69,6.07,8.22,9,7.1,12.11,5.05,4.45-4.17,4.27-7.35-2.48-8.77-6.55-11.24-11.7-5-11.7-5Z" transform="translate(0)"/><path id="Path_315" data-name="Path 315" class="cls-7" d="M228.42,558.78s-6.9,2.86-8.6,5.05-4.77,4.27-6.46,7.92-4.64,10.49-1.87,13,5.14,3.28,8.18,2.31,7.88-4.58,9.26-9.13,1.89-12.57,1.89-12.57Z" transform="translate(0)"/><path id="Path_316" data-name="Path 316" class="cls-7" d="M160.74,534.43s1,7.39,2.76,9.59,2.94,5.68,6.06,8.22,9,7.1,12.11,5,4.45-4.16,4.27-7.34-2.48-8.78-6.55-11.25-11.7-5-11.7-5Z" transform="translate(0)"/><path id="Path_317" data-name="Path 317" class="cls-7" d="M146,556.44s5-5.51,5.66-8.22,2.51-5.88,2.5-9.9-.23-11.47-3.8-12.56-6-.79-8.39,1.37-5.2,7.48-4.53,12.2,3.6,12.18,3.6,12.18Z" transform="translate(0)"/><path id="Path_318" data-name="Path 318" class="cls-5" d="M212.05,492.49c-.62,0-1.26,0-1.91-.05-6.84-.37-10.76-3.35-12.85-5.79a13.77,13.77,0,0,1-2.95-5.49,2.21,2.21,0,0,1,4.3-1c.08.33,1.93,7.34,11.74,7.87,5.25.29,9.17-.73,11.63-3a8.47,8.47,0,0,0,2.69-5.63,2.24,2.24,0,0,1,2.23-2.18,2.2,2.2,0,0,1,2.19,2.2,13,13,0,0,1-4,8.77c-3,2.87-7.41,4.32-13,4.32" transform="translate(0)"/><path id="Path_319" data-name="Path 319" class="cls-7" d="M293.23,379.4c-.32-1.8-3-1.44-4.63-.61l-18.85,9.63c-3.05,1.57-6.23,3.23-8.23,6s-2.41,7.05.05,9.45c2.79,2.7,7.46,1.7,10.86-.18s6.67-4.51,10.56-4.62a33.3,33.3,0,0,0-13.93,21.47c-.3,1.71-.34,3.78,1,4.84a4.86,4.86,0,0,0,3.84.44,31.25,31.25,0,0,0,16.4-8.8c-4.65,3.33-6.58,9.2-8.24,14.67-1.14,3.78-1.75,8.94,1.79,10.7,3,1.51,6.43-.88,8.93-3.12q6.17-5.49,12.31-11" transform="translate(0)"/><path id="Path_320" data-name="Path 320" class="cls-4" d="M95.51,299.93l-68.9-64.12L39.79,224l71,70.44,106.07,48.81-35.12,41.64S110.31,353.07,109,349.5s-13.51-49.57-13.51-49.57" transform="translate(0)"/><path id="Path_321" data-name="Path 321" class="cls-7" d="M65.07,339.93c5.71,3.63,10.16,5.3,16.91,5.79s14.34-3.49,15.44-10.17c.77-4.67-1.83-9.39-5.46-12.43s-8.17-4.73-12.62-6.36a66.47,66.47,0,0,0,27,3.11c1.77-.16,3.93-.72,4.33-2.46a4.12,4.12,0,0,0-.42-2.44,28.14,28.14,0,0,0-21.8-16.88,23.93,23.93,0,0,0,18.75,1.53A4.51,4.51,0,0,0,110,297.7c.72-1.42-.09-3.13-.95-4.48C101.78,281.93,88.37,281.5,75,280.81" transform="translate(0)"/><path id="Path_322" data-name="Path 322" class="cls-7" d="M197.07,378.11a5.56,5.56,0,1,1-5.56-5.56,5.56,5.56,0,0,1,5.56,5.56" transform="translate(0)"/><path id="Path_323" data-name="Path 323" class="cls-3" d="M122.24,334.2a5.56,5.56,0,1,1,5.56,5.56,5.55,5.55,0,0,1-5.56-5.56h0" transform="translate(0)"/><path id="Path_324" data-name="Path 324" class="cls-5" d="M159.67,337a5.56,5.56,0,1,1-5.56-5.55h0a5.55,5.55,0,0,1,5.56,5.55" transform="translate(0)"/><path id="Path_325" data-name="Path 325" class="cls-5" d="M170.51,361.54A5.56,5.56,0,1,1,165,356a5.57,5.57,0,0,1,5.56,5.56" transform="translate(0)"/><path id="Path_326" data-name="Path 326" class="cls-7" d="M220.59,405.05a5.56,5.56,0,1,1-5.56-5.56,5.55,5.55,0,0,1,5.56,5.56h0" transform="translate(0)"/><path id="Path_327" data-name="Path 327" class="cls-7" d="M174.7,333.65s-.9,6.42,0,8.66,1.1,5.45,3.09,8.32,5.81,8.1,8.9,7.12,4.71-2.41,5.32-5.11,0-7.92-2.76-11a62.16,62.16,0,0,0-8.58-6.94Z" transform="translate(0)"/></g></g></g></g></svg>