<svg xmlns="http://www.w3.org/2000/svg" xmlns:xlink="http://www.w3.org/1999/xlink" viewBox="0 0 498.48 736.25"><defs><style>.cls-1{fill:none;}.cls-2{clip-path:url(#clip-path);}.cls-3{fill:#c5c3bd;}.cls-4{fill:#f7f3e8;}.cls-5{fill:#0a1633;}.cls-6{fill:#b76d4a;}.cls-7{fill:#757656;}.cls-8{fill:#4e5129;}.cls-9{fill:#859087;}.cls-10{fill:#c09f59;}</style><clipPath id="clip-path" transform="translate(0 0)"><rect class="cls-1" width="498.48" height="736.25"/></clipPath></defs><g id="Layer_2" data-name="Layer 2"><g id="Layer_1-2" data-name="Layer 1"><g id="Group_200" data-name="Group 200"><g class="cls-2"><g id="Group_199" data-name="Group 199"><path id="Path_330" data-name="Path 330" class="cls-3" d="M187.78,239.33l14.86,85.72H347.42l14.95-85.72c.38-2.19-174.59,0-174.59,0" transform="translate(0 0)"/><path id="Path_331" data-name="Path 331" class="cls-4" d="M296.3,263.87a25.3,25.3,0,0,0,7.25,3.2,72.43,72.43,0,0,0,7.83,2,87.89,87.89,0,0,0,17.2,1.6,2.26,2.26,0,0,0,2.22-2.29,2.23,2.23,0,0,0-.29-1.07,5.76,5.76,0,0,0-3.12-2.13c-1.11-.45-2.24-.84-3.38-1.2a59.68,59.68,0,0,0-7.57-1.85,73.07,73.07,0,0,0-8.08-1c-2.1-.15-4.61,0-6.56-.91-.38,1.38-.75,2.77-1.13,4.16a32.07,32.07,0,0,1,15,1.8c2.3.86,4.54,1.87,6.89,2.56,2.19.65,4.58.94,6.64,2,.58-1.37,1.15-2.73,1.73-4.09a64.85,64.85,0,0,0-8.41-2.37c-2.11-.45-6.16-1.78-7.83.3l2.17-.57a41.56,41.56,0,0,0-4.4-1.23,2.24,2.24,0,0,0-1.19,4.31l2.09.64,1.19-4.31-4.06-.8c-1.71-.34-3.75,1.56-2.52,3.28a6.44,6.44,0,0,0,4.19,2.53c2.41.47,4-2.72,1.72-4.08a17.68,17.68,0,0,0-5-2,2.25,2.25,0,0,0-2.52,3.28,9.66,9.66,0,0,0,5.37,3.88,2.25,2.25,0,0,0,2.75-1.56,2.28,2.28,0,0,0-1.56-2.74,74.29,74.29,0,0,0-11-3.53c-2.05-.5-3.92,2.18-2.17,3.73,3.88,3.45,9.34,4.63,14.35,5.24,6,.74,12.14.34,18.18-.09a2.25,2.25,0,0,0,1.12-4.16c-4-3.07-9.87-3.56-14.7-4.23-6-.84-12.05-1.57-18.07-2.33a2.23,2.23,0,0,0-2.23,2.23,2.28,2.28,0,0,0,2.23,2.23c5.63.72,11.26,1.39,16.88,2.18,2.55.35,5.1.71,7.61,1.3a15.42,15.42,0,0,1,6,2.47c.37-1.38.75-2.77,1.13-4.16a102.44,102.44,0,0,1-17,.22,35.39,35.39,0,0,1-7.07-1.39,14.12,14.12,0,0,1-5.33-2.68L300.72,266a73.92,73.92,0,0,1,11,3.53l1.19-4.31a5.33,5.33,0,0,1-2.71-1.83l-2.52,3.28a13.53,13.53,0,0,1,3.93,1.52l1.72-4.08a5.71,5.71,0,0,1-1.08-.28c-.08,0-.65-.5-.43-.2l-2.53,3.28,4.06.8c2.8.55,4-3.45,1.18-4.31l-2.08-.64L311.24,267a41.56,41.56,0,0,1,4.4,1.23,2.18,2.18,0,0,0,2.17-.58s-.5.31-.56.25a4.82,4.82,0,0,0,.76,0,9.83,9.83,0,0,1,1.21.19c1.24.22,2.48.48,3.71.77a66.67,66.67,0,0,1,6.78,2c2.37.85,4-3,1.72-4.08a38.9,38.9,0,0,0-7.16-2.25c-2.55-.7-5-1.79-7.44-2.72a35,35,0,0,0-16.16-2,2.34,2.34,0,0,0-2.16,1.64,2.25,2.25,0,0,0,1,2.52,17.83,17.83,0,0,0,6.72,1.39c2.46.16,4.92.32,7.36.7a62.05,62.05,0,0,1,7.14,1.51c1.19.33,2.36.69,3.51,1.09l1.59.58c.23.09.45.2.68.28s.44.47.11-.06l1.93-3.36a81.11,81.11,0,0,1-16-1.45,68.11,68.11,0,0,1-7.29-1.82,22.43,22.43,0,0,1-6.73-2.93,2.25,2.25,0,0,0-3.05.8,2.28,2.28,0,0,0,.8,3.06" transform="translate(0 0)"/><path id="Path_332" data-name="Path 332" class="cls-4" d="M217.29,268.75a25.27,25.27,0,0,0,7.88,1,68,68,0,0,0,8.07-.3,86.66,86.66,0,0,0,17-3.3,2.26,2.26,0,0,0,1-3.74c-1.75-1.58-4.84-1.35-7.07-1.4a60.51,60.51,0,0,0-7.73.34,74.45,74.45,0,0,0-8,1.28c-2.1.46-4.57,1.4-6.76,1.05V268A31.92,31.92,0,0,1,236,265.48c2.55.16,5.07.53,7.61.55,2.35,0,4.81-.42,7.13,0l.6-4.39a65.39,65.39,0,0,0-9.07.13c-2.6.21-6.17.12-7.33,2.94l2.15-1.64a43.36,43.36,0,0,0-4.56.06c-2.85.19-2.9,4.43,0,4.47l2.18,0v-4.47l-4.11.38a2.25,2.25,0,0,0-1.13,4.16,6.18,6.18,0,0,0,4.29.94c2.38-.22,3.18-3.71.59-4.39a17.68,17.68,0,0,0-5.37-.49c-1.83.1-3.09,2.44-1.58,3.82a9.81,9.81,0,0,0,6.26,2.25,2.24,2.24,0,1,0,0-4.47,74,74,0,0,0-11.53-.28c-2,.1-3.27,3.15-1.12,4.16,4.82,2.27,10.53,1.84,15.64.95a96.69,96.69,0,0,0,17-5.15,2.26,2.26,0,0,0,0-4.31c-4.85-1.86-10.74-.61-15.7.13-5.88.87-11.74,1.86-17.61,2.8a2.24,2.24,0,0,0-1.56,2.74,2.28,2.28,0,0,0,2.75,1.56c5.58-.9,11.15-1.83,16.75-2.67,2.54-.38,5.1-.76,7.67-.91a15.45,15.45,0,0,1,6.51.66v-4.31a105.23,105.23,0,0,1-15.81,4.92,36.7,36.7,0,0,1-7.39.76,14.53,14.53,0,0,1-6-1c-.38,1.38-.75,2.77-1.13,4.16a74.13,74.13,0,0,1,11.54.28v-4.46a5.38,5.38,0,0,1-3.11-1c-.53,1.27-1.06,2.54-1.58,3.81a13.68,13.68,0,0,1,4.18.34l.6-4.39a2.63,2.63,0,0,1-2-.33L230.61,268l4.12-.37c2.81-.26,2.92-4.43,0-4.47l-2.19,0v4.47a43.55,43.55,0,0,1,4.57-.06,2.29,2.29,0,0,0,2.15-1.64,1.11,1.11,0,0,0,.07-.16l-.58,1c-.15.19-.12,0,.08,0l.31-.06a8.3,8.3,0,0,1,1.4-.21c1.23-.14,2.46-.24,3.7-.31a67.45,67.45,0,0,1,7.11,0c2.47.14,3.09-3.95.59-4.39a44.15,44.15,0,0,0-7.88-.14c-2.7,0-5.36-.38-8-.55a34.86,34.86,0,0,0-15.56,2.71,2.33,2.33,0,0,0-1.64,2.15,2.24,2.24,0,0,0,1.64,2.16,18.42,18.42,0,0,0,7-.56c2.47-.56,4.93-1.1,7.45-1.44a59.07,59.07,0,0,1,7-.52c1.19,0,2.37,0,3.56.05.57,0,1.14.06,1.71.11a6.54,6.54,0,0,0,.75.07c.32,0,.57.3.08-.13l1-3.74A80.71,80.71,0,0,1,233.24,265a69.57,69.57,0,0,1-7.5.31,22.28,22.28,0,0,1-7.26-.9,2.24,2.24,0,0,0-1.19,4.31" transform="translate(0 0)"/><path id="Path_333" data-name="Path 333" class="cls-5" d="M307.82,260.88a17,17,0,0,0,2.26,6,1.74,1.74,0,0,0,1.9.77,1.8,1.8,0,0,0,1.23-1.62,4.91,4.91,0,0,0-.93-3.39,1.67,1.67,0,0,0-3.12.85,9.4,9.4,0,0,0,1,3.62,6.47,6.47,0,0,0,1,1.51,2.61,2.61,0,0,0,1.06.66,2.2,2.2,0,0,0,1.63-.19,1.61,1.61,0,0,0,.83-1.44,6.67,6.67,0,0,0-1.3-3.73,1.74,1.74,0,0,0-1.89-.77,1.67,1.67,0,0,0-1.23,1.61,9.76,9.76,0,0,0,2.55,5.66,1.67,1.67,0,0,0,2.36,0c1-1.06.86-2.44.42-3.73a17.6,17.6,0,0,0-1.52-3.3,1.68,1.68,0,0,0-3.06.4,4.66,4.66,0,0,0,1.9,4.63,1.65,1.65,0,0,0,1.69,0,1.79,1.79,0,0,0,.83-1.45,5.91,5.91,0,0,0-1.62-4.7,1.69,1.69,0,0,0-2.39.05,1.72,1.72,0,0,0-.47,1.13,6.73,6.73,0,0,0,2.84,5.31,1.61,1.61,0,0,0,1.69,0,1.68,1.68,0,0,0,.83-1.44A8.82,8.82,0,0,0,314.8,262a1.67,1.67,0,0,0-3.12.84,7.09,7.09,0,0,0,2.41,5.4,1.68,1.68,0,1,0,2.43-2.31l-.06-.06-.4-.37c-.05-.06-.42-.5-.18-.18a6.85,6.85,0,0,1-.56-.94c-.08-.17-.08-.16,0,0l-.09-.25a5.26,5.26,0,0,1-.15-.53c0-.09,0-.18,0-.27,0,.22,0,.24,0,0s0-.36,0-.54l-3.13.84a6.89,6.89,0,0,1,.6,1c0,.05.18.48.07.15.06.18.13.36.19.55a7,7,0,0,1,.22,1c-.06-.4,0,.22,0,.29s0,.39,0,.59l2.52-1.45c.34.25-.11-.1-.17-.16s-.24-.26-.36-.39c.25.26,0,0-.06-.08s-.18-.3-.27-.46a2.56,2.56,0,0,1-.11-.24c.08.2.09.21,0,0s-.09-.25-.12-.38a2.31,2.31,0,0,1-.12-.52c0,.46,0-.13,0-.21l-2.86,1.18c.09.1.26.31.09.08a4,4,0,0,1,.22.34c.07.12.13.24.19.36-.17-.35,0,.09,0,.18a2.6,2.6,0,0,1,.1.4,1.42,1.42,0,0,1,0,.2c0-.2,0-.23,0-.11,0,.3,0,.59,0,.89l2.52-1.45c.17.13.12.1,0,0s-.22-.24-.08-.08-.07-.1-.09-.15-.17-.37-.09-.15,0-.06,0-.1a.88.88,0,0,1-.07-.32c0,.11,0,.28,0,.06s0-.5,0-.07l-3.07.4a11.72,11.72,0,0,1,.6,1.1c.1.19.18.38.27.57s.08.2,0,0l.15.36c.14.38.27.76.37,1.14,0,.05.1.31,0,.09s0,0,0,.08.08-.27,0-.09,0,.07,0-.05a.58.58,0,0,1,.15-.25h2.37c-.13-.14-.26-.29-.38-.44.24.3-.12-.18-.16-.23a11,11,0,0,1-.56-1h0a2,2,0,0,1-.1-.26,6.54,6.54,0,0,1-.31-1.11,2.33,2.33,0,0,1,0-.28c0,.21,0,.22,0,0l-3.12.85c.13.17.26.36.38.55l.17.33c.15.26,0-.1,0,.07s.14.43.19.65l.06.29c-.08-.37,0,.09,0,.15l.83-1.45-.12,0,.85-.23a1.16,1.16,0,0,1,.64.23h0l-.25-.38c-.09-.15-.18-.3-.26-.45s-.24-.54-.11-.21a8.78,8.78,0,0,1-.32-1l-.09-.44h0c0-.1,0-.2,0-.3l-3.13.84c.11.16.22.32.31.48s.07.13,0,0a1.93,1.93,0,0,1,.11.34c0,.09,0,.18.07.27s0-.24,0,0,0,.43,0,.64l3.13-.84a13.53,13.53,0,0,1-.71-1.29q-.15-.3-.3-.63c.1.22,0,0,0-.1l-.13-.36a15.54,15.54,0,0,1-.75-2.83,1.68,1.68,0,0,0-2.06-1.17,1.74,1.74,0,0,0-1.17,2.06" transform="translate(0 0)"/><path id="Path_334" data-name="Path 334" class="cls-5" d="M234.15,259.61a17.72,17.72,0,0,0-1.93,6.59,1.68,1.68,0,0,0,2.86,1.18,5.3,5.3,0,0,0,1.47-3.64,1.7,1.7,0,0,0-3.13-.84,8.78,8.78,0,0,0-1.25,3.35c-.2,1.38-.23,3.38,1.52,3.76a1.73,1.73,0,0,0,1.89-.77,6.74,6.74,0,0,0,1.1-3.8A1.69,1.69,0,0,0,235,263.8a1.71,1.71,0,0,0-1.39.8,9.36,9.36,0,0,0-1.26,5.66,1.71,1.71,0,0,0,1.75,1.67,2.35,2.35,0,0,0,.37-.05c1.37-.24,2-1.59,2.38-2.76a17.83,17.83,0,0,0,.76-3.68,1.68,1.68,0,0,0-2.86-1.18,4.57,4.57,0,0,0-1.17,4.49,1.69,1.69,0,0,0,2.1,1.15,1.78,1.78,0,0,0,.7-.41,6,6,0,0,0,1.7-4.68,1.67,1.67,0,0,0-3.12-.84,6.54,6.54,0,0,0-.88,5.58c.33,1.1,2,1.77,2.8.74a9.23,9.23,0,0,0,2.1-5.53,1.69,1.69,0,0,0-1.23-1.61,1.77,1.77,0,0,0-1.89.77,7,7,0,0,0-1.16,5.81,1.69,1.69,0,0,0,2.06,1.17,1.71,1.71,0,0,0,1.17-2.06c0-.1,0-.2-.07-.3,0,.19,0,.18,0,0s0-.3,0-.46a4.89,4.89,0,0,1,0-.54c0-.12,0-.1,0,.07l.06-.3c0-.15.08-.3.13-.45a2.47,2.47,0,0,1,.1-.29c-.07.16-.07.15,0,0a6.77,6.77,0,0,1,.58-.92l-3.13-.84c0,.19,0,.38,0,.57s0,.1,0,0c0,.08,0,.17,0,.24a7,7,0,0,1-.29,1c-.15.48.14-.25-.07.2l-.22.44c-.08.14-.16.28-.25.42s-.4.54-.22.31l2.8.74c-.05-.17-.08-.35-.13-.52s0-.1,0,.06a1.94,1.94,0,0,1,0-.24,4.86,4.86,0,0,1,0-.54c0-.08.08-.52,0-.17a5.44,5.44,0,0,1,.25-.9c-.12.3.06-.1.09-.17a4.65,4.65,0,0,1,.34-.52l-3.12-.85a7.85,7.85,0,0,1,0,.84c0,.19.06-.22,0,.08,0,.15-.07.3-.12.45s.06-.06,0,.1-.12.23-.18.34-.16.26-.25.38c.17-.23-.09.07-.14.12l2.8.74c0-.09,0-.19-.07-.27.1.3,0,.08,0,0a2.64,2.64,0,0,1,0-.28c0-.22-.11.34,0,0,0-.09.05-.18.08-.27,0,.14-.08.16,0,0s.23-.36.1-.18.14-.15.14-.15l-2.86-1.18c0,.2,0,.23,0,.08,0,.12,0,.24-.05.36s-.06.35-.1.52c-.09.44-.2.88-.32,1.3-.06.2-.12.4-.19.6l-.12.34c-.06.15-.06.16,0,0s0-.1,0,.05-.09.15,0,0c-.13.14-.11.13.06,0s.24-.1,0-.06l2.12,1.62a9.15,9.15,0,0,1,0-1.17c0-.11,0-.22,0-.33s0-.23,0-.12,0,.08,0-.1l.06-.33a8.49,8.49,0,0,1,.33-1.12c.12-.32-.07.11.1-.21s.2-.4.32-.59l-3.12-.85q0,.33,0,.66c0-.18,0-.07,0,0s-.06.27-.1.4a2.83,2.83,0,0,1-.11.31c-.09.26.1-.18,0,.06s-.24.43-.37.64l1.89-.77c.67.95.93,1.18.79.7,0,.24,0,.28,0,.13a4.26,4.26,0,0,0,0-.5c0-.09,0-.17,0-.25,0,.17,0,.15,0-.05s.07-.33.1-.49a5.89,5.89,0,0,1,.32-.95l.1-.21c.11-.2.22-.39.34-.58l-3.12-.84c0,.1,0,.21,0,.32,0-.18,0-.18,0,0s-.08.31-.13.46c.1-.29-.09.15-.11.17l-.18.27c.1-.13.08-.12,0,0l2.86,1.18,0-.35c0-.21,0-.24,0-.09,0-.23.08-.46.12-.7a13,13,0,0,1,.34-1.37,11.49,11.49,0,0,1,1-2.39,1.67,1.67,0,0,0-2.89-1.69" transform="translate(0 0)"/><path id="Path_335" data-name="Path 335" class="cls-4" d="M275.25,299.26c-.32,0-.65,0-1,0a8.94,8.94,0,0,1-8.54-6.61,2.24,2.24,0,0,1,4.37-1c.08.32.83,2.9,4.43,3.11,2.05.12,3.56-.26,4.46-1.11a3.44,3.44,0,0,0,1-2.14,2.24,2.24,0,1,1,4.47,0,7.83,7.83,0,0,1-2.41,5.39,9.59,9.59,0,0,1-6.81,2.35" transform="translate(0 0)"/><path id="Path_336" data-name="Path 336" class="cls-6" d="M254.18,286.24a8.46,8.46,0,1,1-8.46-8.46h0a8.46,8.46,0,0,1,8.46,8.46" transform="translate(0 0)"/><path id="Path_337" data-name="Path 337" class="cls-6" d="M309.44,285.82a8.46,8.46,0,1,1-8.46-8.47h0a8.47,8.47,0,0,1,8.46,8.47" transform="translate(0 0)"/><path id="Path_338" data-name="Path 338" class="cls-7" d="M122.19,166.62s-26.25,12.28-33,8.33-20.09-9-15.9-23.27,3.24-29.21,15.5-36.11,17.77-11.36,24.53-8.67,25.63-.5,31.73,12.6-3.76,36-22.86,47.12" transform="translate(0 0)"/><path id="Path_339" data-name="Path 339" class="cls-8" d="M119.77,365.33,133,357.22s26-56.42,21.89-73.2S157,247.23,157,247.23l15.57-33.51S211.72,170,214,169.78s-11.66,7.13-11.66,7.13l-39.64,42.88-8.37,23.11-20.54-63.38L150,140.29S182.51,86,189.8,78.77L182.51,86l-40.25,52.41-13.72,38.32-23.82-37.32s-11.06-6.3-13-7.17S92.36,92,92.36,92l27.16-75.62-11.64,7.17L84.08,96.79l-.79,30.77s-12.1-5.33-19.37-9.37S38.85,89.91,38.85,89.91L14.91,38.59l-2.35,8.54L36.72,99,59.5,125.64l20.53,7,19.29,12L123.44,181l23.94,65.66,1.4,27.92-24.62-14.2-36.87-44.1-2,4.45,37.17,45.08L149,279.56s-5.1,65.11-29.22,85.76" transform="translate(0 0)"/><path id="Path_340" data-name="Path 340" class="cls-7" d="M134.17,238.76c-1.27.78-40.54,14.41-50.38-1.58s-3.59-40.93,6.91-46.91,14.92-9.2,14.92-9.2,35.56-11.35,41.5,12.08-13,45.6-13,45.6" transform="translate(0 0)"/><path id="Path_341" data-name="Path 341" class="cls-9" d="M140.31,125.69c-1.8-1.6-28.23-15.13-16.71-36.49s40.56-25,40.56-25,20.54-2.71,27.52,3.27,17,31.68,4.84,45.28-56.21,12.91-56.21,12.91" transform="translate(0 0)"/><path id="Path_342" data-name="Path 342" class="cls-7" d="M95.68,79.92c4.44.78,51-24,50.62-42S122.37-9,100,2.72,59,28.23,60.41,44s11.28,31.7,35.27,35.93" transform="translate(0 0)"/><path id="Path_343" data-name="Path 343" class="cls-9" d="M171.12,195.87s-31.49-24.71-14.67-41.77,45.77-22.91,51.51-18.29,28.6,9.23,24.23,33.48-32.05,30.29-61.07,26.58" transform="translate(0 0)"/><path id="Path_344" data-name="Path 344" class="cls-9" d="M51.62,73.81S81,40.1,69.23,20.92s-51-9.31-51-9.31S-2.26,33.06.21,43.75s8,29,21.8,35.41,29.61-5.35,29.61-5.35" transform="translate(0 0)"/><path id="Path_345" data-name="Path 345" class="cls-6" d="M107,341.74c-3-8.93-1.12-18.82,2.82-27.44s9.83-16.27,15.2-24.16c2.39-3.51,4.69-7.08,7.06-10.61,1.77-2.63,3.75-5.37,6.77-6.59s7.27-.06,8,3c.5,2.06-.72,4.11-1.84,5.94a111.25,111.25,0,0,0-11.56,26l18.76-23.22c3.38-4.19,7.47-8.75,13-9.06,1.49,2.64,1,6-.45,8.65s-3.63,4.9-5.65,7.21a61.92,61.92,0,0,0-13.24,25.16c.87,1,2.46-.36,3.1-1.55,6-11.36,17.78-19.8,30.86-22.14a3.21,3.21,0,0,1,1.79,0c1.21.5,1.3,2.1,1,3.33-1.45,6.07-7.13,10.17-11.81,14.51A59.07,59.07,0,0,0,152,351.31" transform="translate(0 0)"/><path id="Path_346" data-name="Path 346" class="cls-6" d="M455.53,364.12c-7.73-19.88-27.25-32.06-44.23-44.94-2.06-1.56-4.2-3.28-4.7-5.95a4.11,4.11,0,0,1,1-3.67c1.57-1.61,3.72-1.08,5.58-.45A65.41,65.41,0,0,1,438,324.46c2.37-2.26,2.62-6.14,1.29-9.13s-4-5.22-6.77-6.94c-13.8-8.52-33.9-8.06-42.53-21.8-.57-.91-1.05-2.15-.37-3a2.73,2.73,0,0,1,2.17-.68,80.73,80.73,0,0,1,63.1,30.29c2.86-3.25.53-8.32-2.17-11.7a68.3,68.3,0,0,0-37.48-23.65c-3.55-.82-7.37-1.46-9.75-4.55a5.29,5.29,0,0,1-.9-5.05c1.05-2.75,3.89-3.19,6.42-3.23,12.3-.22,24.17,5.28,33.7,13.06s17,17.71,24.2,27.72c2.8-1.7,2.53-5.86,1.33-8.9-6.1-15.58-24.9-22.28-34.76-35.56a2.2,2.2,0,0,1,2.35-3.42,48.28,48.28,0,0,1,30.89,24.51c4,7.88,6.66,17.82,14.85,21.16a122.48,122.48,0,0,1,0-14.21,2.58,2.58,0,0,1,4.54-1.53,20.85,20.85,0,0,1,3.41,7.63,209.8,209.8,0,0,1,6.31,71.31" transform="translate(0 0)"/><path id="Path_347" data-name="Path 347" class="cls-10" d="M218.65,386.65s-26.87,98.81-41,112.73-46.09-7.93-47.26-30.3,21.15-119.37,21.15-119.37l-44.76-9.42S75,439.63,85.62,487.92s86.61,77.2,86.61,77.2l-52.9,150.35s220.94,50.28,324-5.58l-57.1-148.95s113.13-50.63,111.89-195.85l-42.2-1.24s-16.94,124.59-56.66,134.52-36.85,1-36.85,1L332.65,386.65Z" transform="translate(0 0)"/></g></g></g></g></g></svg>