<svg xmlns="http://www.w3.org/2000/svg" viewBox="0 0 187 187"><defs><style>.cls-1{fill:#f7f3e8;}.cls-2{fill:#adc3cd;}.cls-3{fill:#c09f59;}.cls-4{fill:#0a1633;}.cls-5{fill:#b76d4a;}</style></defs><g id="Layer_2" data-name="Layer 2"><g id="Layer_1-2" data-name="Layer 1"><circle class="cls-1" cx="93.5" cy="93.5" r="93.5"/><path class="cls-2" d="M43.49,25.92v16h8.82a3.34,3.34,0,0,1,0,5.33c-3.09,2.84-9.26,3.19-8.82,11.71s2.21,94.76,2.21,94.76,48.47,17.75,97.83-1.77V49l-7.93-6,7.93.71V28.05Z"/><path class="cls-3" d="M121.06,148.16a8.87,8.87,0,0,0,9.49,3.06c6.28-1.58,8.12-5.51,8.67-7.68s.15-7.3-3.23-9.61l-4.72,4.22s2.06,2,1.53,3.8a4.31,4.31,0,0,1-3.11,2.69c-.69.17-1.32.42-3.91-.71Z"/><path class="cls-3" d="M99.25,138.74a8.89,8.89,0,0,0,2.19,9.73c4.56,4.6,8.88,4.19,11,3.56s6.36-3.59,6.63-7.68l-6-1.91s-.65,2.78-2.48,3.25a4.32,4.32,0,0,1-3.91-1.31c-.49-.51-1-.92-1.38-3.73Z"/><path class="cls-3" d="M125.11,139.73a8.88,8.88,0,0,0-2.3-9.7c-4.61-4.55-8.93-4.09-11.07-3.44s-6.32,3.67-6.54,7.76l6.06,1.84s.62-2.79,2.45-3.28a4.31,4.31,0,0,1,3.91,1.27c.51.5,1,.91,1.43,3.71Z"/><path class="cls-3" d="M86.83,149.48a8.88,8.88,0,0,0,9.49,3.07c6.28-1.59,8.12-5.51,8.67-7.68s.15-7.31-3.23-9.62L97,139.47s2.06,2,1.53,3.8A4.31,4.31,0,0,1,95.46,146c-.69.17-1.32.42-3.91-.7Z"/><path class="cls-3" d="M65,140.07a8.87,8.87,0,0,0,2.19,9.72c4.56,4.61,8.88,4.2,11,3.57s6.36-3.59,6.63-7.68l-6-1.92s-.65,2.79-2.48,3.26a4.33,4.33,0,0,1-3.91-1.32c-.49-.5-1-.92-1.38-3.72Z"/><path class="cls-3" d="M101.92,127.81A8.87,8.87,0,0,0,92,126.75c-5.83,2.83-6.83,7.05-6.93,9.29s1.35,7.18,5.14,8.75l3.75-5.1s-2.42-1.52-2.28-3.4A4.32,4.32,0,0,1,94.2,133c.63-.31,1.2-.69,4-.11Z"/><path class="cls-3" d="M68.29,139.07a8.89,8.89,0,0,0,9.41,3.3c6.32-1.43,8.27-5.31,8.87-7.46s.33-7.3-3-9.7l-4.82,4.11s2,2,1.44,3.83A4.33,4.33,0,0,1,77,135.77c-.69.15-1.33.39-3.89-.8Z"/><path class="cls-3" d="M139.43,110.7a8.88,8.88,0,0,0-9.54,2.89c-4.26,4.88-3.55,9.16-2.76,11.25s4,6.09,8.14,6.06l1.47-6.16s-2.82-.45-3.43-2.24a4.32,4.32,0,0,1,1-4c.47-.53.85-1.1,3.62-1.65Z"/><path class="cls-3" d="M127.29,107.63a8.87,8.87,0,0,0-9.22,3.79c-3.78,5.26-2.65,9.45-1.67,11.47s4.6,5.67,8.68,5.25l.88-6.27s-2.86-.18-3.63-1.91a4.32,4.32,0,0,1,.65-4.07c.41-.57.73-1.17,3.43-2Z"/><path class="cls-3" d="M131.44,109.06a8.88,8.88,0,0,0,7.38-6.71c1.76-6.23-.73-9.79-2.33-11.35s-6.27-3.76-10-2l1.32,6.2s2.74-.81,4.06.56a4.34,4.34,0,0,1,.78,4c-.2.68-.29,1.36-2.56,3Z"/><path class="cls-1" d="M74.86,49.66a32,32,0,0,1,15.38,2.65A32.25,32.25,0,0,1,75.6,57.85a31.92,31.92,0,0,1-15.38-2.66A32.3,32.3,0,0,1,74.86,49.66Z"/><path class="cls-4" d="M73.34,49.88a7.16,7.16,0,0,0-1.76,5.27,1.42,1.42,0,0,0,.67,1.17,1.37,1.37,0,0,0,1.36,0,3.62,3.62,0,0,0,1.3-1.47c.11-.19.26-.39.36-.59-.13.26-.16.19,0,.07s.19-.16,0,0,0,0,0,0c.19-.12-.32.11-.08,0L73.5,52.69c-.27,1.36-.47,2.73-.61,4.1a1.35,1.35,0,0,0,1,1.3,1.41,1.41,0,0,0,1.52-.62,7.89,7.89,0,0,0,1.32-3.18c.22-1.36.35-3.37-1.34-3.83a2.21,2.21,0,0,0-2.2.7,4.41,4.41,0,0,0-.85,1.91A12,12,0,0,0,71.91,55a2.48,2.48,0,0,0,.08.9A2.16,2.16,0,0,0,72.83,57a1.35,1.35,0,0,0,1,.14,1.43,1.43,0,0,0,.81-.62,1.4,1.4,0,0,0-.49-1.85c.31.36.41.46.31.3s0,0,.07.15,0,.21,0,0-.07.3,0,0l0-.2c.1-.43.22-.85.33-1.28.06-.2.12-.4.17-.6s-.09.14,0,0a.54.54,0,0,1,.07-.13c.06-.1.07-.11,0,0s-.06.08,0,0l-.14.11c.22-.16-.25.08,0,0a.76.76,0,0,1-.92-.48c.09.24,0-.29,0,0,0,.08,0,.16,0,.24s0,.36,0,.54a1.45,1.45,0,0,1,0,.3c0-.18,0-.21,0-.11a.77.77,0,0,1,0,.15c0,.2-.08.39-.13.59s-.11.35-.17.52a.7.7,0,0,1-.09.24c.18-.28,0,0,0,0a7.32,7.32,0,0,1-.62,1l2.52.68c0-.3.06-.61.1-.91l0-.23c0,.17,0,.18,0,0l.06-.45c.09-.61.2-1.21.32-1.81a1.4,1.4,0,0,0-.35-1.31,1.35,1.35,0,0,0-1.31-.35,2.91,2.91,0,0,0-1.69,1.43c-.13.23-.24.46-.38.68l-.1.14c-.08.13.22-.24.07-.09a.67.67,0,0,0-.15.14c0-.09.28-.18.06-.06l2,1.16a5.57,5.57,0,0,1,0-1.08s0-.09,0-.14c0,.19,0,.23,0,.13a2,2,0,0,1,0-.24,5.54,5.54,0,0,1,.14-.55l.09-.27s.11-.3,0-.1,0-.06,0-.1a2.1,2.1,0,0,1,.13-.26c.09-.17.19-.33.29-.49a1,1,0,0,1,.17-.23l-.09.12.12-.15a1.35,1.35,0,0,0-1.91-1.91Z"/><path class="cls-1" d="M116.27,49.78a32.06,32.06,0,0,1,14,7,32.34,32.34,0,0,1-15.62,1.1,32,32,0,0,1-14-7A32.42,32.42,0,0,1,116.27,49.78Z"/><path class="cls-4" d="M111.82,50.6a7.17,7.17,0,0,0,1,5.49,1.37,1.37,0,0,0,2.33,0,3.71,3.71,0,0,0,.44-1.93V53.8s0-.11,0-.17c0-.25,0,.09,0,.13a.65.65,0,0,1,0-.19c0-.06.09-.25,0,0s0,0,0,0-.26.28,0,.08l-2.26-.6c.37,1.21.8,2.39,1.28,3.56a1.36,1.36,0,0,0,1.48,1,1.22,1.22,0,0,0,.77-.37,1.57,1.57,0,0,0,.4-1,7.91,7.91,0,0,0-.16-2.7,6.68,6.68,0,0,0-1-2.43,2.17,2.17,0,0,0-1.75-1,2.1,2.1,0,0,0-1.75,1c-.64,1-.25,2.19,0,3.26a7.5,7.5,0,0,0,.46,1.51A2,2,0,0,0,114.42,57a1.51,1.51,0,0,0,1-.14,1.35,1.35,0,0,0-.33-2.46.27.27,0,0,1-.12,0,.73.73,0,0,1,.3.16c.1.08.11.09,0,0l.09.12c-.07-.14,0-.22,0,.07,0-.07,0-.13-.07-.2-.12-.39-.2-.79-.29-1.19,0-.22-.11-.45-.16-.68l0-.14c0-.1,0-.06,0,.12a.94.94,0,0,1,0-.29c0,.2,0,.22,0,.07s0-.1,0,.1c.1-.21-.21.2,0,0a.54.54,0,0,1-.24.16h0a.78.78,0,0,1-.68-.08c.09,0,.09,0,0,0s-.11-.07,0,0c-.12-.17-.15-.2-.06-.09l.12.21c.1.17.19.35.27.52s-.07-.21,0,0l.09.25c.06.19.11.38.16.57,0,0,.12.57.11.57,0-.21,0-.24,0-.09v.09l0,.32a7.12,7.12,0,0,1,0,1.22l2.65-.36c-.48-1.16-.91-2.35-1.28-3.56a1.36,1.36,0,0,0-2.25-.59,2.85,2.85,0,0,0-.78,2.08c0,.26,0,.52,0,.78,0,.06,0,.27,0,0s0,0,0,0,0,.17-.06.19l.08-.2-.06.12h2.33a4,4,0,0,1-.29-.47c0-.09-.1-.18-.14-.27s-.09-.34,0,0c-.09-.35-.23-.68-.3-1,0-.09,0-.17-.05-.26s0-.06,0,.14c0-.05,0-.11,0-.17a3,3,0,0,1,0-.52c0-.17,0-.34,0-.52s0,.28,0,0l.06-.34a1.35,1.35,0,1,0-2.6-.72Z"/><path class="cls-3" d="M85.6,76.64a8.88,8.88,0,0,0,5.59,8.25c5.93,2.62,9.8.66,11.57-.71s4.61-5.68,3.36-9.58L99.8,75s.42,2.83-1.12,3.94a4.31,4.31,0,0,1-4.11.2c-.65-.29-1.3-.48-2.65-3Z"/><path class="cls-5" d="M98.27,51.81v-.58H92.88v.83a2.7,2.7,0,1,0,5.39,0l0-1.05A2.7,2.7,0,0,0,93,50.29a8.57,8.57,0,0,0-.3,3,2.73,2.73,0,0,0,4,2.33,3.44,3.44,0,0,0,.69-5.46,2.8,2.8,0,0,0-2.63-.69,2.66,2.66,0,0,0-1.88,1.88,23,23,0,0,0-.5,4.68,2.7,2.7,0,0,0,5.3.72,10.52,10.52,0,0,0,.32-3.4,2.7,2.7,0,1,0-5.39,0v4.11A2.7,2.7,0,0,0,98,58.2a8,8,0,0,0,.3-3.18,2.7,2.7,0,1,0-5.39,0,41.4,41.4,0,0,0,.54,7.86,2.7,2.7,0,0,0,5.2,0,21.42,21.42,0,0,0,0-6.92,2.68,2.68,0,0,0-3-1.94,2.73,2.73,0,0,0-2.33,2.65q-.24,3.11-.65,6.19h5.39a21,21,0,0,0-.3-4.75,2.68,2.68,0,0,0-3-1.94,2.74,2.74,0,0,0-2.34,2.65c0,.35-.06.69-.09,1s0,.34,0,0c0,.18,0,.35-.08.52q-.16,1-.42,2l5.2,1.43a22.91,22.91,0,0,0,.26-5.36A2.73,2.73,0,0,0,95,55.89a2.68,2.68,0,0,0-3,1.94,41.51,41.51,0,0,0-.67,5.88,2.7,2.7,0,0,0,5.3.72A35.12,35.12,0,0,0,97.42,56a2.7,2.7,0,0,0-2.34-2.65,2.67,2.67,0,0,0-3,1.93,56.08,56.08,0,0,0-1.39,8,12.06,12.06,0,0,0-.06,4,3.25,3.25,0,0,0,4.8,2.1c2.35-1.38,3-4.28,3.18-6.79A61.19,61.19,0,0,0,98.58,55a2.7,2.7,0,0,0-5.3-.71l-.22.74a2.7,2.7,0,1,0,5.2,1.43l.22-.74L93.18,55c.15,2.31.2,4.63.12,6.94,0,.44,0,.87-.08,1.31,0,.67.13-.58,0,.08,0,.22-.09.45-.15.67a2.07,2.07,0,0,1-.21.65l.12-.3-.18.33c-.23.49.34-.28,0,.06l-.27.26a1.81,1.81,0,0,1,1.2-.49l1.36.37a1.88,1.88,0,0,1,.75.86,1,1,0,0,1,.14.56,2.48,2.48,0,0,1,0-.54c0-.47.06-.94.1-1.41s.07-.85.11-1.28l.09-.76c0-.07.1-.74,0-.41s.06-.42.06-.4c0-.21.07-.42.1-.63.08-.47.16-.93.25-1.39.18-.93.39-1.84.62-2.76L92,56a31.31,31.31,0,0,1-.09,3.75q0,.45-.09.9l-.06.51c0-.25,0-.27,0-.07-.12.63-.22,1.27-.35,1.9l5.3.72c0-.82.08-1.64.17-2.46l.06-.52c0-.2,0-.17,0,.07l0-.26c.07-.43.14-.85.22-1.28l-5.29-.72a20.14,20.14,0,0,1,.06,2.2c0,.34,0,.69,0,1,0,.17,0,.34,0,.52,0,.46.1-.63,0,.18a2.77,2.77,0,0,0,1.89,3.31,2.73,2.73,0,0,0,3.31-1.88,31.2,31.2,0,0,0,.79-5.08l-5.3.72c0,.32,0,.33,0,0,0,.17,0,.34.05.51s0,.59.06.88a17.18,17.18,0,0,1,0,1.9,2.72,2.72,0,0,0,2.7,2.7,2.77,2.77,0,0,0,2.69-2.7c.28-2.06.49-4.12.65-6.19l-5.3.72c.13.78,0-.31,0,.15l.06.62c0,.42.05.84.05,1.26s0,.75,0,1.12c0,.21,0,.42,0,.63,0,.59.07-.38,0,.27h5.2c0-.17,0-.35-.08-.52s0-.35,0-.17-.06-.47-.07-.56c-.06-.58-.1-1.15-.14-1.72-.07-1.15-.07-2.3,0-3.45H92.87c0,.37,0,.74,0,1.12s.11-.33,0,0-.09.4-.15.6l5.3.72V53.37H92.66a10.1,10.1,0,0,1,0,1.23c0,.25,0,.28,0,0-.05.25-.09.49-.16.73l5.3.71c0-.62,0-1.25.08-1.87,0-.12,0-.25,0-.37,0,.3,0,.3,0,0s.11-.66.18-1L93.62,54A2,2,0,0,1,94,51l4.06,2.33c0-.35,0-.69,0-1s-.1.38,0,0c0-.19.09-.38.14-.57L92.9,51l0,1.05h5.39v-.83a2.7,2.7,0,1,0-5.39,0v.58a2.7,2.7,0,1,0,5.39,0Z"/></g></g></svg>