<svg xmlns="http://www.w3.org/2000/svg" viewBox="0 0 186.43 186.43"><defs><style>.cls-1{fill:#f7f3e8;}.cls-2{fill:#c09f59;}.cls-3{fill:#81301a;}.cls-4{fill:#b76d4a;}.cls-5{fill:#0a1633;}</style></defs><g id="Layer_2" data-name="Layer 2"><g id="Layer_1-2" data-name="Layer 1"><circle class="cls-1" cx="93.21" cy="93.21" r="93.21"/><path class="cls-2" d="M21.6,114.49s25.77,37.72,70.29,28.17,55.7-39.36,58.48-56.06-3-56.95-28.76-76.51L89.84,41s16,16.36,13.23,30.33S86.9,89.85,82,90.88s-9.31,2.71-28.66-7.25Z"/><path class="cls-3" d="M116.56,116.66c-.3,0-.61,0-.92,0-5-.43-7-5.42-7.41-8a1.27,1.27,0,0,1,2.52-.37h0c0,.23.86,5.46,5.1,5.82a5.07,5.07,0,0,0,4.09-1.15c2-1.87,2.09-5.36,2.09-5.4a1.27,1.27,0,0,1,1.27-1.27h0a1.27,1.27,0,0,1,1.27,1.28c0,.18,0,4.63-2.91,7.26A7.27,7.27,0,0,1,116.56,116.66Z"/><path class="cls-3" d="M117.1,82.44a29.2,29.2,0,0,0-4.64,17.31c.09,1.5.29,3.06,1.58,4a3.14,3.14,0,0,0,4.09-.15c1-1.06,1.23-3,1.49-4.36a37.71,37.71,0,0,0,.59-4.86,35.83,35.83,0,0,0-1.2-11,1.6,1.6,0,0,0-3.13.43l-1,15.95,3.13-.43a14.45,14.45,0,0,1-.63-5.81,1.59,1.59,0,1,0-3.18,0,16.86,16.86,0,0,0,.74,6.66,1.6,1.6,0,0,0,3.13-.42l1-15.95-3.13.42a32.38,32.38,0,0,1,.34,15.53l-.21.88a3.25,3.25,0,0,0-.24.83s.17-.12.15-.18a3.56,3.56,0,0,1-.27-.74,16.61,16.61,0,0,1-.11-1.87,25.26,25.26,0,0,1,.87-7,26.94,26.94,0,0,1,3.39-7.59c1.1-1.74-1.65-3.34-2.76-1.61Z"/><circle class="cls-1" cx="104.97" cy="77.97" r="6.94"/><circle class="cls-1" cx="137.91" cy="78.03" r="6.94"/><path class="cls-4" d="M104.59,87.14a8.53,8.53,0,1,1,8.53-8.52A8.53,8.53,0,0,1,104.59,87.14Zm0-13.86a5.34,5.34,0,1,0,5.34,5.34A5.35,5.35,0,0,0,104.59,73.28Z"/><path class="cls-4" d="M138.25,87.14a8.53,8.53,0,1,1,8.52-8.52A8.54,8.54,0,0,1,138.25,87.14Zm0-13.86a5.34,5.34,0,1,0,5.34,5.34A5.34,5.34,0,0,0,138.25,73.28Z"/><path class="cls-5" d="M103.24,75.29A10.21,10.21,0,0,0,102.15,79a1.2,1.2,0,0,0,2,.84,3.17,3.17,0,0,0,.88-2.18,1.2,1.2,0,0,0-.87-1.15,1.23,1.23,0,0,0-1.35.55,4.77,4.77,0,0,0-.71,1.89,3.67,3.67,0,0,0,0,1.28,1.46,1.46,0,0,0,1,1.12,1.26,1.26,0,0,0,1.35-.55,4,4,0,0,0,.64-2.21,1.21,1.21,0,0,0-2.23-.61,5.47,5.47,0,0,0-.73,3.23,1.23,1.23,0,0,0,1.52,1.15c.84-.15,1.25-1,1.49-1.7a9.17,9.17,0,0,0,.42-2.07,1.18,1.18,0,0,0-.73-1.1,1.2,1.2,0,0,0-1.3.25,2.77,2.77,0,0,0-.71,2.72,1.2,1.2,0,0,0,2,.53,3.49,3.49,0,0,0,1-2.75,1.22,1.22,0,0,0-.88-1.15,1.25,1.25,0,0,0-1.35.55,3.87,3.87,0,0,0-.5,3.26,1.23,1.23,0,0,0,.83.84,1.18,1.18,0,0,0,1.16-.31,5.29,5.29,0,0,0,1.23-3.22,1.2,1.2,0,0,0-.87-1.15,1.26,1.26,0,0,0-1.35.55,4.12,4.12,0,0,0-.66,3.39,1.2,1.2,0,0,0,1.47.83,1.22,1.22,0,0,0,.83-1.47l0-.16c0,.17,0,.2,0,.06a2,2,0,0,1,0-.25c0-.1,0-.19,0-.29s0-.06,0,.11l0-.17a2.17,2.17,0,0,1,.07-.24l.06-.16c-.07.16-.08.17,0,0a5,5,0,0,1,.31-.49L104,78.24a3,3,0,0,1,0,.31c0,.1,0,.06,0-.09l0,.13a4.94,4.94,0,0,1-.15.55c-.09.28.11-.22,0,0a7.8,7.8,0,0,1-.25.46s-.27.37-.08.12l2,.53c0-.1,0-.2-.07-.29s0-.06,0,.11c0-.05,0-.09,0-.13s0-.2,0-.3v-.08c0-.14,0-.12,0,.06.09-.11,0-.38.13-.49-.06.16-.07.17,0,.06l0-.08a2.29,2.29,0,0,1,.18-.29l-2.23-.6a3.53,3.53,0,0,1,0,.46c0,.15.06-.25,0,0l-.06.24c-.06.21.08-.14,0,0s-.06.12-.1.18a1.28,1.28,0,0,0-.14.21l.09-.11-.12.12,2,.53a.66.66,0,0,0,0-.15c0,.18,0,.22,0,.12s0,0,0-.07,0-.1,0-.16-.08.28,0,.06a1.31,1.31,0,0,0,0-.15c0,.06-.12.21,0,.07s.15-.22,0-.07,0,0,.06-.05l-2-.84q0,.19,0,0l0,.19a2.93,2.93,0,0,1,0,.29c0,.24-.11.47-.17.71l-.11.32-.06.19c0,.09,0,.08,0,0s.05-.11,0,0,0,.08.07-.07c-.09.09-.06.07.09,0s.22-.09.09-.06l1.51,1.15a4.42,4.42,0,0,1,0-.63s0-.4,0-.21,0-.16,0-.2a6.13,6.13,0,0,1,.18-.61c.08-.23-.1.19,0,0l.18-.32-2.23-.6a1.47,1.47,0,0,0,0,.36s0-.24,0-.06l-.06.22-.06.17c0,.15.1-.17,0,0s-.13.24-.2.35l1.35-.55c.51.74.72.94.62.58q0,.31,0,.15c0-.09,0-.18,0-.27,0-.32,0,.15,0-.09a2.61,2.61,0,0,1,.06-.27,2.4,2.4,0,0,1,.16-.52c-.13.26,0,0,0,0a2.58,2.58,0,0,1,.18-.32l-2.23-.6v.17q0-.26,0-.06c0,.07,0,.21-.07.25.06-.14.07-.16,0-.08l-.06.11a.71.71,0,0,1-.1.14c.1-.12.11-.14,0,0l2,.85c0-.07,0-.49,0-.17a2.71,2.71,0,0,1,.06-.38,6.87,6.87,0,0,1,.19-.75c.07-.24.16-.49.25-.73s0-.12,0,0c0-.06,0-.12.08-.17a3.78,3.78,0,0,1,.17-.35,1.19,1.19,0,0,0-2.06-1.21Z"/><path class="cls-4" d="M129.9,80a21.91,21.91,0,0,0-18.06-.45l-1.28-2.92a24.73,24.73,0,0,1,20.89.59Z"/><path class="cls-5" d="M137.27,75.82a9.92,9.92,0,0,0-1.09,3.73,1.2,1.2,0,0,0,2,.84,3.17,3.17,0,0,0,.88-2.18,1.21,1.21,0,0,0-.88-1.15,1.24,1.24,0,0,0-1.35.55,4.93,4.93,0,0,0-.71,1.89,3.67,3.67,0,0,0,0,1.28,1.45,1.45,0,0,0,1.05,1.12,1.25,1.25,0,0,0,1.35-.55,4,4,0,0,0,.64-2.21,1.21,1.21,0,0,0-2.23-.6,5.42,5.42,0,0,0-.73,3.22,1.23,1.23,0,0,0,1.51,1.16c.85-.15,1.26-1,1.5-1.71a10.41,10.41,0,0,0,.42-2.07,1.19,1.19,0,0,0-.73-1.1,1.22,1.22,0,0,0-1.31.25A2.79,2.79,0,0,0,136.9,81a1.21,1.21,0,0,0,2,.53,3.52,3.52,0,0,0,1-2.75,1.22,1.22,0,0,0-.88-1.15,1.27,1.27,0,0,0-1.35.55,3.88,3.88,0,0,0-.51,3.26,1.24,1.24,0,0,0,.84.84,1.18,1.18,0,0,0,1.16-.31,5.35,5.35,0,0,0,1.23-3.21,1.21,1.21,0,0,0-.88-1.16,1.29,1.29,0,0,0-1.35.55,4.2,4.2,0,0,0-.66,3.39,1.21,1.21,0,0,0,1.47.83,1.22,1.22,0,0,0,.84-1.47s0-.11,0-.16c0,.18,0,.2,0,.06s0-.16,0-.25a2.83,2.83,0,0,1,0-.29c0-.09,0-.06,0,.11l0-.17a2.17,2.17,0,0,1,.07-.24,1,1,0,0,1,.05-.16c-.06.16-.07.17,0,.06a4.26,4.26,0,0,1,.32-.5l-2.23-.6c0,.1,0,.2,0,.31s0,0,0-.1a.69.69,0,0,1,0,.13c0,.19-.1.37-.15.55s.11-.21,0,0l-.12.23-.13.23c0,.06-.28.37-.08.12l2,.53c0-.1,0-.2-.07-.29s0-.06,0,.11a.62.62,0,0,1,0-.13,1.5,1.5,0,0,1,0-.3v-.08c0-.14,0-.11,0,.06.1-.1,0-.38.14-.49-.07.16-.07.18,0,.06l0-.08a2.75,2.75,0,0,1,.19-.28l-2.23-.61c0,.16,0,.31,0,.46s.05-.25,0,0-.05.16-.07.24.08-.14,0,0l-.09.18a1.28,1.28,0,0,0-.14.21l.08-.11-.11.12,2,.53s0-.12,0-.15c0,.18,0,.22,0,.13a.25.25,0,0,1,0-.08s0-.1,0-.15-.08.28,0,.05c0,0,.05-.12,0-.15s-.11.21,0,.07.15-.21,0-.07,0,0,.06,0l-2-.84c0,.13,0,.13,0,0l0,.19c0,.1,0,.19-.05.29s-.11.47-.18.71a3,3,0,0,1-.1.32l-.06.19c0,.09,0,.09,0,0s0-.1,0,0,0,.08.06-.07c-.08.09-.06.07.09,0s.22-.09.1-.06l1.51,1.15a4.42,4.42,0,0,1,0-.63s0-.4,0-.21,0-.16,0-.2a4.27,4.27,0,0,1,.18-.61c.08-.23-.11.19,0,0s.11-.21.17-.32l-2.22-.6a2.3,2.3,0,0,0,0,.36s0-.24,0,0,0,.14-.05.21l-.06.17c0,.16.1-.17,0,0s-.13.23-.21.34l1.35-.55c.52.74.73.94.63.59,0,.2,0,.25,0,.14s0-.18,0-.27c0-.32-.05.15,0-.09,0-.09,0-.18.05-.27a3.16,3.16,0,0,1,.17-.52c-.14.27,0,0,0,0l.19-.32-2.23-.6v.17c0-.17,0-.19,0-.06s0,.21-.07.25c.06-.13.07-.16,0-.08l-.06.11a1.3,1.3,0,0,1-.1.15c.1-.13.11-.15,0,0l2,.85c0-.06,0-.49,0-.16,0-.13,0-.26.07-.39s.11-.5.18-.75.16-.48.26-.73,0-.11,0,0a1.3,1.3,0,0,1,.08-.17c.05-.12.11-.23.17-.35a1.19,1.19,0,0,0-2.06-1.2Z"/></g></g></svg>