<svg xmlns="http://www.w3.org/2000/svg" viewBox="0 0 186.43 186.43"><defs><style>.cls-1{fill:#f7f3e8;}.cls-2{fill:#dddddc;}.cls-3{fill:#0a1633;}.cls-4{fill:#c09f59;}.cls-5{fill:#b76d4a;}.cls-6{fill:#81301a;}</style></defs><g id="Layer_2" data-name="Layer 2"><g id="Layer_1-2" data-name="Layer 1"><circle class="cls-1" cx="93.21" cy="93.21" r="93.21"/><rect class="cls-2" x="42.26" y="26.68" width="83.25" height="126.5"/><rect class="cls-3" x="58.35" y="46.37" width="47.63" height="2.18"/><rect class="cls-3" x="58.35" y="56.51" width="47.63" height="2.18"/><rect class="cls-3" x="58.35" y="69.2" width="47.63" height="2.18"/><rect class="cls-3" x="77.8" y="81.54" width="28.18" height="2.18"/><rect class="cls-3" x="79.14" y="88.84" width="26.84" height="2.18"/><rect class="cls-3" x="77.8" y="98.9" width="28.18" height="2.18"/><rect class="cls-4" x="120.52" y="38.73" width="18.6" height="87.8" transform="translate(42.85 -44.32) rotate(23.11)"/><polygon class="cls-5" points="104.03 119.36 100.97 140.9 121.14 126.66 104.03 119.36"/><path class="cls-3" d="M101,140.89l1.3-9.21s5.81-1.45,6.76,3.52Z"/><path class="cls-6" d="M138.49,38.61s1.39-7.14,8.85-6.28a15.52,15.52,0,0,1,10.9,6.28s1,3.38-2.64,7.3"/></g></g></svg>