<svg xmlns="http://www.w3.org/2000/svg" viewBox="0 0 186.43 186.43"><defs><style>.cls-1{fill:#f7f3e8;}.cls-2{fill:#0a1633;}.cls-3{fill:#88a1ae;}.cls-4{fill:#81301a;}</style></defs><g id="Layer_2" data-name="Layer 2"><g id="Layer_1-2" data-name="Layer 1"><circle class="cls-1" cx="93.21" cy="93.21" r="93.21"/><path class="cls-2" d="M94.57,129.69a27,27,0,0,0,12.26,13c5.37,2.8,12.31,4.28,18.21,2.3a12,12,0,0,0,7.63-7,10.91,10.91,0,0,0-.81-9.74,8.53,8.53,0,0,0-8.75-4,7.37,7.37,0,0,0-5.91,7.27c-.11,6.38,5.87,12,11.14,14.68,5.93,3,13.06,3.2,18.52-.91,5-3.79,8.07-11,4.57-16.84a8,8,0,0,0-8.62-3.93,6.74,6.74,0,0,0-5.29,7.28c.4,4,3.25,7.27,6.36,9.55a20.71,20.71,0,0,0,9.17,3.7c7.87,1.17,15.59-1.71,21.89-6.31a3.1,3.1,0,0,0,1.08-4.11,3,3,0,0,0-4.11-1.07c-3.94,2.87-8.54,5.31-13.48,5.72-4.17.35-8.6-.61-11.77-3.32-1.35-1.15-2.94-2.78-3.17-4.54a1.19,1.19,0,0,1,.21-1c-.1.18,0,0,.27-.08-.45.17.17,0,.29-.05.51-.06-.4.05.11,0,.13,0,.77.06.29,0,.1,0,.88.29.45.1,1.43.65,1.86,2.5,1.8,4a7.7,7.7,0,0,1-2,4.59,10.42,10.42,0,0,1-10.8,3A17.06,17.06,0,0,1,124,134.34a9.1,9.1,0,0,1-.8-2.18c0-.22,0-.44,0-.66,0-1-.07.23,0-.33s.08-.48.4-.77a2.11,2.11,0,0,1,2.84.53A4.94,4.94,0,0,1,127,136a6.17,6.17,0,0,1-4.35,3.43c-4.54,1.21-9.51-.06-13.46-2.26a21.66,21.66,0,0,1-9.47-10.5c-.65-1.49-2.83-1.82-4.11-1.08a3.08,3.08,0,0,0-1.07,4.11Z"/><path class="cls-3" d="M55.12,64s19.74-2.9,19.37-8.56S80.65,38,80.65,38s8.69-6.57-18-16.47c0,0-7.08-5.89-13.84,17.36s-3.69,43.44-1.1,51.26,8.51,28,28,44.05S97.13,145.9,98.22,143s15.36-16.75,6.39-23.23a54.34,54.34,0,0,1-14.67-11.64s-2.47-7.33-21.11,2.64C68.83,110.81,51.51,81.32,55.12,64Z"/><path class="cls-4" d="M101.39,106.15S74,69.7,84,64.84,98.61,80.46,98.61,80.46s5.9-23.95,12.85-18.74S101.39,106.15,101.39,106.15Z"/></g></g></svg>