<svg xmlns="http://www.w3.org/2000/svg" xmlns:xlink="http://www.w3.org/1999/xlink" viewBox="0 0 333.2 625.19"><defs><style>.cls-1{fill:none;}.cls-2{clip-path:url(#clip-path);}.cls-3{fill:#656243;}.cls-4{fill:#40401d;}.cls-5{fill:#747f75;}</style><clipPath id="clip-path" transform="translate(-112.59 -61.26)"><rect class="cls-1" x="84.65" y="40.81" width="359.9" height="604.84" transform="translate(-93.11 98.56) rotate(-18)"/></clipPath></defs><g id="Layer_2" data-name="Layer 2"><g id="Layer_1-2" data-name="Layer 1"><g id="Group_29" data-name="Group 29"><g class="cls-2"><g id="Group_21" data-name="Group 21"><path id="Path_71" data-name="Path 71" class="cls-3" d="M264.52,359.48s-47,9.55-56.51.29-29.19-23.08-17.11-44.88S207,268,229.38,261.6s33-11.5,42.94-4.31S314,266.9,319,291s-19.45,57.92-54.49,68.48" transform="translate(-112.59 -61.26)"/><path id="Path_72" data-name="Path 72" class="cls-4" d="M186.91,686.46l24.34-8s63.1-82.5,62.61-111.9S291,506.7,291,506.7l37.65-49s79.64-56.19,83.38-55.65-21.53,7-21.53,7l-80.07,54.62-22.14,34.74-9.75-113,40.9-58.11S392.1,251,406.58,242l-14.48,9-84.6,70.1-36.45,57.66-24.71-71.29s-15.59-14.92-18.45-17.15,16-66.22,16-66.22l72-113.74-21.5,7.08L228.72,228.68,216,279.15s-17.62-13.73-27.88-23.36-30.11-56.89-30.11-56.89l-19.72-94.47-7,13.14L151.24,213l27,53.3,30.64,20,26.79,27.66,25.6,69.72,14.4,118.13-8.08,46.65L233,514.94l-43.33-87.81-4.87,6.54,43.47,89.55L266,556.81s-32.4,105.4-79.13,129.65" transform="translate(-112.59 -61.26)"/><path id="Path_73" data-name="Path 73" class="cls-3" d="M257.16,483.41c-2.34.77-71,7.27-81-23.13s9.37-69,28.6-74.61,27.57-9.09,27.57-9.09,61.78-4.25,62.71,36.84-37.9,70-37.9,70" transform="translate(-112.59 -61.26)"/><path id="Path_74" data-name="Path 74" class="cls-5" d="M309.05,299.3c-2.32-3.38-40.09-36.48-13.51-67s74.94-24.68,74.94-24.68,34.25,3.89,43.33,16.62,15.83,59.21-8.95,76.71-95.81-1.61-95.81-1.61" transform="translate(-112.59 -61.26)"/><path id="Path_75" data-name="Path 75" class="cls-3" d="M253.77,205.56c6.9,3.1,91.54-18.76,97.55-48.72s-21.36-87.15-62-76.95-75.83,25.4-79.38,52,6.53,56.94,43.8,73.68" transform="translate(-112.59 -61.26)"/><path id="Path_76" data-name="Path 76" class="cls-5" d="M332.9,427.69s-41.81-53.61-8.26-74.92,82.6-19.16,90.19-9.2,42.89,26.89,26.81,65.15-63.13,36.91-108.74,19" transform="translate(-112.59 -61.26)"/><path id="Path_77" data-name="Path 77" class="cls-5" d="M184.68,177.53s60.15-43.65,48.14-80.13-79.07-36.14-79.07-36.14S112.56,88.31,112.59,107s2.18,51.1,22.17,67.32,49.92,3.25,49.92,3.25" transform="translate(-112.59 -61.26)"/></g></g></g></g></g></svg>