<svg xmlns="http://www.w3.org/2000/svg" xmlns:xlink="http://www.w3.org/1999/xlink" viewBox="0 0 469.24 178.64"><defs><style>.cls-1{fill:none;}.cls-2{clip-path:url(#clip-path);}.cls-3{fill:#a95738;}.cls-4{fill:#6e2113;}.cls-5{fill:#b88d44;}</style><clipPath id="clip-path" transform="translate(0.01 0)"><rect class="cls-1" width="469.24" height="178.63"/></clipPath></defs><g id="Layer_2" data-name="Layer 2"><g id="Layer_1-2" data-name="Layer 1"><g id="Group_12" data-name="Group 12"><g class="cls-2"><g id="Group_11" data-name="Group 11"><path id="Path_59" data-name="Path 59" class="cls-3" d="M469.24,131.38a29.4,29.4,0,1,1-29.4-29.4,29.4,29.4,0,0,1,29.4,29.4h0" transform="translate(0.01 0)"/><path id="Path_60" data-name="Path 60" class="cls-3" d="M346.38,91.94A29.4,29.4,0,1,1,317,62.54a29.41,29.41,0,0,1,29.41,29.4" transform="translate(0.01 0)"/><path id="Path_61" data-name="Path 61" class="cls-3" d="M469.24,29.4A29.4,29.4,0,1,1,439.84,0a29.4,29.4,0,0,1,29.4,29.4h0" transform="translate(0.01 0)"/><path id="Path_62" data-name="Path 62" class="cls-4" d="M181.66,149.23a29.4,29.4,0,1,1-29.41-29.4,29.4,29.4,0,0,1,29.41,29.4" transform="translate(0.01 0)"/><path id="Path_63" data-name="Path 63" class="cls-3" d="M58.79,109.79a29.4,29.4,0,1,1-29.4-29.4h0a29.4,29.4,0,0,1,29.4,29.4" transform="translate(0.01 0)"/><path id="Path_64" data-name="Path 64" class="cls-5" d="M181.66,47.24a29.4,29.4,0,1,1-29.4-29.4,29.4,29.4,0,0,1,29.4,29.4" transform="translate(0.01 0)"/></g></g></g></g></g></svg>