<svg xmlns="http://www.w3.org/2000/svg" viewBox="0 0 186.43 186.43"><defs><style>.cls-1{fill:#f7f3e8;}.cls-2{fill:#88a1ae;}.cls-3{fill:#b76d4a;}.cls-4{fill:#0a1633;}.cls-5{fill:#81301a;}.cls-6{fill:#c09f59;}</style></defs><g id="Layer_2" data-name="Layer 2"><g id="Layer_1-2" data-name="Layer 1"><circle class="cls-1" cx="93.21" cy="93.21" r="93.21"/><path class="cls-2" d="M37.82,41.9V54.22h9.86s3.45,1.91,0,4.1-10.35,2.47-9.86,9,2.47,73.09,2.47,73.09,54.22,13.69,109.42-1.37V59.69L140.84,55l8.87.54v-12Z"/><path class="cls-1" d="M71.87,75.89A37.58,37.58,0,0,1,89.4,78.81a37.48,37.48,0,0,1-16.69,6.1A37.56,37.56,0,0,1,55.19,82,37.47,37.47,0,0,1,71.87,75.89Z"/><path class="cls-1" d="M115.68,76a37.55,37.55,0,0,1,16.7,6,37.56,37.56,0,0,1-17.51,3,37.55,37.55,0,0,1-16.7-6A37.56,37.56,0,0,1,115.68,76Z"/><circle class="cls-3" cx="68.83" cy="101.95" r="10.69"/><circle class="cls-3" cx="122.38" cy="101.95" r="10.69"/><path class="cls-1" d="M95.8,122.22c-.37,0-.75,0-1.14,0-6.21-.53-8.71-6.68-9.17-9.85a1.9,1.9,0,0,1,3.76-.55h0c0,.25,1,6.21,5.74,6.62a5.69,5.69,0,0,0,4.59-1.29c2.29-2.1,2.35-6.1,2.35-6.14a1.9,1.9,0,0,1,3.8,0c0,.23,0,5.69-3.58,8.94A9.07,9.07,0,0,1,95.8,122.22Z"/><path class="cls-4" d="M66.93,78.12a8.13,8.13,0,0,0,2.92,5.77,1.89,1.89,0,0,0,.84.49,1.92,1.92,0,0,0,1,0A2,2,0,0,0,73,83.06,4,4,0,0,0,73,81c-.09-.39-.24-.78-.3-1.18l.07.5a1.88,1.88,0,0,1,0-.41l-.06.5a1.64,1.64,0,0,1,.07-.28l-.19.46a.8.8,0,0,1,.08-.16H69.37c.89,1.29,1.85,2.53,2.86,3.73l.38.3a1.38,1.38,0,0,0,.71.22,1.78,1.78,0,0,0,1.21-.22,2.45,2.45,0,0,0,.68-.68,2.08,2.08,0,0,0,.19-1.47,9,9,0,0,0-1-2.82,9.92,9.92,0,0,0-1-1.37,6.6,6.6,0,0,0-.9-.93,3.91,3.91,0,0,0-1-.66,2.6,2.6,0,0,0-1.65-.14A2.74,2.74,0,0,0,68,78.21c-.49,1.34.29,2.6,1,3.71A10.88,10.88,0,0,0,70,83.52a2.67,2.67,0,0,0,.81.65,2.45,2.45,0,0,0,.68.26,3.23,3.23,0,0,0,1.2,0,1.86,1.86,0,0,0,1.13-.87,2,2,0,0,0,.2-1.46A1.94,1.94,0,0,0,73.13,81l-.45-.19a1.92,1.92,0,0,0-1,0h-.06l.5-.07H72l.5.07-.17,0,.45.19-.22-.12.39.29a1.72,1.72,0,0,1-.33-.33l.3.38A10.92,10.92,0,0,1,72.2,80a11.93,11.93,0,0,1-.7-1.21l.2.46a1.88,1.88,0,0,1-.14-.46l.07.5a1.28,1.28,0,0,1,0-.34l-.07.51a1.37,1.37,0,0,1,.07-.24l-.19.45a.94.94,0,0,1,.12-.22l-.3.39a.91.91,0,0,1,.17-.17L71,80a.46.46,0,0,1,.15-.09l-.45.19.17,0-.5.07h.14L70,80a1.29,1.29,0,0,1,.21.06l-.45-.19a1.44,1.44,0,0,1,.31.19l-.38-.3a6.49,6.49,0,0,1,1.06,1.1l-.3-.39a8,8,0,0,1,1,1.65l-.2-.45a7.64,7.64,0,0,1,.48,1.61l3.17-1.84c-.38-.46-.76-.93-1.13-1.4l.3.39c-.49-.64-1-1.3-1.43-2A2,2,0,0,0,71,77.56a1.92,1.92,0,0,0-1.64.94,3.42,3.42,0,0,0-.3,2.53c.09.46.27.89.34,1.35l-.07-.5a2,2,0,0,1,0,.43l.07-.51a1.83,1.83,0,0,1-.06.25l3.18-.84a6.3,6.3,0,0,1-1.09-1.1l.3.38a6.76,6.76,0,0,1-.82-1.4l.19.46A6.63,6.63,0,0,1,70.7,78l.06.51,0-.37a2,2,0,0,0-.56-1.34,1.88,1.88,0,0,0-2.68,0,1.84,1.84,0,0,0-.56,1.34Z"/><path class="cls-4" d="M111,78.18A8.15,8.15,0,0,0,113.93,84a1.89,1.89,0,0,0,.84.49,1.89,1.89,0,0,0,2.33-1.33,3.9,3.9,0,0,0,0-2.06,12,12,0,0,1-.3-1.18l.07.5a1.88,1.88,0,0,1,0-.41l-.07.5a1.29,1.29,0,0,1,.08-.28l-.19.46a1.3,1.3,0,0,1,.08-.17h-3.28c.89,1.29,1.85,2.54,2.85,3.74l.39.3a1.48,1.48,0,0,0,.7.22,1.88,1.88,0,0,0,1.21-.22,2.27,2.27,0,0,0,.69-.69,2.06,2.06,0,0,0,.19-1.46,9.22,9.22,0,0,0-1-2.82,9.92,9.92,0,0,0-1-1.37,6.1,6.1,0,0,0-.9-.93,3.91,3.91,0,0,0-1-.66,2.67,2.67,0,0,0-1.65-.15A2.78,2.78,0,0,0,112,78.26c-.5,1.35.29,2.61,1,3.72a11.44,11.44,0,0,0,1.07,1.6,2.67,2.67,0,0,0,.81.65,2.34,2.34,0,0,0,.68.26,3.23,3.23,0,0,0,1.2,0,1.9,1.9,0,0,0,1.13-.87,1.94,1.94,0,0,0,.19-1.47,1.86,1.86,0,0,0-.87-1.13l-.45-.19a1.92,1.92,0,0,0-1,0h-.06l.5-.07h-.12l.5.07-.17,0,.45.2-.22-.13.39.3a2.06,2.06,0,0,1-.33-.33l.29.38a12,12,0,0,1-.7-1.14,12.23,12.23,0,0,1-.7-1.21l.19.45a1.78,1.78,0,0,1-.13-.45l.06.5a1.93,1.93,0,0,1,0-.34l-.07.5a2.17,2.17,0,0,1,.07-.24l-.19.46a.94.94,0,0,1,.12-.22l-.3.39a.91.91,0,0,1,.17-.17l-.38.29a.71.71,0,0,1,.15-.08l-.46.19.18,0-.51.07h.15l-.51-.07a.73.73,0,0,1,.21.06l-.45-.19a1.44,1.44,0,0,1,.31.19l-.38-.3a6.5,6.5,0,0,1,1.06,1.1l-.3-.39a7.56,7.56,0,0,1,1,1.65l-.19-.45a7.64,7.64,0,0,1,.48,1.61L119,81.52c-.39-.45-.76-.92-1.13-1.39l.3.38c-.49-.64-1-1.29-1.43-2a2,2,0,0,0-1.64-.94,1.92,1.92,0,0,0-1.64.94,3.47,3.47,0,0,0-.31,2.53c.1.45.28.89.35,1.35l-.07-.51a2.16,2.16,0,0,1,0,.44l.06-.51a.93.93,0,0,1,0,.24l3.18-.83a6.67,6.67,0,0,1-1.09-1.1l.29.38a6.72,6.72,0,0,1-.81-1.4l.19.45a6.45,6.45,0,0,1-.43-1.56l.07.51c0-.13,0-.25,0-.37a2,2,0,0,0-.55-1.34,1.94,1.94,0,0,0-1.34-.56,1.9,1.9,0,0,0-1.35.56,1.87,1.87,0,0,0-.55,1.34Z"/><circle class="cls-5" cx="131.44" cy="134.24" r="2.85"/><circle class="cls-3" cx="119.52" cy="130.41" r="2.85"/><circle class="cls-6" cx="131.44" cy="124.35" r="2.85"/><path class="cls-5" d="M92.51,98.17l-.1.07h3.84l-.1-.06,1.75,4.29,0-.08-1.75,2.27.07,0-2.92.39.07,0a3.8,3.8,0,0,0,4.29-1.74,5,5,0,0,0,.59-2.21,4.26,4.26,0,0,0-7.94-2.17,4.43,4.43,0,0,0,0,4.4,3.76,3.76,0,0,0,3.27,1.88,4,4,0,0,0,3.28-1.88,6.51,6.51,0,0,0,.83-5.17c-.19-1.09-.59-2.14-.75-3.25l.14,1c-.32-2.66-.24-5.41-.33-8.09a3.8,3.8,0,1,0-7.59,0c.07,2.13.12,4.25.2,6.38a19.16,19.16,0,0,0,.43,3.69c.2.83.48,1.64.6,2.49l-.13-1a4.68,4.68,0,0,1,0,1l.13-1c0,.17-.22.71,0,.09s0-.09-.11,0h6.55l-.07-.13.52,1.91,0-.14-.13,1L95,104.26H93l-2.16-2.17-.14-1v.15l.52-1.91-.06.13,4.29-1.74a3.87,3.87,0,0,0-3.09,7l.09.06a3.73,3.73,0,0,0,3.84,0l.09-.07a4.21,4.21,0,0,0,1.75-2.27,3.9,3.9,0,0,0-.39-2.93c-1-1.57-3.48-2.62-5.19-1.36Z"/><path class="cls-5" d="M90.8,98.66a1.55,1.55,0,0,1,.06.31l-.14-1a2.68,2.68,0,0,1,0,.49l.14-1a7.85,7.85,0,0,0-.11,3.34A4.34,4.34,0,0,0,94.3,104a4.4,4.4,0,0,0,4.35-2.22,7.19,7.19,0,0,0,.76-3.44,37.24,37.24,0,0,0-1.15-9.51l-7.32,2a23.87,23.87,0,0,1,.79,3.62l-.14-1a19.18,19.18,0,0,1,.13,5l.13-1a5.27,5.27,0,0,1-.29,1.12l.38-.9a2.85,2.85,0,0,1-.25.45l.6-.77a1.62,1.62,0,0,1-.32.32l.77-.6a.7.7,0,0,1-.24.13l.91-.38a1,1,0,0,1-.25.06l1-.14h-.12l1,.14a.71.71,0,0,1-.24-.06l.91.39a1,1,0,0,1-.22-.14l.77.59-.09-.1.59.77a1.24,1.24,0,0,1-.17-.27L97,99a2.81,2.81,0,0,1-.15-.55l.13,1A14.13,14.13,0,0,1,97.06,97c.06-.9.14-1.8.22-2.7.17-1.78.37-3.57.61-5.34l-.13,1,.12-.93a4.17,4.17,0,0,0-.38-2.92,3.79,3.79,0,0,0-5.19-1.37A3.68,3.68,0,0,0,90.56,87c-.31,2.23-.6,4.46-.82,6.7-.09,1-.18,1.95-.25,2.93a16.18,16.18,0,0,0-.1,2.87,5.11,5.11,0,0,0,3,4.52,4.72,4.72,0,0,0,5.16-1c1.81-1.81,2-4.6,1.89-7a28.45,28.45,0,0,0-1.14-7.09,3.8,3.8,0,0,0-7.32,2,33.91,33.91,0,0,1,.72,3.72l-.14-1a24.26,24.26,0,0,1,.25,5.58l.14-1a3.65,3.65,0,0,1-.13.55l.38-.91a1,1,0,0,1-.16.31l.6-.76-.11.11.77-.59-.12.08.9-.38-.12.05,1-.14H94.8l1,.13-.12,0,.91.38-.11-.08,1.36,1.37-.09-.13.38.91a1.31,1.31,0,0,1-.09-.28l.14,1a2.21,2.21,0,0,1,0-.63l-.14,1a8.1,8.1,0,0,0,.06-3.5,3.8,3.8,0,0,0-7.32,2Z"/><circle class="cls-5" cx="139.91" cy="127.56" r="2.85"/></g></g></svg>